solid motor_Default_sldprt
   facet normal -9.954685e-001 9.509189e-002 0.000000e+000
      outer loop
         vertex -1.750000e+001 0.000000e+000 0.000000e+000
         vertex -1.732187e+001 2.490510e+000 6.000000e+001
         vertex -1.732187e+001 2.490510e+000 0.000000e+000
      endloop
   endfacet
   facet normal -9.819355e-001 1.892159e-001 0.000000e+000
      outer loop
         vertex -1.732187e+001 2.490510e+000 0.000000e+000
         vertex -1.732187e+001 2.490510e+000 6.000000e+001
         vertex -1.679113e+001 4.930320e+000 6.000000e+001
      endloop
   endfacet
   facet normal -9.718031e-001 2.357940e-001 0.000000e+000
      outer loop
         vertex -1.732187e+001 2.490510e+000 0.000000e+000
         vertex -1.679113e+001 4.930320e+000 6.000000e+001
         vertex -1.679113e+001 4.930320e+000 0.000000e+000
      endloop
   endfacet
   facet normal -9.450126e-001 3.270339e-001 0.000000e+000
      outer loop
         vertex -1.679113e+001 4.930320e+000 0.000000e+000
         vertex -1.679113e+001 4.930320e+000 6.000000e+001
         vertex -1.591856e+001 7.269763e+000 6.000000e+001
      endloop
   endfacet
   facet normal -9.283545e-001 3.716959e-001 0.000000e+000
      outer loop
         vertex -1.679113e+001 4.930320e+000 0.000000e+000
         vertex -1.591856e+001 7.269763e+000 6.000000e+001
         vertex -1.591856e+001 7.269763e+000 0.000000e+000
      endloop
   endfacet
   facet normal -8.888519e-001 4.581946e-001 0.000000e+000
      outer loop
         vertex -1.591856e+001 7.269763e+000 0.000000e+000
         vertex -1.591856e+001 7.269763e+000 6.000000e+001
         vertex -1.472194e+001 9.461215e+000 6.000000e+001
      endloop
   endfacet
   facet normal -8.660074e-001 5.000312e-001 0.000000e+000
      outer loop
         vertex -1.591856e+001 7.269763e+000 0.000000e+000
         vertex -1.472194e+001 9.461215e+000 6.000000e+001
         vertex -1.472194e+001 9.461215e+000 0.000000e+000
      endloop
   endfacet
   facet normal -8.145968e-001 5.800276e-001 0.000000e+000
      outer loop
         vertex -1.472194e+001 9.461215e+000 0.000000e+000
         vertex -1.472194e+001 9.461215e+000 6.000000e+001
         vertex -1.322562e+001 1.146006e+001 6.000000e+001
      endloop
   endfacet
   facet normal -7.860308e-001 6.181873e-001 0.000000e+000
      outer loop
         vertex -1.472194e+001 9.461215e+000 0.000000e+000
         vertex -1.322562e+001 1.146006e+001 6.000000e+001
         vertex -1.322562e+001 1.146006e+001 0.000000e+000
      endloop
   endfacet
   facet normal -7.237589e-001 6.900530e-001 0.000000e+000
      outer loop
         vertex -1.322562e+001 1.146006e+001 0.000000e+000
         vertex -1.322562e+001 1.146006e+001 6.000000e+001
         vertex -1.146006e+001 1.322562e+001 6.000000e+001
      endloop
   endfacet
   facet normal -6.900530e-001 7.237589e-001 0.000000e+000
      outer loop
         vertex -1.322562e+001 1.146006e+001 0.000000e+000
         vertex -1.146006e+001 1.322562e+001 6.000000e+001
         vertex -1.146006e+001 1.322562e+001 0.000000e+000
      endloop
   endfacet
   facet normal -6.181873e-001 7.860308e-001 0.000000e+000
      outer loop
         vertex -1.146006e+001 1.322562e+001 0.000000e+000
         vertex -1.146006e+001 1.322562e+001 6.000000e+001
         vertex -9.461215e+000 1.472194e+001 6.000000e+001
      endloop
   endfacet
   facet normal -5.800276e-001 8.145968e-001 0.000000e+000
      outer loop
         vertex -1.146006e+001 1.322562e+001 0.000000e+000
         vertex -9.461215e+000 1.472194e+001 6.000000e+001
         vertex -9.461215e+000 1.472194e+001 0.000000e+000
      endloop
   endfacet
   facet normal -5.000312e-001 8.660074e-001 0.000000e+000
      outer loop
         vertex -9.461215e+000 1.472194e+001 0.000000e+000
         vertex -9.461215e+000 1.472194e+001 6.000000e+001
         vertex -7.269763e+000 1.591856e+001 6.000000e+001
      endloop
   endfacet
   facet normal -4.581946e-001 8.888519e-001 0.000000e+000
      outer loop
         vertex -9.461215e+000 1.472194e+001 0.000000e+000
         vertex -7.269763e+000 1.591856e+001 6.000000e+001
         vertex -7.269763e+000 1.591856e+001 0.000000e+000
      endloop
   endfacet
   facet normal -3.716959e-001 9.283545e-001 0.000000e+000
      outer loop
         vertex -7.269763e+000 1.591856e+001 0.000000e+000
         vertex -7.269763e+000 1.591856e+001 6.000000e+001
         vertex -4.930320e+000 1.679113e+001 6.000000e+001
      endloop
   endfacet
   facet normal -3.270340e-001 9.450126e-001 0.000000e+000
      outer loop
         vertex -7.269763e+000 1.591856e+001 0.000000e+000
         vertex -4.930320e+000 1.679113e+001 6.000000e+001
         vertex -4.930320e+000 1.679113e+001 0.000000e+000
      endloop
   endfacet
   facet normal -2.357940e-001 9.718031e-001 0.000000e+000
      outer loop
         vertex -4.930320e+000 1.679113e+001 0.000000e+000
         vertex -4.930320e+000 1.679113e+001 6.000000e+001
         vertex -2.490510e+000 1.732187e+001 6.000000e+001
      endloop
   endfacet
   facet normal -1.892159e-001 9.819355e-001 0.000000e+000
      outer loop
         vertex -4.930320e+000 1.679113e+001 0.000000e+000
         vertex -2.490510e+000 1.732187e+001 6.000000e+001
         vertex -2.490510e+000 1.732187e+001 0.000000e+000
      endloop
   endfacet
   facet normal -9.509189e-002 9.954685e-001 0.000000e+000
      outer loop
         vertex -2.490510e+000 1.732187e+001 0.000000e+000
         vertex -2.490510e+000 1.732187e+001 6.000000e+001
         vertex 2.814215e-015 1.750000e+001 6.000000e+001
      endloop
   endfacet
   facet normal -4.754595e-002 9.988691e-001 0.000000e+000
      outer loop
         vertex -2.490510e+000 1.732187e+001 0.000000e+000
         vertex 2.814215e-015 1.750000e+001 6.000000e+001
         vertex 2.814215e-015 1.750000e+001 0.000000e+000
      endloop
   endfacet
   facet normal 4.754595e-002 9.988691e-001 0.000000e+000
      outer loop
         vertex 2.814215e-015 1.750000e+001 0.000000e+000
         vertex 2.814215e-015 1.750000e+001 6.000000e+001
         vertex 2.490510e+000 1.732187e+001 6.000000e+001
      endloop
   endfacet
   facet normal 9.509189e-002 9.954685e-001 0.000000e+000
      outer loop
         vertex 2.814215e-015 1.750000e+001 0.000000e+000
         vertex 2.490510e+000 1.732187e+001 6.000000e+001
         vertex 2.490510e+000 1.732187e+001 0.000000e+000
      endloop
   endfacet
   facet normal 1.892159e-001 9.819355e-001 0.000000e+000
      outer loop
         vertex 2.490510e+000 1.732187e+001 0.000000e+000
         vertex 2.490510e+000 1.732187e+001 6.000000e+001
         vertex 4.930320e+000 1.679113e+001 6.000000e+001
      endloop
   endfacet
   facet normal 2.357940e-001 9.718031e-001 0.000000e+000
      outer loop
         vertex 2.490510e+000 1.732187e+001 0.000000e+000
         vertex 4.930320e+000 1.679113e+001 6.000000e+001
         vertex 4.930320e+000 1.679113e+001 0.000000e+000
      endloop
   endfacet
   facet normal 3.270339e-001 9.450126e-001 0.000000e+000
      outer loop
         vertex 4.930320e+000 1.679113e+001 0.000000e+000
         vertex 4.930320e+000 1.679113e+001 6.000000e+001
         vertex 7.269763e+000 1.591856e+001 6.000000e+001
      endloop
   endfacet
   facet normal 3.716959e-001 9.283545e-001 0.000000e+000
      outer loop
         vertex 4.930320e+000 1.679113e+001 0.000000e+000
         vertex 7.269763e+000 1.591856e+001 6.000000e+001
         vertex 7.269763e+000 1.591856e+001 0.000000e+000
      endloop
   endfacet
   facet normal 4.581946e-001 8.888519e-001 0.000000e+000
      outer loop
         vertex 7.269763e+000 1.591856e+001 0.000000e+000
         vertex 7.269763e+000 1.591856e+001 6.000000e+001
         vertex 9.461215e+000 1.472194e+001 6.000000e+001
      endloop
   endfacet
   facet normal 5.000312e-001 8.660074e-001 0.000000e+000
      outer loop
         vertex 7.269763e+000 1.591856e+001 0.000000e+000
         vertex 9.461215e+000 1.472194e+001 6.000000e+001
         vertex 9.461215e+000 1.472194e+001 0.000000e+000
      endloop
   endfacet
   facet normal 5.800276e-001 8.145968e-001 0.000000e+000
      outer loop
         vertex 9.461215e+000 1.472194e+001 0.000000e+000
         vertex 9.461215e+000 1.472194e+001 6.000000e+001
         vertex 1.146006e+001 1.322562e+001 6.000000e+001
      endloop
   endfacet
   facet normal 6.181873e-001 7.860308e-001 0.000000e+000
      outer loop
         vertex 9.461215e+000 1.472194e+001 0.000000e+000
         vertex 1.146006e+001 1.322562e+001 6.000000e+001
         vertex 1.146006e+001 1.322562e+001 0.000000e+000
      endloop
   endfacet
   facet normal 6.900530e-001 7.237589e-001 0.000000e+000
      outer loop
         vertex 1.146006e+001 1.322562e+001 0.000000e+000
         vertex 1.146006e+001 1.322562e+001 6.000000e+001
         vertex 1.322562e+001 1.146006e+001 6.000000e+001
      endloop
   endfacet
   facet normal 7.237589e-001 6.900530e-001 0.000000e+000
      outer loop
         vertex 1.146006e+001 1.322562e+001 0.000000e+000
         vertex 1.322562e+001 1.146006e+001 6.000000e+001
         vertex 1.322562e+001 1.146006e+001 0.000000e+000
      endloop
   endfacet
   facet normal 7.860308e-001 6.181873e-001 0.000000e+000
      outer loop
         vertex 1.322562e+001 1.146006e+001 0.000000e+000
         vertex 1.322562e+001 1.146006e+001 6.000000e+001
         vertex 1.472194e+001 9.461215e+000 6.000000e+001
      endloop
   endfacet
   facet normal 8.145968e-001 5.800276e-001 0.000000e+000
      outer loop
         vertex 1.322562e+001 1.146006e+001 0.000000e+000
         vertex 1.472194e+001 9.461215e+000 6.000000e+001
         vertex 1.472194e+001 9.461215e+000 0.000000e+000
      endloop
   endfacet
   facet normal 8.660074e-001 5.000312e-001 0.000000e+000
      outer loop
         vertex 1.472194e+001 9.461215e+000 0.000000e+000
         vertex 1.472194e+001 9.461215e+000 6.000000e+001
         vertex 1.591856e+001 7.269763e+000 6.000000e+001
      endloop
   endfacet
   facet normal 8.888519e-001 4.581946e-001 0.000000e+000
      outer loop
         vertex 1.472194e+001 9.461215e+000 0.000000e+000
         vertex 1.591856e+001 7.269763e+000 6.000000e+001
         vertex 1.591856e+001 7.269763e+000 0.000000e+000
      endloop
   endfacet
   facet normal 9.283545e-001 3.716959e-001 0.000000e+000
      outer loop
         vertex 1.591856e+001 7.269763e+000 0.000000e+000
         vertex 1.591856e+001 7.269763e+000 6.000000e+001
         vertex 1.679113e+001 4.930320e+000 6.000000e+001
      endloop
   endfacet
   facet normal 9.450126e-001 3.270340e-001 0.000000e+000
      outer loop
         vertex 1.591856e+001 7.269763e+000 0.000000e+000
         vertex 1.679113e+001 4.930320e+000 6.000000e+001
         vertex 1.679113e+001 4.930320e+000 0.000000e+000
      endloop
   endfacet
   facet normal 9.718031e-001 2.357940e-001 0.000000e+000
      outer loop
         vertex 1.679113e+001 4.930320e+000 0.000000e+000
         vertex 1.679113e+001 4.930320e+000 6.000000e+001
         vertex 1.732187e+001 2.490510e+000 6.000000e+001
      endloop
   endfacet
   facet normal 9.819355e-001 1.892159e-001 0.000000e+000
      outer loop
         vertex 1.679113e+001 4.930320e+000 0.000000e+000
         vertex 1.732187e+001 2.490510e+000 6.000000e+001
         vertex 1.732187e+001 2.490510e+000 0.000000e+000
      endloop
   endfacet
   facet normal 9.954685e-001 9.509189e-002 0.000000e+000
      outer loop
         vertex 1.732187e+001 2.490510e+000 0.000000e+000
         vertex 1.732187e+001 2.490510e+000 6.000000e+001
         vertex 1.750000e+001 2.143132e-015 6.000000e+001
      endloop
   endfacet
   facet normal 9.988691e-001 4.754595e-002 0.000000e+000
      outer loop
         vertex 1.732187e+001 2.490510e+000 0.000000e+000
         vertex 1.750000e+001 2.143132e-015 6.000000e+001
         vertex 1.750000e+001 2.143132e-015 0.000000e+000
      endloop
   endfacet
   facet normal 9.988691e-001 -4.754595e-002 0.000000e+000
      outer loop
         vertex 1.750000e+001 2.143132e-015 0.000000e+000
         vertex 1.750000e+001 2.143132e-015 6.000000e+001
         vertex 1.732187e+001 -2.490510e+000 6.000000e+001
      endloop
   endfacet
   facet normal 9.954685e-001 -9.509189e-002 0.000000e+000
      outer loop
         vertex 1.750000e+001 2.143132e-015 0.000000e+000
         vertex 1.732187e+001 -2.490510e+000 6.000000e+001
         vertex 1.732187e+001 -2.490510e+000 0.000000e+000
      endloop
   endfacet
   facet normal 9.819355e-001 -1.892159e-001 0.000000e+000
      outer loop
         vertex 1.732187e+001 -2.490510e+000 0.000000e+000
         vertex 1.732187e+001 -2.490510e+000 6.000000e+001
         vertex 1.679113e+001 -4.930320e+000 6.000000e+001
      endloop
   endfacet
   facet normal 9.718031e-001 -2.357940e-001 0.000000e+000
      outer loop
         vertex 1.732187e+001 -2.490510e+000 0.000000e+000
         vertex 1.679113e+001 -4.930320e+000 6.000000e+001
         vertex 1.679113e+001 -4.930320e+000 0.000000e+000
      endloop
   endfacet
   facet normal 9.450126e-001 -3.270339e-001 0.000000e+000
      outer loop
         vertex 1.679113e+001 -4.930320e+000 0.000000e+000
         vertex 1.679113e+001 -4.930320e+000 6.000000e+001
         vertex 1.591856e+001 -7.269763e+000 6.000000e+001
      endloop
   endfacet
   facet normal 9.283545e-001 -3.716959e-001 0.000000e+000
      outer loop
         vertex 1.679113e+001 -4.930320e+000 0.000000e+000
         vertex 1.591856e+001 -7.269763e+000 6.000000e+001
         vertex 1.591856e+001 -7.269763e+000 0.000000e+000
      endloop
   endfacet
   facet normal 8.888519e-001 -4.581946e-001 0.000000e+000
      outer loop
         vertex 1.591856e+001 -7.269763e+000 0.000000e+000
         vertex 1.591856e+001 -7.269763e+000 6.000000e+001
         vertex 1.472194e+001 -9.461215e+000 6.000000e+001
      endloop
   endfacet
   facet normal 8.660074e-001 -5.000312e-001 0.000000e+000
      outer loop
         vertex 1.591856e+001 -7.269763e+000 0.000000e+000
         vertex 1.472194e+001 -9.461215e+000 6.000000e+001
         vertex 1.472194e+001 -9.461215e+000 0.000000e+000
      endloop
   endfacet
   facet normal 8.145968e-001 -5.800276e-001 0.000000e+000
      outer loop
         vertex 1.472194e+001 -9.461215e+000 0.000000e+000
         vertex 1.472194e+001 -9.461215e+000 6.000000e+001
         vertex 1.322562e+001 -1.146006e+001 6.000000e+001
      endloop
   endfacet
   facet normal 7.860308e-001 -6.181873e-001 0.000000e+000
      outer loop
         vertex 1.472194e+001 -9.461215e+000 0.000000e+000
         vertex 1.322562e+001 -1.146006e+001 6.000000e+001
         vertex 1.322562e+001 -1.146006e+001 0.000000e+000
      endloop
   endfacet
   facet normal 7.237589e-001 -6.900530e-001 0.000000e+000
      outer loop
         vertex 1.322562e+001 -1.146006e+001 0.000000e+000
         vertex 1.322562e+001 -1.146006e+001 6.000000e+001
         vertex 1.146006e+001 -1.322562e+001 6.000000e+001
      endloop
   endfacet
   facet normal 6.900530e-001 -7.237589e-001 0.000000e+000
      outer loop
         vertex 1.322562e+001 -1.146006e+001 0.000000e+000
         vertex 1.146006e+001 -1.322562e+001 6.000000e+001
         vertex 1.146006e+001 -1.322562e+001 0.000000e+000
      endloop
   endfacet
   facet normal 6.181873e-001 -7.860308e-001 0.000000e+000
      outer loop
         vertex 1.146006e+001 -1.322562e+001 0.000000e+000
         vertex 1.146006e+001 -1.322562e+001 6.000000e+001
         vertex 9.461215e+000 -1.472194e+001 6.000000e+001
      endloop
   endfacet
   facet normal 5.800276e-001 -8.145968e-001 0.000000e+000
      outer loop
         vertex 1.146006e+001 -1.322562e+001 0.000000e+000
         vertex 9.461215e+000 -1.472194e+001 6.000000e+001
         vertex 9.461215e+000 -1.472194e+001 0.000000e+000
      endloop
   endfacet
   facet normal 5.000312e-001 -8.660074e-001 0.000000e+000
      outer loop
         vertex 9.461215e+000 -1.472194e+001 0.000000e+000
         vertex 9.461215e+000 -1.472194e+001 6.000000e+001
         vertex 7.269763e+000 -1.591856e+001 6.000000e+001
      endloop
   endfacet
   facet normal 4.581946e-001 -8.888519e-001 0.000000e+000
      outer loop
         vertex 9.461215e+000 -1.472194e+001 0.000000e+000
         vertex 7.269763e+000 -1.591856e+001 6.000000e+001
         vertex 7.269763e+000 -1.591856e+001 0.000000e+000
      endloop
   endfacet
   facet normal 3.716959e-001 -9.283545e-001 0.000000e+000
      outer loop
         vertex 7.269763e+000 -1.591856e+001 0.000000e+000
         vertex 7.269763e+000 -1.591856e+001 6.000000e+001
         vertex 4.930320e+000 -1.679113e+001 6.000000e+001
      endloop
   endfacet
   facet normal 3.270340e-001 -9.450126e-001 0.000000e+000
      outer loop
         vertex 7.269763e+000 -1.591856e+001 0.000000e+000
         vertex 4.930320e+000 -1.679113e+001 6.000000e+001
         vertex 4.930320e+000 -1.679113e+001 0.000000e+000
      endloop
   endfacet
   facet normal 2.357940e-001 -9.718031e-001 0.000000e+000
      outer loop
         vertex 4.930320e+000 -1.679113e+001 0.000000e+000
         vertex 4.930320e+000 -1.679113e+001 6.000000e+001
         vertex 2.490510e+000 -1.732187e+001 6.000000e+001
      endloop
   endfacet
   facet normal 1.892159e-001 -9.819355e-001 0.000000e+000
      outer loop
         vertex 4.930320e+000 -1.679113e+001 0.000000e+000
         vertex 2.490510e+000 -1.732187e+001 6.000000e+001
         vertex 2.490510e+000 -1.732187e+001 0.000000e+000
      endloop
   endfacet
   facet normal 9.509189e-002 -9.954685e-001 0.000000e+000
      outer loop
         vertex 2.490510e+000 -1.732187e+001 0.000000e+000
         vertex 2.490510e+000 -1.732187e+001 6.000000e+001
         vertex 3.214698e-015 -1.750000e+001 6.000000e+001
      endloop
   endfacet
   facet normal 4.754595e-002 -9.988691e-001 0.000000e+000
      outer loop
         vertex 2.490510e+000 -1.732187e+001 0.000000e+000
         vertex 3.214698e-015 -1.750000e+001 6.000000e+001
         vertex 3.214698e-015 -1.750000e+001 0.000000e+000
      endloop
   endfacet
   facet normal -4.754595e-002 -9.988691e-001 0.000000e+000
      outer loop
         vertex 3.214698e-015 -1.750000e+001 0.000000e+000
         vertex 3.214698e-015 -1.750000e+001 6.000000e+001
         vertex -2.490510e+000 -1.732187e+001 6.000000e+001
      endloop
   endfacet
   facet normal -9.509189e-002 -9.954685e-001 0.000000e+000
      outer loop
         vertex 3.214698e-015 -1.750000e+001 0.000000e+000
         vertex -2.490510e+000 -1.732187e+001 6.000000e+001
         vertex -2.490510e+000 -1.732187e+001 0.000000e+000
      endloop
   endfacet
   facet normal -1.892159e-001 -9.819355e-001 0.000000e+000
      outer loop
         vertex -2.490510e+000 -1.732187e+001 0.000000e+000
         vertex -2.490510e+000 -1.732187e+001 6.000000e+001
         vertex -4.930320e+000 -1.679113e+001 6.000000e+001
      endloop
   endfacet
   facet normal -2.357940e-001 -9.718031e-001 0.000000e+000
      outer loop
         vertex -2.490510e+000 -1.732187e+001 0.000000e+000
         vertex -4.930320e+000 -1.679113e+001 6.000000e+001
         vertex -4.930320e+000 -1.679113e+001 0.000000e+000
      endloop
   endfacet
   facet normal -3.270339e-001 -9.450126e-001 0.000000e+000
      outer loop
         vertex -4.930320e+000 -1.679113e+001 0.000000e+000
         vertex -4.930320e+000 -1.679113e+001 6.000000e+001
         vertex -7.269763e+000 -1.591856e+001 6.000000e+001
      endloop
   endfacet
   facet normal -3.716959e-001 -9.283545e-001 0.000000e+000
      outer loop
         vertex -4.930320e+000 -1.679113e+001 0.000000e+000
         vertex -7.269763e+000 -1.591856e+001 6.000000e+001
         vertex -7.269763e+000 -1.591856e+001 0.000000e+000
      endloop
   endfacet
   facet normal -4.581946e-001 -8.888519e-001 0.000000e+000
      outer loop
         vertex -7.269763e+000 -1.591856e+001 0.000000e+000
         vertex -7.269763e+000 -1.591856e+001 6.000000e+001
         vertex -9.461215e+000 -1.472194e+001 6.000000e+001
      endloop
   endfacet
   facet normal -5.000312e-001 -8.660074e-001 0.000000e+000
      outer loop
         vertex -7.269763e+000 -1.591856e+001 0.000000e+000
         vertex -9.461215e+000 -1.472194e+001 6.000000e+001
         vertex -9.461215e+000 -1.472194e+001 0.000000e+000
      endloop
   endfacet
   facet normal -5.800276e-001 -8.145968e-001 0.000000e+000
      outer loop
         vertex -9.461215e+000 -1.472194e+001 0.000000e+000
         vertex -9.461215e+000 -1.472194e+001 6.000000e+001
         vertex -1.146006e+001 -1.322562e+001 6.000000e+001
      endloop
   endfacet
   facet normal -6.181873e-001 -7.860308e-001 0.000000e+000
      outer loop
         vertex -9.461215e+000 -1.472194e+001 0.000000e+000
         vertex -1.146006e+001 -1.322562e+001 6.000000e+001
         vertex -1.146006e+001 -1.322562e+001 0.000000e+000
      endloop
   endfacet
   facet normal -6.900530e-001 -7.237589e-001 0.000000e+000
      outer loop
         vertex -1.146006e+001 -1.322562e+001 0.000000e+000
         vertex -1.146006e+001 -1.322562e+001 6.000000e+001
         vertex -1.322562e+001 -1.146006e+001 6.000000e+001
      endloop
   endfacet
   facet normal -7.237589e-001 -6.900530e-001 0.000000e+000
      outer loop
         vertex -1.146006e+001 -1.322562e+001 0.000000e+000
         vertex -1.322562e+001 -1.146006e+001 6.000000e+001
         vertex -1.322562e+001 -1.146006e+001 0.000000e+000
      endloop
   endfacet
   facet normal -7.860308e-001 -6.181873e-001 0.000000e+000
      outer loop
         vertex -1.322562e+001 -1.146006e+001 0.000000e+000
         vertex -1.322562e+001 -1.146006e+001 6.000000e+001
         vertex -1.472194e+001 -9.461215e+000 6.000000e+001
      endloop
   endfacet
   facet normal -8.145968e-001 -5.800276e-001 0.000000e+000
      outer loop
         vertex -1.322562e+001 -1.146006e+001 0.000000e+000
         vertex -1.472194e+001 -9.461215e+000 6.000000e+001
         vertex -1.472194e+001 -9.461215e+000 0.000000e+000
      endloop
   endfacet
   facet normal -8.660074e-001 -5.000312e-001 0.000000e+000
      outer loop
         vertex -1.472194e+001 -9.461215e+000 0.000000e+000
         vertex -1.472194e+001 -9.461215e+000 6.000000e+001
         vertex -1.591856e+001 -7.269763e+000 6.000000e+001
      endloop
   endfacet
   facet normal -8.888519e-001 -4.581946e-001 0.000000e+000
      outer loop
         vertex -1.472194e+001 -9.461215e+000 0.000000e+000
         vertex -1.591856e+001 -7.269763e+000 6.000000e+001
         vertex -1.591856e+001 -7.269763e+000 0.000000e+000
      endloop
   endfacet
   facet normal -9.283545e-001 -3.716959e-001 0.000000e+000
      outer loop
         vertex -1.591856e+001 -7.269763e+000 0.000000e+000
         vertex -1.591856e+001 -7.269763e+000 6.000000e+001
         vertex -1.679113e+001 -4.930320e+000 6.000000e+001
      endloop
   endfacet
   facet normal -9.450126e-001 -3.270340e-001 0.000000e+000
      outer loop
         vertex -1.591856e+001 -7.269763e+000 0.000000e+000
         vertex -1.679113e+001 -4.930320e+000 6.000000e+001
         vertex -1.679113e+001 -4.930320e+000 0.000000e+000
      endloop
   endfacet
   facet normal -9.718031e-001 -2.357940e-001 0.000000e+000
      outer loop
         vertex -1.679113e+001 -4.930320e+000 0.000000e+000
         vertex -1.679113e+001 -4.930320e+000 6.000000e+001
         vertex -1.732187e+001 -2.490510e+000 6.000000e+001
      endloop
   endfacet
   facet normal -9.819355e-001 -1.892159e-001 0.000000e+000
      outer loop
         vertex -1.679113e+001 -4.930320e+000 0.000000e+000
         vertex -1.732187e+001 -2.490510e+000 6.000000e+001
         vertex -1.732187e+001 -2.490510e+000 0.000000e+000
      endloop
   endfacet
   facet normal -9.954685e-001 -9.509189e-002 0.000000e+000
      outer loop
         vertex -1.732187e+001 -2.490510e+000 0.000000e+000
         vertex -1.732187e+001 -2.490510e+000 6.000000e+001
         vertex -1.750000e+001 0.000000e+000 6.000000e+001
      endloop
   endfacet
   facet normal -9.988691e-001 -4.754595e-002 0.000000e+000
      outer loop
         vertex -1.732187e+001 -2.490510e+000 0.000000e+000
         vertex -1.750000e+001 0.000000e+000 6.000000e+001
         vertex -1.750000e+001 0.000000e+000 0.000000e+000
      endloop
   endfacet
   facet normal -9.988691e-001 4.754595e-002 0.000000e+000
      outer loop
         vertex -1.750000e+001 0.000000e+000 0.000000e+000
         vertex -1.750000e+001 0.000000e+000 6.000000e+001
         vertex -1.732187e+001 2.490510e+000 6.000000e+001
      endloop
   endfacet
   facet normal 0.000000e+000 0.000000e+000 1.000000e+000
      outer loop
         vertex -1.118569e+000 -2.783667e+000 6.000000e+001
         vertex -4.930320e+000 -1.679113e+001 6.000000e+001
         vertex -6.320378e-001 -2.932666e+000 6.000000e+001
      endloop
   endfacet
   facet normal 0.000000e+000 0.000000e+000 1.000000e+000
      outer loop
         vertex -6.320378e-001 -2.932666e+000 6.000000e+001
         vertex -4.930320e+000 -1.679113e+001 6.000000e+001
         vertex -2.490510e+000 -1.732187e+001 6.000000e+001
      endloop
   endfacet
   facet normal 0.000000e+000 0.000000e+000 1.000000e+000
      outer loop
         vertex -6.320378e-001 -2.932666e+000 6.000000e+001
         vertex -2.490510e+000 -1.732187e+001 6.000000e+001
         vertex -1.273236e-001 -2.997297e+000 6.000000e+001
      endloop
   endfacet
   facet normal 0.000000e+000 0.000000e+000 1.000000e+000
      outer loop
         vertex -1.273236e-001 -2.997297e+000 6.000000e+001
         vertex -2.490510e+000 -1.732187e+001 6.000000e+001
         vertex 3.214698e-015 -1.750000e+001 6.000000e+001
      endloop
   endfacet
   facet normal 0.000000e+000 0.000000e+000 1.000000e+000
      outer loop
         vertex -1.273236e-001 -2.997297e+000 6.000000e+001
         vertex 3.214698e-015 -1.750000e+001 6.000000e+001
         vertex 3.810534e-001 -2.975701e+000 6.000000e+001
      endloop
   endfacet
   facet normal 0.000000e+000 0.000000e+000 1.000000e+000
      outer loop
         vertex 3.810534e-001 -2.975701e+000 6.000000e+001
         vertex 3.214698e-015 -1.750000e+001 6.000000e+001
         vertex 2.490510e+000 -1.732187e+001 6.000000e+001
      endloop
   endfacet
   facet normal 0.000000e+000 0.000000e+000 1.000000e+000
      outer loop
         vertex 3.810534e-001 -2.975701e+000 6.000000e+001
         vertex 2.490510e+000 -1.732187e+001 6.000000e+001
         vertex 8.784683e-001 -2.868500e+000 6.000000e+001
      endloop
   endfacet
   facet normal 0.000000e+000 0.000000e+000 1.000000e+000
      outer loop
         vertex 8.784683e-001 -2.868500e+000 6.000000e+001
         vertex 2.490510e+000 -1.732187e+001 6.000000e+001
         vertex 4.930320e+000 -1.679113e+001 6.000000e+001
      endloop
   endfacet
   facet normal 0.000000e+000 0.000000e+000 1.000000e+000
      outer loop
         vertex 8.784683e-001 -2.868500e+000 6.000000e+001
         vertex 4.930320e+000 -1.679113e+001 6.000000e+001
         vertex 1.350611e+000 -2.678777e+000 6.000000e+001
      endloop
   endfacet
   facet normal 0.000000e+000 0.000000e+000 1.000000e+000
      outer loop
         vertex 1.350611e+000 -2.678777e+000 6.000000e+001
         vertex 4.930320e+000 -1.679113e+001 6.000000e+001
         vertex 7.269763e+000 -1.591856e+001 6.000000e+001
      endloop
   endfacet
   facet normal 0.000000e+000 0.000000e+000 1.000000e+000
      outer loop
         vertex 1.350611e+000 -2.678777e+000 6.000000e+001
         vertex 7.269763e+000 -1.591856e+001 6.000000e+001
         vertex 1.783900e+000 -2.411991e+000 6.000000e+001
      endloop
   endfacet
   facet normal 0.000000e+000 0.000000e+000 1.000000e+000
      outer loop
         vertex -2.828632e+000 -9.994194e-001 6.000000e+001
         vertex -1.591856e+001 -7.269763e+000 6.000000e+001
         vertex -2.619042e+000 -1.463085e+000 6.000000e+001
      endloop
   endfacet
   facet normal 0.000000e+000 0.000000e+000 1.000000e+000
      outer loop
         vertex -2.619042e+000 -1.463085e+000 6.000000e+001
         vertex -1.591856e+001 -7.269763e+000 6.000000e+001
         vertex -1.472194e+001 -9.461215e+000 6.000000e+001
      endloop
   endfacet
   facet normal 0.000000e+000 0.000000e+000 1.000000e+000
      outer loop
         vertex -2.619042e+000 -1.463085e+000 6.000000e+001
         vertex -1.472194e+001 -9.461215e+000 6.000000e+001
         vertex -2.334107e+000 -1.884660e+000 6.000000e+001
      endloop
   endfacet
   facet normal 0.000000e+000 0.000000e+000 1.000000e+000
      outer loop
         vertex -2.334107e+000 -1.884660e+000 6.000000e+001
         vertex -1.472194e+001 -9.461215e+000 6.000000e+001
         vertex -1.322562e+001 -1.146006e+001 6.000000e+001
      endloop
   endfacet
   facet normal 0.000000e+000 0.000000e+000 1.000000e+000
      outer loop
         vertex -2.334107e+000 -1.884660e+000 6.000000e+001
         vertex -1.322562e+001 -1.146006e+001 6.000000e+001
         vertex -1.982024e+000 -2.252017e+000 6.000000e+001
      endloop
   endfacet
   facet normal 0.000000e+000 0.000000e+000 1.000000e+000
      outer loop
         vertex -1.982024e+000 -2.252017e+000 6.000000e+001
         vertex -1.322562e+001 -1.146006e+001 6.000000e+001
         vertex -1.146006e+001 -1.322562e+001 6.000000e+001
      endloop
   endfacet
   facet normal 0.000000e+000 0.000000e+000 1.000000e+000
      outer loop
         vertex -1.982024e+000 -2.252017e+000 6.000000e+001
         vertex -1.146006e+001 -1.322562e+001 6.000000e+001
         vertex -1.572922e+000 -2.554587e+000 6.000000e+001
      endloop
   endfacet
   facet normal 0.000000e+000 0.000000e+000 1.000000e+000
      outer loop
         vertex -1.572922e+000 -2.554587e+000 6.000000e+001
         vertex -1.146006e+001 -1.322562e+001 6.000000e+001
         vertex -9.461215e+000 -1.472194e+001 6.000000e+001
      endloop
   endfacet
   facet normal 0.000000e+000 0.000000e+000 1.000000e+000
      outer loop
         vertex -1.572922e+000 -2.554587e+000 6.000000e+001
         vertex -9.461215e+000 -1.472194e+001 6.000000e+001
         vertex -1.118569e+000 -2.783667e+000 6.000000e+001
      endloop
   endfacet
   facet normal 0.000000e+000 0.000000e+000 1.000000e+000
      outer loop
         vertex -1.118569e+000 -2.783667e+000 6.000000e+001
         vertex -9.461215e+000 -1.472194e+001 6.000000e+001
         vertex -7.269763e+000 -1.591856e+001 6.000000e+001
      endloop
   endfacet
   facet normal 0.000000e+000 0.000000e+000 1.000000e+000
      outer loop
         vertex -1.118569e+000 -2.783667e+000 6.000000e+001
         vertex -7.269763e+000 -1.591856e+001 6.000000e+001
         vertex -4.930320e+000 -1.679113e+001 6.000000e+001
      endloop
   endfacet
   facet normal 0.000000e+000 0.000000e+000 1.000000e+000
      outer loop
         vertex -2.619042e+000 1.463085e+000 6.000000e+001
         vertex -1.591856e+001 7.269763e+000 6.000000e+001
         vertex -2.828632e+000 9.994194e-001 6.000000e+001
      endloop
   endfacet
   facet normal 0.000000e+000 0.000000e+000 1.000000e+000
      outer loop
         vertex -2.828632e+000 9.994194e-001 6.000000e+001
         vertex -1.591856e+001 7.269763e+000 6.000000e+001
         vertex -1.679113e+001 4.930320e+000 6.000000e+001
      endloop
   endfacet
   facet normal 0.000000e+000 0.000000e+000 1.000000e+000
      outer loop
         vertex -2.828632e+000 9.994194e-001 6.000000e+001
         vertex -1.679113e+001 4.930320e+000 6.000000e+001
         vertex -2.956848e+000 5.070025e-001 6.000000e+001
      endloop
   endfacet
   facet normal 0.000000e+000 0.000000e+000 1.000000e+000
      outer loop
         vertex -2.956848e+000 5.070025e-001 6.000000e+001
         vertex -1.679113e+001 4.930320e+000 6.000000e+001
         vertex -1.732187e+001 2.490510e+000 6.000000e+001
      endloop
   endfacet
   facet normal 0.000000e+000 0.000000e+000 1.000000e+000
      outer loop
         vertex -2.956848e+000 5.070025e-001 6.000000e+001
         vertex -1.732187e+001 2.490510e+000 6.000000e+001
         vertex -3.000000e+000 0.000000e+000 6.000000e+001
      endloop
   endfacet
   facet normal 0.000000e+000 0.000000e+000 1.000000e+000
      outer loop
         vertex -3.000000e+000 0.000000e+000 6.000000e+001
         vertex -1.732187e+001 2.490510e+000 6.000000e+001
         vertex -1.750000e+001 0.000000e+000 6.000000e+001
      endloop
   endfacet
   facet normal 0.000000e+000 0.000000e+000 1.000000e+000
      outer loop
         vertex -3.000000e+000 0.000000e+000 6.000000e+001
         vertex -1.750000e+001 0.000000e+000 6.000000e+001
         vertex -2.956848e+000 -5.070025e-001 6.000000e+001
      endloop
   endfacet
   facet normal 0.000000e+000 0.000000e+000 1.000000e+000
      outer loop
         vertex -2.956848e+000 -5.070025e-001 6.000000e+001
         vertex -1.750000e+001 0.000000e+000 6.000000e+001
         vertex -1.732187e+001 -2.490510e+000 6.000000e+001
      endloop
   endfacet
   facet normal 0.000000e+000 0.000000e+000 1.000000e+000
      outer loop
         vertex -2.956848e+000 -5.070025e-001 6.000000e+001
         vertex -1.732187e+001 -2.490510e+000 6.000000e+001
         vertex -2.828632e+000 -9.994194e-001 6.000000e+001
      endloop
   endfacet
   facet normal 0.000000e+000 0.000000e+000 1.000000e+000
      outer loop
         vertex -2.828632e+000 -9.994194e-001 6.000000e+001
         vertex -1.732187e+001 -2.490510e+000 6.000000e+001
         vertex -1.679113e+001 -4.930320e+000 6.000000e+001
      endloop
   endfacet
   facet normal 0.000000e+000 0.000000e+000 1.000000e+000
      outer loop
         vertex -2.828632e+000 -9.994194e-001 6.000000e+001
         vertex -1.679113e+001 -4.930320e+000 6.000000e+001
         vertex -1.591856e+001 -7.269763e+000 6.000000e+001
      endloop
   endfacet
   facet normal 0.000000e+000 0.000000e+000 1.000000e+000
      outer loop
         vertex 2.165868e+000 2.075816e+000 6.000000e+001
         vertex 1.146006e+001 1.322562e+001 6.000000e+001
         vertex 1.783900e+000 2.411991e+000 6.000000e+001
      endloop
   endfacet
   facet normal 0.000000e+000 0.000000e+000 1.000000e+000
      outer loop
         vertex 1.783900e+000 2.411991e+000 6.000000e+001
         vertex 1.146006e+001 1.322562e+001 6.000000e+001
         vertex 9.461215e+000 1.472194e+001 6.000000e+001
      endloop
   endfacet
   facet normal 0.000000e+000 0.000000e+000 1.000000e+000
      outer loop
         vertex 1.783900e+000 2.411991e+000 6.000000e+001
         vertex 9.461215e+000 1.472194e+001 6.000000e+001
         vertex 1.350611e+000 2.678777e+000 6.000000e+001
      endloop
   endfacet
   facet normal 0.000000e+000 0.000000e+000 1.000000e+000
      outer loop
         vertex 1.350611e+000 2.678777e+000 6.000000e+001
         vertex 9.461215e+000 1.472194e+001 6.000000e+001
         vertex 7.269763e+000 1.591856e+001 6.000000e+001
      endloop
   endfacet
   facet normal 0.000000e+000 0.000000e+000 1.000000e+000
      outer loop
         vertex 1.350611e+000 2.678777e+000 6.000000e+001
         vertex 7.269763e+000 1.591856e+001 6.000000e+001
         vertex 8.784683e-001 2.868500e+000 6.000000e+001
      endloop
   endfacet
   facet normal 0.000000e+000 0.000000e+000 1.000000e+000
      outer loop
         vertex 8.784683e-001 2.868500e+000 6.000000e+001
         vertex 7.269763e+000 1.591856e+001 6.000000e+001
         vertex 4.930320e+000 1.679113e+001 6.000000e+001
      endloop
   endfacet
   facet normal 0.000000e+000 0.000000e+000 1.000000e+000
      outer loop
         vertex 8.784683e-001 2.868500e+000 6.000000e+001
         vertex 4.930320e+000 1.679113e+001 6.000000e+001
         vertex 3.810534e-001 2.975701e+000 6.000000e+001
      endloop
   endfacet
   facet normal 0.000000e+000 0.000000e+000 1.000000e+000
      outer loop
         vertex 3.810534e-001 2.975701e+000 6.000000e+001
         vertex 4.930320e+000 1.679113e+001 6.000000e+001
         vertex 2.490510e+000 1.732187e+001 6.000000e+001
      endloop
   endfacet
   facet normal 0.000000e+000 0.000000e+000 1.000000e+000
      outer loop
         vertex 3.810534e-001 2.975701e+000 6.000000e+001
         vertex 2.490510e+000 1.732187e+001 6.000000e+001
         vertex -1.273236e-001 2.997297e+000 6.000000e+001
      endloop
   endfacet
   facet normal 0.000000e+000 0.000000e+000 1.000000e+000
      outer loop
         vertex -1.273236e-001 2.997297e+000 6.000000e+001
         vertex 2.490510e+000 1.732187e+001 6.000000e+001
         vertex 2.814215e-015 1.750000e+001 6.000000e+001
      endloop
   endfacet
   facet normal 0.000000e+000 0.000000e+000 1.000000e+000
      outer loop
         vertex -1.273236e-001 2.997297e+000 6.000000e+001
         vertex 2.814215e-015 1.750000e+001 6.000000e+001
         vertex -6.320378e-001 2.932666e+000 6.000000e+001
      endloop
   endfacet
   facet normal 0.000000e+000 0.000000e+000 1.000000e+000
      outer loop
         vertex 7.269763e+000 -1.591856e+001 6.000000e+001
         vertex 9.461215e+000 -1.472194e+001 6.000000e+001
         vertex 1.783900e+000 -2.411991e+000 6.000000e+001
      endloop
   endfacet
   facet normal 0.000000e+000 0.000000e+000 1.000000e+000
      outer loop
         vertex 1.783900e+000 -2.411991e+000 6.000000e+001
         vertex 9.461215e+000 -1.472194e+001 6.000000e+001
         vertex 1.146006e+001 -1.322562e+001 6.000000e+001
      endloop
   endfacet
   facet normal 0.000000e+000 0.000000e+000 1.000000e+000
      outer loop
         vertex 1.783900e+000 -2.411991e+000 6.000000e+001
         vertex 1.146006e+001 -1.322562e+001 6.000000e+001
         vertex 2.165868e+000 -2.075816e+000 6.000000e+001
      endloop
   endfacet
   facet normal 0.000000e+000 0.000000e+000 1.000000e+000
      outer loop
         vertex 2.165868e+000 -2.075816e+000 6.000000e+001
         vertex 1.146006e+001 -1.322562e+001 6.000000e+001
         vertex 1.322562e+001 -1.146006e+001 6.000000e+001
      endloop
   endfacet
   facet normal 0.000000e+000 0.000000e+000 1.000000e+000
      outer loop
         vertex 2.165868e+000 -2.075816e+000 6.000000e+001
         vertex 1.322562e+001 -1.146006e+001 6.000000e+001
         vertex 2.485529e+000 -1.679924e+000 6.000000e+001
      endloop
   endfacet
   facet normal 0.000000e+000 0.000000e+000 1.000000e+000
      outer loop
         vertex 2.485529e+000 -1.679924e+000 6.000000e+001
         vertex 1.322562e+001 -1.146006e+001 6.000000e+001
         vertex 1.472194e+001 -9.461215e+000 6.000000e+001
      endloop
   endfacet
   facet normal 0.000000e+000 0.000000e+000 1.000000e+000
      outer loop
         vertex 2.485529e+000 -1.679924e+000 6.000000e+001
         vertex 1.472194e+001 -9.461215e+000 6.000000e+001
         vertex 2.733685e+000 -1.235704e+000 6.000000e+001
      endloop
   endfacet
   facet normal 0.000000e+000 0.000000e+000 1.000000e+000
      outer loop
         vertex 2.733685e+000 -1.235704e+000 6.000000e+001
         vertex 1.472194e+001 -9.461215e+000 6.000000e+001
         vertex 1.591856e+001 -7.269763e+000 6.000000e+001
      endloop
   endfacet
   facet normal 0.000000e+000 0.000000e+000 1.000000e+000
      outer loop
         vertex 2.733685e+000 -1.235704e+000 6.000000e+001
         vertex 1.591856e+001 -7.269763e+000 6.000000e+001
         vertex 2.903199e+000 -7.559342e-001 6.000000e+001
      endloop
   endfacet
   facet normal 0.000000e+000 0.000000e+000 1.000000e+000
      outer loop
         vertex 2.903199e+000 -7.559342e-001 6.000000e+001
         vertex 1.591856e+001 -7.269763e+000 6.000000e+001
         vertex 1.679113e+001 -4.930320e+000 6.000000e+001
      endloop
   endfacet
   facet normal 0.000000e+000 0.000000e+000 1.000000e+000
      outer loop
         vertex 2.903199e+000 -7.559342e-001 6.000000e+001
         vertex 1.679113e+001 -4.930320e+000 6.000000e+001
         vertex 2.989192e+000 -2.544178e-001 6.000000e+001
      endloop
   endfacet
   facet normal 0.000000e+000 0.000000e+000 1.000000e+000
      outer loop
         vertex 2.989192e+000 -2.544178e-001 6.000000e+001
         vertex 1.679113e+001 -4.930320e+000 6.000000e+001
         vertex 1.732187e+001 -2.490510e+000 6.000000e+001
      endloop
   endfacet
   facet normal 0.000000e+000 0.000000e+000 1.000000e+000
      outer loop
         vertex 2.989192e+000 -2.544178e-001 6.000000e+001
         vertex 1.732187e+001 -2.490510e+000 6.000000e+001
         vertex 3.000000e+000 1.102182e-015 6.000000e+001
      endloop
   endfacet
   facet normal 0.000000e+000 0.000000e+000 1.000000e+000
      outer loop
         vertex 3.000000e+000 1.102182e-015 6.000000e+001
         vertex 1.732187e+001 -2.490510e+000 6.000000e+001
         vertex 1.750000e+001 2.143132e-015 6.000000e+001
      endloop
   endfacet
   facet normal 0.000000e+000 0.000000e+000 1.000000e+000
      outer loop
         vertex 3.000000e+000 1.102182e-015 6.000000e+001
         vertex 1.750000e+001 2.143132e-015 6.000000e+001
         vertex 2.989192e+000 2.544178e-001 6.000000e+001
      endloop
   endfacet
   facet normal 0.000000e+000 0.000000e+000 1.000000e+000
      outer loop
         vertex 2.989192e+000 2.544178e-001 6.000000e+001
         vertex 1.750000e+001 2.143132e-015 6.000000e+001
         vertex 1.732187e+001 2.490510e+000 6.000000e+001
      endloop
   endfacet
   facet normal 0.000000e+000 0.000000e+000 1.000000e+000
      outer loop
         vertex 2.989192e+000 2.544178e-001 6.000000e+001
         vertex 1.732187e+001 2.490510e+000 6.000000e+001
         vertex 2.903199e+000 7.559342e-001 6.000000e+001
      endloop
   endfacet
   facet normal 0.000000e+000 0.000000e+000 1.000000e+000
      outer loop
         vertex 2.903199e+000 7.559342e-001 6.000000e+001
         vertex 1.732187e+001 2.490510e+000 6.000000e+001
         vertex 1.679113e+001 4.930320e+000 6.000000e+001
      endloop
   endfacet
   facet normal 0.000000e+000 0.000000e+000 1.000000e+000
      outer loop
         vertex 2.903199e+000 7.559342e-001 6.000000e+001
         vertex 1.679113e+001 4.930320e+000 6.000000e+001
         vertex 2.733685e+000 1.235704e+000 6.000000e+001
      endloop
   endfacet
   facet normal 0.000000e+000 0.000000e+000 1.000000e+000
      outer loop
         vertex 2.733685e+000 1.235704e+000 6.000000e+001
         vertex 1.679113e+001 4.930320e+000 6.000000e+001
         vertex 1.591856e+001 7.269763e+000 6.000000e+001
      endloop
   endfacet
   facet normal 0.000000e+000 0.000000e+000 1.000000e+000
      outer loop
         vertex 2.733685e+000 1.235704e+000 6.000000e+001
         vertex 1.591856e+001 7.269763e+000 6.000000e+001
         vertex 2.485529e+000 1.679924e+000 6.000000e+001
      endloop
   endfacet
   facet normal 0.000000e+000 0.000000e+000 1.000000e+000
      outer loop
         vertex 2.485529e+000 1.679924e+000 6.000000e+001
         vertex 1.591856e+001 7.269763e+000 6.000000e+001
         vertex 1.472194e+001 9.461215e+000 6.000000e+001
      endloop
   endfacet
   facet normal 0.000000e+000 0.000000e+000 1.000000e+000
      outer loop
         vertex 2.485529e+000 1.679924e+000 6.000000e+001
         vertex 1.472194e+001 9.461215e+000 6.000000e+001
         vertex 2.165868e+000 2.075816e+000 6.000000e+001
      endloop
   endfacet
   facet normal 0.000000e+000 0.000000e+000 1.000000e+000
      outer loop
         vertex 2.165868e+000 2.075816e+000 6.000000e+001
         vertex 1.472194e+001 9.461215e+000 6.000000e+001
         vertex 1.322562e+001 1.146006e+001 6.000000e+001
      endloop
   endfacet
   facet normal 0.000000e+000 0.000000e+000 1.000000e+000
      outer loop
         vertex 2.165868e+000 2.075816e+000 6.000000e+001
         vertex 1.322562e+001 1.146006e+001 6.000000e+001
         vertex 1.146006e+001 1.322562e+001 6.000000e+001
      endloop
   endfacet
   facet normal 0.000000e+000 0.000000e+000 1.000000e+000
      outer loop
         vertex 2.814215e-015 1.750000e+001 6.000000e+001
         vertex -2.490510e+000 1.732187e+001 6.000000e+001
         vertex -6.320378e-001 2.932666e+000 6.000000e+001
      endloop
   endfacet
   facet normal 0.000000e+000 0.000000e+000 1.000000e+000
      outer loop
         vertex -6.320378e-001 2.932666e+000 6.000000e+001
         vertex -2.490510e+000 1.732187e+001 6.000000e+001
         vertex -4.930320e+000 1.679113e+001 6.000000e+001
      endloop
   endfacet
   facet normal 0.000000e+000 0.000000e+000 1.000000e+000
      outer loop
         vertex -6.320378e-001 2.932666e+000 6.000000e+001
         vertex -4.930320e+000 1.679113e+001 6.000000e+001
         vertex -1.118569e+000 2.783667e+000 6.000000e+001
      endloop
   endfacet
   facet normal 0.000000e+000 0.000000e+000 1.000000e+000
      outer loop
         vertex -1.118569e+000 2.783667e+000 6.000000e+001
         vertex -4.930320e+000 1.679113e+001 6.000000e+001
         vertex -7.269763e+000 1.591856e+001 6.000000e+001
      endloop
   endfacet
   facet normal 0.000000e+000 0.000000e+000 1.000000e+000
      outer loop
         vertex -1.118569e+000 2.783667e+000 6.000000e+001
         vertex -7.269763e+000 1.591856e+001 6.000000e+001
         vertex -1.572922e+000 2.554587e+000 6.000000e+001
      endloop
   endfacet
   facet normal 0.000000e+000 0.000000e+000 1.000000e+000
      outer loop
         vertex -1.572922e+000 2.554587e+000 6.000000e+001
         vertex -7.269763e+000 1.591856e+001 6.000000e+001
         vertex -9.461215e+000 1.472194e+001 6.000000e+001
      endloop
   endfacet
   facet normal 0.000000e+000 0.000000e+000 1.000000e+000
      outer loop
         vertex -1.572922e+000 2.554587e+000 6.000000e+001
         vertex -9.461215e+000 1.472194e+001 6.000000e+001
         vertex -1.982024e+000 2.252017e+000 6.000000e+001
      endloop
   endfacet
   facet normal 0.000000e+000 0.000000e+000 1.000000e+000
      outer loop
         vertex -1.982024e+000 2.252017e+000 6.000000e+001
         vertex -9.461215e+000 1.472194e+001 6.000000e+001
         vertex -1.146006e+001 1.322562e+001 6.000000e+001
      endloop
   endfacet
   facet normal 0.000000e+000 0.000000e+000 1.000000e+000
      outer loop
         vertex -1.982024e+000 2.252017e+000 6.000000e+001
         vertex -1.146006e+001 1.322562e+001 6.000000e+001
         vertex -2.334107e+000 1.884660e+000 6.000000e+001
      endloop
   endfacet
   facet normal 0.000000e+000 0.000000e+000 1.000000e+000
      outer loop
         vertex -2.334107e+000 1.884660e+000 6.000000e+001
         vertex -1.146006e+001 1.322562e+001 6.000000e+001
         vertex -1.322562e+001 1.146006e+001 6.000000e+001
      endloop
   endfacet
   facet normal 0.000000e+000 0.000000e+000 1.000000e+000
      outer loop
         vertex -2.334107e+000 1.884660e+000 6.000000e+001
         vertex -1.322562e+001 1.146006e+001 6.000000e+001
         vertex -2.619042e+000 1.463085e+000 6.000000e+001
      endloop
   endfacet
   facet normal 0.000000e+000 0.000000e+000 1.000000e+000
      outer loop
         vertex -2.619042e+000 1.463085e+000 6.000000e+001
         vertex -1.322562e+001 1.146006e+001 6.000000e+001
         vertex -1.472194e+001 9.461215e+000 6.000000e+001
      endloop
   endfacet
   facet normal 0.000000e+000 0.000000e+000 1.000000e+000
      outer loop
         vertex -2.619042e+000 1.463085e+000 6.000000e+001
         vertex -1.472194e+001 9.461215e+000 6.000000e+001
         vertex -1.591856e+001 7.269763e+000 6.000000e+001
      endloop
   endfacet
   facet normal 0.000000e+000 0.000000e+000 -1.000000e+000
      outer loop
         vertex 1.750000e+001 6.429396e-015 0.000000e+000
         vertex 1.732187e+001 -2.490510e+000 0.000000e+000
         vertex 0.000000e+000 0.000000e+000 0.000000e+000
      endloop
   endfacet
   facet normal 0.000000e+000 0.000000e+000 -1.000000e+000
      outer loop
         vertex 1.750000e+001 6.429396e-015 0.000000e+000
         vertex 0.000000e+000 0.000000e+000 0.000000e+000
         vertex 1.732187e+001 2.490510e+000 0.000000e+000
      endloop
   endfacet
   facet normal 0.000000e+000 0.000000e+000 -1.000000e+000
      outer loop
         vertex 1.472194e+001 9.461215e+000 0.000000e+000
         vertex 1.591856e+001 7.269763e+000 0.000000e+000
         vertex 0.000000e+000 0.000000e+000 0.000000e+000
      endloop
   endfacet
   facet normal 0.000000e+000 0.000000e+000 -1.000000e+000
      outer loop
         vertex 0.000000e+000 0.000000e+000 0.000000e+000
         vertex 1.591856e+001 7.269763e+000 0.000000e+000
         vertex 1.679113e+001 4.930320e+000 0.000000e+000
      endloop
   endfacet
   facet normal 0.000000e+000 0.000000e+000 -1.000000e+000
      outer loop
         vertex 0.000000e+000 0.000000e+000 0.000000e+000
         vertex 1.679113e+001 4.930320e+000 0.000000e+000
         vertex 1.732187e+001 2.490510e+000 0.000000e+000
      endloop
   endfacet
   facet normal 0.000000e+000 0.000000e+000 -1.000000e+000
      outer loop
         vertex 9.461215e+000 1.472194e+001 0.000000e+000
         vertex 1.146006e+001 1.322562e+001 0.000000e+000
         vertex 0.000000e+000 0.000000e+000 0.000000e+000
      endloop
   endfacet
   facet normal 0.000000e+000 0.000000e+000 -1.000000e+000
      outer loop
         vertex 0.000000e+000 0.000000e+000 0.000000e+000
         vertex 1.146006e+001 1.322562e+001 0.000000e+000
         vertex 1.322562e+001 1.146006e+001 0.000000e+000
      endloop
   endfacet
   facet normal 0.000000e+000 0.000000e+000 -1.000000e+000
      outer loop
         vertex 0.000000e+000 0.000000e+000 0.000000e+000
         vertex 1.322562e+001 1.146006e+001 0.000000e+000
         vertex 1.472194e+001 9.461215e+000 0.000000e+000
      endloop
   endfacet
   facet normal 0.000000e+000 0.000000e+000 -1.000000e+000
      outer loop
         vertex 2.490510e+000 1.732187e+001 0.000000e+000
         vertex 4.930320e+000 1.679113e+001 0.000000e+000
         vertex 0.000000e+000 0.000000e+000 0.000000e+000
      endloop
   endfacet
   facet normal 0.000000e+000 0.000000e+000 -1.000000e+000
      outer loop
         vertex 0.000000e+000 0.000000e+000 0.000000e+000
         vertex 4.930320e+000 1.679113e+001 0.000000e+000
         vertex 7.269763e+000 1.591856e+001 0.000000e+000
      endloop
   endfacet
   facet normal 0.000000e+000 0.000000e+000 -1.000000e+000
      outer loop
         vertex 0.000000e+000 0.000000e+000 0.000000e+000
         vertex 7.269763e+000 1.591856e+001 0.000000e+000
         vertex 9.461215e+000 1.472194e+001 0.000000e+000
      endloop
   endfacet
   facet normal 0.000000e+000 0.000000e+000 -1.000000e+000
      outer loop
         vertex -4.930320e+000 1.679113e+001 0.000000e+000
         vertex -2.490510e+000 1.732187e+001 0.000000e+000
         vertex 0.000000e+000 0.000000e+000 0.000000e+000
      endloop
   endfacet
   facet normal 0.000000e+000 0.000000e+000 -1.000000e+000
      outer loop
         vertex 0.000000e+000 0.000000e+000 0.000000e+000
         vertex -2.490510e+000 1.732187e+001 0.000000e+000
         vertex 2.814215e-015 1.750000e+001 0.000000e+000
      endloop
   endfacet
   facet normal 0.000000e+000 0.000000e+000 -1.000000e+000
      outer loop
         vertex 0.000000e+000 0.000000e+000 0.000000e+000
         vertex 2.814215e-015 1.750000e+001 0.000000e+000
         vertex 2.490510e+000 1.732187e+001 0.000000e+000
      endloop
   endfacet
   facet normal 0.000000e+000 0.000000e+000 -1.000000e+000
      outer loop
         vertex -1.146006e+001 1.322562e+001 0.000000e+000
         vertex -9.461215e+000 1.472194e+001 0.000000e+000
         vertex 0.000000e+000 0.000000e+000 0.000000e+000
      endloop
   endfacet
   facet normal 0.000000e+000 0.000000e+000 -1.000000e+000
      outer loop
         vertex 0.000000e+000 0.000000e+000 0.000000e+000
         vertex -9.461215e+000 1.472194e+001 0.000000e+000
         vertex -7.269763e+000 1.591856e+001 0.000000e+000
      endloop
   endfacet
   facet normal 0.000000e+000 0.000000e+000 -1.000000e+000
      outer loop
         vertex 0.000000e+000 0.000000e+000 0.000000e+000
         vertex -7.269763e+000 1.591856e+001 0.000000e+000
         vertex -4.930320e+000 1.679113e+001 0.000000e+000
      endloop
   endfacet
   facet normal 0.000000e+000 0.000000e+000 -1.000000e+000
      outer loop
         vertex -1.591856e+001 7.269763e+000 0.000000e+000
         vertex -1.472194e+001 9.461215e+000 0.000000e+000
         vertex 0.000000e+000 0.000000e+000 0.000000e+000
      endloop
   endfacet
   facet normal 0.000000e+000 0.000000e+000 -1.000000e+000
      outer loop
         vertex 0.000000e+000 0.000000e+000 0.000000e+000
         vertex -1.472194e+001 9.461215e+000 0.000000e+000
         vertex -1.322562e+001 1.146006e+001 0.000000e+000
      endloop
   endfacet
   facet normal 0.000000e+000 0.000000e+000 -1.000000e+000
      outer loop
         vertex 0.000000e+000 0.000000e+000 0.000000e+000
         vertex -1.322562e+001 1.146006e+001 0.000000e+000
         vertex -1.146006e+001 1.322562e+001 0.000000e+000
      endloop
   endfacet
   facet normal 0.000000e+000 0.000000e+000 -1.000000e+000
      outer loop
         vertex -1.750000e+001 0.000000e+000 0.000000e+000
         vertex -1.732187e+001 2.490510e+000 0.000000e+000
         vertex 0.000000e+000 0.000000e+000 0.000000e+000
      endloop
   endfacet
   facet normal 0.000000e+000 0.000000e+000 -1.000000e+000
      outer loop
         vertex 0.000000e+000 0.000000e+000 0.000000e+000
         vertex -1.732187e+001 2.490510e+000 0.000000e+000
         vertex -1.679113e+001 4.930320e+000 0.000000e+000
      endloop
   endfacet
   facet normal 0.000000e+000 0.000000e+000 -1.000000e+000
      outer loop
         vertex 0.000000e+000 0.000000e+000 0.000000e+000
         vertex -1.679113e+001 4.930320e+000 0.000000e+000
         vertex -1.591856e+001 7.269763e+000 0.000000e+000
      endloop
   endfacet
   facet normal 0.000000e+000 0.000000e+000 -1.000000e+000
      outer loop
         vertex -1.591856e+001 -7.269763e+000 0.000000e+000
         vertex -1.679113e+001 -4.930320e+000 0.000000e+000
         vertex 0.000000e+000 0.000000e+000 0.000000e+000
      endloop
   endfacet
   facet normal 0.000000e+000 0.000000e+000 -1.000000e+000
      outer loop
         vertex 0.000000e+000 0.000000e+000 0.000000e+000
         vertex -1.679113e+001 -4.930320e+000 0.000000e+000
         vertex -1.732187e+001 -2.490510e+000 0.000000e+000
      endloop
   endfacet
   facet normal 0.000000e+000 0.000000e+000 -1.000000e+000
      outer loop
         vertex 0.000000e+000 0.000000e+000 0.000000e+000
         vertex -1.732187e+001 -2.490510e+000 0.000000e+000
         vertex -1.750000e+001 0.000000e+000 0.000000e+000
      endloop
   endfacet
   facet normal 0.000000e+000 0.000000e+000 -1.000000e+000
      outer loop
         vertex -1.146006e+001 -1.322562e+001 0.000000e+000
         vertex -1.322562e+001 -1.146006e+001 0.000000e+000
         vertex 0.000000e+000 0.000000e+000 0.000000e+000
      endloop
   endfacet
   facet normal 0.000000e+000 0.000000e+000 -1.000000e+000
      outer loop
         vertex 0.000000e+000 0.000000e+000 0.000000e+000
         vertex -1.322562e+001 -1.146006e+001 0.000000e+000
         vertex -1.472194e+001 -9.461215e+000 0.000000e+000
      endloop
   endfacet
   facet normal 0.000000e+000 0.000000e+000 -1.000000e+000
      outer loop
         vertex 0.000000e+000 0.000000e+000 0.000000e+000
         vertex -1.472194e+001 -9.461215e+000 0.000000e+000
         vertex -1.591856e+001 -7.269763e+000 0.000000e+000
      endloop
   endfacet
   facet normal 0.000000e+000 0.000000e+000 -1.000000e+000
      outer loop
         vertex -4.930320e+000 -1.679113e+001 0.000000e+000
         vertex -7.269763e+000 -1.591856e+001 0.000000e+000
         vertex 0.000000e+000 0.000000e+000 0.000000e+000
      endloop
   endfacet
   facet normal 0.000000e+000 0.000000e+000 -1.000000e+000
      outer loop
         vertex 0.000000e+000 0.000000e+000 0.000000e+000
         vertex -7.269763e+000 -1.591856e+001 0.000000e+000
         vertex -9.461215e+000 -1.472194e+001 0.000000e+000
      endloop
   endfacet
   facet normal 0.000000e+000 0.000000e+000 -1.000000e+000
      outer loop
         vertex 0.000000e+000 0.000000e+000 0.000000e+000
         vertex -9.461215e+000 -1.472194e+001 0.000000e+000
         vertex -1.146006e+001 -1.322562e+001 0.000000e+000
      endloop
   endfacet
   facet normal 0.000000e+000 0.000000e+000 -1.000000e+000
      outer loop
         vertex 2.490510e+000 -1.732187e+001 0.000000e+000
         vertex 3.214698e-015 -1.750000e+001 0.000000e+000
         vertex 0.000000e+000 0.000000e+000 0.000000e+000
      endloop
   endfacet
   facet normal 0.000000e+000 0.000000e+000 -1.000000e+000
      outer loop
         vertex 0.000000e+000 0.000000e+000 0.000000e+000
         vertex 3.214698e-015 -1.750000e+001 0.000000e+000
         vertex -2.490510e+000 -1.732187e+001 0.000000e+000
      endloop
   endfacet
   facet normal 0.000000e+000 0.000000e+000 -1.000000e+000
      outer loop
         vertex 0.000000e+000 0.000000e+000 0.000000e+000
         vertex -2.490510e+000 -1.732187e+001 0.000000e+000
         vertex -4.930320e+000 -1.679113e+001 0.000000e+000
      endloop
   endfacet
   facet normal 0.000000e+000 0.000000e+000 -1.000000e+000
      outer loop
         vertex 9.461215e+000 -1.472194e+001 0.000000e+000
         vertex 7.269763e+000 -1.591856e+001 0.000000e+000
         vertex 0.000000e+000 0.000000e+000 0.000000e+000
      endloop
   endfacet
   facet normal 0.000000e+000 0.000000e+000 -1.000000e+000
      outer loop
         vertex 0.000000e+000 0.000000e+000 0.000000e+000
         vertex 7.269763e+000 -1.591856e+001 0.000000e+000
         vertex 4.930320e+000 -1.679113e+001 0.000000e+000
      endloop
   endfacet
   facet normal 0.000000e+000 0.000000e+000 -1.000000e+000
      outer loop
         vertex 0.000000e+000 0.000000e+000 0.000000e+000
         vertex 4.930320e+000 -1.679113e+001 0.000000e+000
         vertex 2.490510e+000 -1.732187e+001 0.000000e+000
      endloop
   endfacet
   facet normal 0.000000e+000 0.000000e+000 -1.000000e+000
      outer loop
         vertex 1.472194e+001 -9.461215e+000 0.000000e+000
         vertex 1.322562e+001 -1.146006e+001 0.000000e+000
         vertex 0.000000e+000 0.000000e+000 0.000000e+000
      endloop
   endfacet
   facet normal 0.000000e+000 0.000000e+000 -1.000000e+000
      outer loop
         vertex 0.000000e+000 0.000000e+000 0.000000e+000
         vertex 1.322562e+001 -1.146006e+001 0.000000e+000
         vertex 1.146006e+001 -1.322562e+001 0.000000e+000
      endloop
   endfacet
   facet normal 0.000000e+000 0.000000e+000 -1.000000e+000
      outer loop
         vertex 0.000000e+000 0.000000e+000 0.000000e+000
         vertex 1.146006e+001 -1.322562e+001 0.000000e+000
         vertex 9.461215e+000 -1.472194e+001 0.000000e+000
      endloop
   endfacet
   facet normal 0.000000e+000 0.000000e+000 -1.000000e+000
      outer loop
         vertex 1.732187e+001 -2.490510e+000 0.000000e+000
         vertex 1.679113e+001 -4.930320e+000 0.000000e+000
         vertex 0.000000e+000 0.000000e+000 0.000000e+000
      endloop
   endfacet
   facet normal 0.000000e+000 0.000000e+000 -1.000000e+000
      outer loop
         vertex 0.000000e+000 0.000000e+000 0.000000e+000
         vertex 1.679113e+001 -4.930320e+000 0.000000e+000
         vertex 1.591856e+001 -7.269763e+000 0.000000e+000
      endloop
   endfacet
   facet normal 0.000000e+000 0.000000e+000 -1.000000e+000
      outer loop
         vertex 0.000000e+000 0.000000e+000 0.000000e+000
         vertex 1.591856e+001 -7.269763e+000 0.000000e+000
         vertex 1.472194e+001 -9.461215e+000 0.000000e+000
      endloop
   endfacet
   facet normal 9.995998e-001 2.829130e-002 0.000000e+000
      outer loop
         vertex 2.989192e+000 2.544178e-001 8.200000e+001
         vertex 3.000000e+000 1.102182e-015 8.200000e+001
         vertex 3.000000e+000 3.673940e-016 6.000000e+001
      endloop
   endfacet
   facet normal 9.995998e-001 -2.829130e-002 0.000000e+000
      outer loop
         vertex 3.000000e+000 3.673940e-016 6.000000e+001
         vertex 3.000000e+000 1.102182e-015 8.200000e+001
         vertex 2.989192e+000 -2.544178e-001 6.000000e+001
      endloop
   endfacet
   facet normal 9.983979e-001 -5.658260e-002 0.000000e+000
      outer loop
         vertex 3.000000e+000 1.102182e-015 8.200000e+001
         vertex 2.989192e+000 -2.544178e-001 8.200000e+001
         vertex 2.989192e+000 -2.544178e-001 6.000000e+001
      endloop
   endfacet
   facet normal 9.900123e-001 -1.409813e-001 0.000000e+000
      outer loop
         vertex 2.989192e+000 -2.544178e-001 6.000000e+001
         vertex 2.989192e+000 -2.544178e-001 8.200000e+001
         vertex 2.903199e+000 -7.559342e-001 8.200000e+001
      endloop
   endfacet
   facet normal 9.804267e-001 -1.968844e-001 0.000000e+000
      outer loop
         vertex 2.989192e+000 -2.544178e-001 6.000000e+001
         vertex 2.903199e+000 -7.559342e-001 8.200000e+001
         vertex 2.903199e+000 -7.559342e-001 6.000000e+001
      endloop
   endfacet
   facet normal 9.519458e-001 -3.062663e-001 0.000000e+000
      outer loop
         vertex 2.903199e+000 -7.559342e-001 6.000000e+001
         vertex 2.903199e+000 -7.559342e-001 8.200000e+001
         vertex 2.733685e+000 -1.235704e+000 8.200000e+001
      endloop
   endfacet
   facet normal 9.330506e-001 -3.597453e-001 0.000000e+000
      outer loop
         vertex 2.903199e+000 -7.559342e-001 6.000000e+001
         vertex 2.733685e+000 -1.235704e+000 8.200000e+001
         vertex 2.733685e+000 -1.235704e+000 6.000000e+001
      endloop
   endfacet
   facet normal 8.864937e-001 -4.627406e-001 0.000000e+000
      outer loop
         vertex 2.733685e+000 -1.235704e+000 6.000000e+001
         vertex 2.733685e+000 -1.235704e+000 8.200000e+001
         vertex 2.485529e+000 -1.679924e+000 8.200000e+001
      endloop
   endfacet
   facet normal 8.588322e-001 -5.122570e-001 0.000000e+000
      outer loop
         vertex 2.733685e+000 -1.235704e+000 6.000000e+001
         vertex 2.485529e+000 -1.679924e+000 8.200000e+001
         vertex 2.485529e+000 -1.679924e+000 6.000000e+001
      endloop
   endfacet
   facet normal 7.955388e-001 -6.059027e-001 0.000000e+000
      outer loop
         vertex 2.485529e+000 -1.679924e+000 6.000000e+001
         vertex 2.485529e+000 -1.679924e+000 8.200000e+001
         vertex 2.165868e+000 -2.075816e+000 8.200000e+001
      endloop
   endfacet
   facet normal 7.599069e-001 -6.500320e-001 0.000000e+000
      outer loop
         vertex 2.485529e+000 -1.679924e+000 6.000000e+001
         vertex 2.165868e+000 -2.075816e+000 8.200000e+001
         vertex 2.165868e+000 -2.075816e+000 6.000000e+001
      endloop
   endfacet
   facet normal 6.816977e-001 -7.316340e-001 0.000000e+000
      outer loop
         vertex 2.165868e+000 -2.075816e+000 6.000000e+001
         vertex 2.165868e+000 -2.075816e+000 8.200000e+001
         vertex 1.783900e+000 -2.411991e+000 8.200000e+001
      endloop
   endfacet
   facet normal 6.391203e-001 -7.691067e-001 0.000000e+000
      outer loop
         vertex 2.165868e+000 -2.075816e+000 6.000000e+001
         vertex 1.783900e+000 -2.411991e+000 8.200000e+001
         vertex 1.783900e+000 -2.411991e+000 6.000000e+001
      endloop
   endfacet
   facet normal 5.482453e-001 -8.363176e-001 0.000000e+000
      outer loop
         vertex 1.783900e+000 -2.411991e+000 6.000000e+001
         vertex 1.783900e+000 -2.411991e+000 8.200000e+001
         vertex 1.350611e+000 -2.678777e+000 8.200000e+001
      endloop
   endfacet
   facet normal 4.999475e-001 -8.660557e-001 0.000000e+000
      outer loop
         vertex 1.783900e+000 -2.411991e+000 6.000000e+001
         vertex 1.350611e+000 -2.678777e+000 8.200000e+001
         vertex 1.350611e+000 -2.678777e+000 6.000000e+001
      endloop
   endfacet
   facet normal 3.990209e-001 -9.169418e-001 0.000000e+000
      outer loop
         vertex 1.350611e+000 -2.678777e+000 6.000000e+001
         vertex 1.350611e+000 -2.678777e+000 8.200000e+001
         vertex 8.784683e-001 -2.868500e+000 8.200000e+001
      endloop
   endfacet
   facet normal 3.463921e-001 -9.380898e-001 0.000000e+000
      outer loop
         vertex 1.350611e+000 -2.678777e+000 6.000000e+001
         vertex 8.784683e-001 -2.868500e+000 8.200000e+001
         vertex 8.784683e-001 -2.868500e+000 6.000000e+001
      endloop
   endfacet
   facet normal 2.383175e-001 -9.711873e-001 0.000000e+000
      outer loop
         vertex 8.784683e-001 -2.868500e+000 6.000000e+001
         vertex 8.784683e-001 -2.868500e+000 8.200000e+001
         vertex 3.810534e-001 -2.975701e+000 8.200000e+001
      endloop
   endfacet
   facet normal 1.828716e-001 -9.831368e-001 0.000000e+000
      outer loop
         vertex 8.784683e-001 -2.868500e+000 6.000000e+001
         vertex 3.810534e-001 -2.975701e+000 8.200000e+001
         vertex 3.810534e-001 -2.975701e+000 6.000000e+001
      endloop
   endfacet
   facet normal 7.075802e-002 -9.974935e-001 0.000000e+000
      outer loop
         vertex 3.810534e-001 -2.975701e+000 6.000000e+001
         vertex 3.810534e-001 -2.975701e+000 8.200000e+001
         vertex -1.273236e-001 -2.997297e+000 8.200000e+001
      endloop
   endfacet
   facet normal 1.409025e-002 -9.999007e-001 0.000000e+000
      outer loop
         vertex 3.810534e-001 -2.975701e+000 6.000000e+001
         vertex -1.273236e-001 -2.997297e+000 8.200000e+001
         vertex -1.273236e-001 -2.997297e+000 6.000000e+001
      endloop
   endfacet
   facet normal -9.883699e-002 -9.951036e-001 0.000000e+000
      outer loop
         vertex -1.273236e-001 -2.997297e+000 6.000000e+001
         vertex -1.273236e-001 -2.997297e+000 8.200000e+001
         vertex -6.320378e-001 -2.932666e+000 8.200000e+001
      endloop
   endfacet
   facet normal -1.550965e-001 -9.878993e-001 0.000000e+000
      outer loop
         vertex -1.273236e-001 -2.997297e+000 6.000000e+001
         vertex -6.320378e-001 -2.932666e+000 8.200000e+001
         vertex -6.320378e-001 -2.932666e+000 6.000000e+001
      endloop
   endfacet
   facet normal -2.655886e-001 -9.640865e-001 0.000000e+000
      outer loop
         vertex -6.320378e-001 -2.932666e+000 6.000000e+001
         vertex -6.320378e-001 -2.932666e+000 8.200000e+001
         vertex -1.118569e+000 -2.783667e+000 8.200000e+001
      endloop
   endfacet
   facet normal -3.198213e-001 -9.474779e-001 0.000000e+000
      outer loop
         vertex -6.320378e-001 -2.932666e+000 6.000000e+001
         vertex -1.118569e+000 -2.783667e+000 8.200000e+001
         vertex -1.118569e+000 -2.783667e+000 6.000000e+001
      endloop
   endfacet
   facet normal -4.246998e-001 -9.053342e-001 0.000000e+000
      outer loop
         vertex -1.118569e+000 -2.783667e+000 6.000000e+001
         vertex -1.118569e+000 -2.783667e+000 8.200000e+001
         vertex -1.572922e+000 -2.554587e+000 8.200000e+001
      endloop
   endfacet
   facet normal -4.753455e-001 -8.797992e-001 0.000000e+000
      outer loop
         vertex -1.118569e+000 -2.783667e+000 6.000000e+001
         vertex -1.572922e+000 -2.554587e+000 8.200000e+001
         vertex -1.572922e+000 -2.554587e+000 6.000000e+001
      endloop
   endfacet
   facet normal -5.715931e-001 -8.205372e-001 0.000000e+000
      outer loop
         vertex -1.572922e+000 -2.554587e+000 6.000000e+001
         vertex -1.572922e+000 -2.554587e+000 8.200000e+001
         vertex -1.982024e+000 -2.252017e+000 8.200000e+001
      endloop
   endfacet
   facet normal -6.171949e-001 -7.868103e-001 0.000000e+000
      outer loop
         vertex -1.572922e+000 -2.554587e+000 6.000000e+001
         vertex -1.982024e+000 -2.252017e+000 8.200000e+001
         vertex -1.982024e+000 -2.252017e+000 6.000000e+001
      endloop
   endfacet
   facet normal -7.020428e-001 -7.121348e-001 0.000000e+000
      outer loop
         vertex -1.982024e+000 -2.252017e+000 6.000000e+001
         vertex -1.982024e+000 -2.252017e+000 8.200000e+001
         vertex -2.334107e+000 -1.884660e+000 8.200000e+001
      endloop
   endfacet
   facet normal -7.412888e-001 -6.711863e-001 0.000000e+000
      outer loop
         vertex -1.982024e+000 -2.252017e+000 6.000000e+001
         vertex -2.334107e+000 -1.884660e+000 8.200000e+001
         vertex -2.334107e+000 -1.884660e+000 6.000000e+001
      endloop
   endfacet
   facet normal -8.122959e-001 -5.832456e-001 0.000000e+000
      outer loop
         vertex -2.334107e+000 -1.884660e+000 6.000000e+001
         vertex -2.334107e+000 -1.884660e+000 8.200000e+001
         vertex -2.619042e+000 -1.463085e+000 8.200000e+001
      endloop
   endfacet
   facet normal -8.440570e-001 -5.362535e-001 0.000000e+000
      outer loop
         vertex -2.334107e+000 -1.884660e+000 6.000000e+001
         vertex -2.619042e+000 -1.463085e+000 8.200000e+001
         vertex -2.619042e+000 -1.463085e+000 6.000000e+001
      endloop
   endfacet
   facet normal -8.991807e-001 -4.375775e-001 0.000000e+000
      outer loop
         vertex -2.619042e+000 -1.463085e+000 6.000000e+001
         vertex -2.619042e+000 -1.463085e+000 8.200000e+001
         vertex -2.828632e+000 -9.994194e-001 8.200000e+001
      endloop
   endfacet
   facet normal -9.225433e-001 -3.858936e-001 0.000000e+000
      outer loop
         vertex -2.619042e+000 -1.463085e+000 6.000000e+001
         vertex -2.828632e+000 -9.994194e-001 8.200000e+001
         vertex -2.828632e+000 -9.994194e-001 6.000000e+001
      endloop
   endfacet
   facet normal -9.601977e-001 -2.793211e-001 0.000000e+000
      outer loop
         vertex -2.828632e+000 -9.994194e-001 6.000000e+001
         vertex -2.828632e+000 -9.994194e-001 8.200000e+001
         vertex -2.956848e+000 -5.070025e-001 8.200000e+001
      endloop
   endfacet
   facet normal -9.744897e-001 -2.244324e-001 0.000000e+000
      outer loop
         vertex -2.828632e+000 -9.994194e-001 6.000000e+001
         vertex -2.956848e+000 -5.070025e-001 8.200000e+001
         vertex -2.956848e+000 -5.070025e-001 6.000000e+001
      endloop
   endfacet
   facet normal -9.935917e-001 -1.130291e-001 0.000000e+000
      outer loop
         vertex -2.956848e+000 -5.070025e-001 6.000000e+001
         vertex -2.956848e+000 -5.070025e-001 8.200000e+001
         vertex -3.000000e+000 0.000000e+000 8.200000e+001
      endloop
   endfacet
   facet normal -9.984018e-001 -5.651454e-002 0.000000e+000
      outer loop
         vertex -2.956848e+000 -5.070025e-001 6.000000e+001
         vertex -3.000000e+000 0.000000e+000 8.200000e+001
         vertex -3.000000e+000 0.000000e+000 6.000000e+001
      endloop
   endfacet
   facet normal -9.984018e-001 5.651454e-002 0.000000e+000
      outer loop
         vertex -3.000000e+000 0.000000e+000 6.000000e+001
         vertex -3.000000e+000 0.000000e+000 8.200000e+001
         vertex -2.956848e+000 5.070025e-001 8.200000e+001
      endloop
   endfacet
   facet normal -9.935917e-001 1.130291e-001 0.000000e+000
      outer loop
         vertex -3.000000e+000 0.000000e+000 6.000000e+001
         vertex -2.956848e+000 5.070025e-001 8.200000e+001
         vertex -2.956848e+000 5.070025e-001 6.000000e+001
      endloop
   endfacet
   facet normal -9.744897e-001 2.244324e-001 0.000000e+000
      outer loop
         vertex -2.956848e+000 5.070025e-001 6.000000e+001
         vertex -2.956848e+000 5.070025e-001 8.200000e+001
         vertex -2.828632e+000 9.994194e-001 8.200000e+001
      endloop
   endfacet
   facet normal -9.601977e-001 2.793211e-001 0.000000e+000
      outer loop
         vertex -2.956848e+000 5.070025e-001 6.000000e+001
         vertex -2.828632e+000 9.994194e-001 8.200000e+001
         vertex -2.828632e+000 9.994194e-001 6.000000e+001
      endloop
   endfacet
   facet normal -9.225433e-001 3.858936e-001 0.000000e+000
      outer loop
         vertex -2.828632e+000 9.994194e-001 6.000000e+001
         vertex -2.828632e+000 9.994194e-001 8.200000e+001
         vertex -2.619042e+000 1.463085e+000 8.200000e+001
      endloop
   endfacet
   facet normal -8.991807e-001 4.375775e-001 0.000000e+000
      outer loop
         vertex -2.828632e+000 9.994194e-001 6.000000e+001
         vertex -2.619042e+000 1.463085e+000 8.200000e+001
         vertex -2.619042e+000 1.463085e+000 6.000000e+001
      endloop
   endfacet
   facet normal -8.440570e-001 5.362535e-001 0.000000e+000
      outer loop
         vertex -2.619042e+000 1.463085e+000 6.000000e+001
         vertex -2.619042e+000 1.463085e+000 8.200000e+001
         vertex -2.334107e+000 1.884660e+000 8.200000e+001
      endloop
   endfacet
   facet normal -8.122959e-001 5.832456e-001 0.000000e+000
      outer loop
         vertex -2.619042e+000 1.463085e+000 6.000000e+001
         vertex -2.334107e+000 1.884660e+000 8.200000e+001
         vertex -2.334107e+000 1.884660e+000 6.000000e+001
      endloop
   endfacet
   facet normal -7.412888e-001 6.711863e-001 0.000000e+000
      outer loop
         vertex -2.334107e+000 1.884660e+000 6.000000e+001
         vertex -2.334107e+000 1.884660e+000 8.200000e+001
         vertex -1.982024e+000 2.252017e+000 8.200000e+001
      endloop
   endfacet
   facet normal -7.020428e-001 7.121348e-001 0.000000e+000
      outer loop
         vertex -2.334107e+000 1.884660e+000 6.000000e+001
         vertex -1.982024e+000 2.252017e+000 8.200000e+001
         vertex -1.982024e+000 2.252017e+000 6.000000e+001
      endloop
   endfacet
   facet normal -6.171949e-001 7.868103e-001 0.000000e+000
      outer loop
         vertex -1.982024e+000 2.252017e+000 6.000000e+001
         vertex -1.982024e+000 2.252017e+000 8.200000e+001
         vertex -1.572922e+000 2.554587e+000 8.200000e+001
      endloop
   endfacet
   facet normal -5.715931e-001 8.205372e-001 0.000000e+000
      outer loop
         vertex -1.982024e+000 2.252017e+000 6.000000e+001
         vertex -1.572922e+000 2.554587e+000 8.200000e+001
         vertex -1.572922e+000 2.554587e+000 6.000000e+001
      endloop
   endfacet
   facet normal -4.753455e-001 8.797992e-001 0.000000e+000
      outer loop
         vertex -1.572922e+000 2.554587e+000 6.000000e+001
         vertex -1.572922e+000 2.554587e+000 8.200000e+001
         vertex -1.118569e+000 2.783667e+000 8.200000e+001
      endloop
   endfacet
   facet normal -4.246998e-001 9.053342e-001 0.000000e+000
      outer loop
         vertex -1.572922e+000 2.554587e+000 6.000000e+001
         vertex -1.118569e+000 2.783667e+000 8.200000e+001
         vertex -1.118569e+000 2.783667e+000 6.000000e+001
      endloop
   endfacet
   facet normal -3.198213e-001 9.474779e-001 0.000000e+000
      outer loop
         vertex -1.118569e+000 2.783667e+000 6.000000e+001
         vertex -1.118569e+000 2.783667e+000 8.200000e+001
         vertex -6.320378e-001 2.932666e+000 8.200000e+001
      endloop
   endfacet
   facet normal -2.655886e-001 9.640865e-001 0.000000e+000
      outer loop
         vertex -1.118569e+000 2.783667e+000 6.000000e+001
         vertex -6.320378e-001 2.932666e+000 8.200000e+001
         vertex -6.320378e-001 2.932666e+000 6.000000e+001
      endloop
   endfacet
   facet normal -1.550965e-001 9.878993e-001 0.000000e+000
      outer loop
         vertex -6.320378e-001 2.932666e+000 6.000000e+001
         vertex -6.320378e-001 2.932666e+000 8.200000e+001
         vertex -1.273236e-001 2.997297e+000 8.200000e+001
      endloop
   endfacet
   facet normal -9.883699e-002 9.951036e-001 0.000000e+000
      outer loop
         vertex -6.320378e-001 2.932666e+000 6.000000e+001
         vertex -1.273236e-001 2.997297e+000 8.200000e+001
         vertex -1.273236e-001 2.997297e+000 6.000000e+001
      endloop
   endfacet
   facet normal 1.409025e-002 9.999007e-001 0.000000e+000
      outer loop
         vertex -1.273236e-001 2.997297e+000 6.000000e+001
         vertex -1.273236e-001 2.997297e+000 8.200000e+001
         vertex 3.810534e-001 2.975701e+000 8.200000e+001
      endloop
   endfacet
   facet normal 7.075802e-002 9.974935e-001 0.000000e+000
      outer loop
         vertex -1.273236e-001 2.997297e+000 6.000000e+001
         vertex 3.810534e-001 2.975701e+000 8.200000e+001
         vertex 3.810534e-001 2.975701e+000 6.000000e+001
      endloop
   endfacet
   facet normal 1.828716e-001 9.831368e-001 0.000000e+000
      outer loop
         vertex 3.810534e-001 2.975701e+000 6.000000e+001
         vertex 3.810534e-001 2.975701e+000 8.200000e+001
         vertex 8.784683e-001 2.868500e+000 8.200000e+001
      endloop
   endfacet
   facet normal 2.383175e-001 9.711873e-001 0.000000e+000
      outer loop
         vertex 3.810534e-001 2.975701e+000 6.000000e+001
         vertex 8.784683e-001 2.868500e+000 8.200000e+001
         vertex 8.784683e-001 2.868500e+000 6.000000e+001
      endloop
   endfacet
   facet normal 3.463921e-001 9.380898e-001 0.000000e+000
      outer loop
         vertex 8.784683e-001 2.868500e+000 6.000000e+001
         vertex 8.784683e-001 2.868500e+000 8.200000e+001
         vertex 1.350611e+000 2.678777e+000 8.200000e+001
      endloop
   endfacet
   facet normal 3.990209e-001 9.169418e-001 0.000000e+000
      outer loop
         vertex 8.784683e-001 2.868500e+000 6.000000e+001
         vertex 1.350611e+000 2.678777e+000 8.200000e+001
         vertex 1.350611e+000 2.678777e+000 6.000000e+001
      endloop
   endfacet
   facet normal 4.999475e-001 8.660557e-001 0.000000e+000
      outer loop
         vertex 1.350611e+000 2.678777e+000 6.000000e+001
         vertex 1.350611e+000 2.678777e+000 8.200000e+001
         vertex 1.783900e+000 2.411991e+000 8.200000e+001
      endloop
   endfacet
   facet normal 5.482453e-001 8.363176e-001 0.000000e+000
      outer loop
         vertex 1.350611e+000 2.678777e+000 6.000000e+001
         vertex 1.783900e+000 2.411991e+000 8.200000e+001
         vertex 1.783900e+000 2.411991e+000 6.000000e+001
      endloop
   endfacet
   facet normal 6.391203e-001 7.691067e-001 0.000000e+000
      outer loop
         vertex 1.783900e+000 2.411991e+000 6.000000e+001
         vertex 1.783900e+000 2.411991e+000 8.200000e+001
         vertex 2.165868e+000 2.075816e+000 8.200000e+001
      endloop
   endfacet
   facet normal 6.816977e-001 7.316340e-001 0.000000e+000
      outer loop
         vertex 1.783900e+000 2.411991e+000 6.000000e+001
         vertex 2.165868e+000 2.075816e+000 8.200000e+001
         vertex 2.165868e+000 2.075816e+000 6.000000e+001
      endloop
   endfacet
   facet normal 7.599069e-001 6.500320e-001 0.000000e+000
      outer loop
         vertex 2.165868e+000 2.075816e+000 6.000000e+001
         vertex 2.165868e+000 2.075816e+000 8.200000e+001
         vertex 2.485529e+000 1.679924e+000 8.200000e+001
      endloop
   endfacet
   facet normal 7.955388e-001 6.059027e-001 0.000000e+000
      outer loop
         vertex 2.165868e+000 2.075816e+000 6.000000e+001
         vertex 2.485529e+000 1.679924e+000 8.200000e+001
         vertex 2.485529e+000 1.679924e+000 6.000000e+001
      endloop
   endfacet
   facet normal 8.588322e-001 5.122570e-001 0.000000e+000
      outer loop
         vertex 2.485529e+000 1.679924e+000 6.000000e+001
         vertex 2.485529e+000 1.679924e+000 8.200000e+001
         vertex 2.733685e+000 1.235704e+000 8.200000e+001
      endloop
   endfacet
   facet normal 8.864937e-001 4.627406e-001 0.000000e+000
      outer loop
         vertex 2.485529e+000 1.679924e+000 6.000000e+001
         vertex 2.733685e+000 1.235704e+000 8.200000e+001
         vertex 2.733685e+000 1.235704e+000 6.000000e+001
      endloop
   endfacet
   facet normal 9.330506e-001 3.597453e-001 0.000000e+000
      outer loop
         vertex 2.733685e+000 1.235704e+000 6.000000e+001
         vertex 2.733685e+000 1.235704e+000 8.200000e+001
         vertex 2.903199e+000 7.559342e-001 8.200000e+001
      endloop
   endfacet
   facet normal 9.519458e-001 3.062663e-001 0.000000e+000
      outer loop
         vertex 2.733685e+000 1.235704e+000 6.000000e+001
         vertex 2.903199e+000 7.559342e-001 8.200000e+001
         vertex 2.903199e+000 7.559342e-001 6.000000e+001
      endloop
   endfacet
   facet normal 9.804267e-001 1.968844e-001 0.000000e+000
      outer loop
         vertex 2.903199e+000 7.559342e-001 6.000000e+001
         vertex 2.903199e+000 7.559342e-001 8.200000e+001
         vertex 2.989192e+000 2.544178e-001 8.200000e+001
      endloop
   endfacet
   facet normal 9.900123e-001 1.409813e-001 0.000000e+000
      outer loop
         vertex 2.903199e+000 7.559342e-001 6.000000e+001
         vertex 2.989192e+000 2.544178e-001 8.200000e+001
         vertex 2.989192e+000 2.544178e-001 6.000000e+001
      endloop
   endfacet
   facet normal 9.983979e-001 5.658260e-002 0.000000e+000
      outer loop
         vertex 2.989192e+000 2.544178e-001 6.000000e+001
         vertex 2.989192e+000 2.544178e-001 8.200000e+001
         vertex 3.000000e+000 3.673940e-016 6.000000e+001
      endloop
   endfacet
   facet normal 0.000000e+000 0.000000e+000 1.000000e+000
      outer loop
         vertex 3.000000e+000 3.673940e-016 8.200000e+001
         vertex 2.989192e+000 2.544178e-001 8.200000e+001
         vertex 0.000000e+000 0.000000e+000 8.200000e+001
      endloop
   endfacet
   facet normal 0.000000e+000 0.000000e+000 1.000000e+000
      outer loop
         vertex 3.000000e+000 3.673940e-016 8.200000e+001
         vertex 0.000000e+000 0.000000e+000 8.200000e+001
         vertex 2.989192e+000 -2.544178e-001 8.200000e+001
      endloop
   endfacet
   facet normal 0.000000e+000 0.000000e+000 1.000000e+000
      outer loop
         vertex 2.485529e+000 -1.679924e+000 8.200000e+001
         vertex 2.733685e+000 -1.235704e+000 8.200000e+001
         vertex 0.000000e+000 0.000000e+000 8.200000e+001
      endloop
   endfacet
   facet normal 0.000000e+000 0.000000e+000 1.000000e+000
      outer loop
         vertex 0.000000e+000 0.000000e+000 8.200000e+001
         vertex 2.733685e+000 -1.235704e+000 8.200000e+001
         vertex 2.903199e+000 -7.559342e-001 8.200000e+001
      endloop
   endfacet
   facet normal 0.000000e+000 0.000000e+000 1.000000e+000
      outer loop
         vertex 0.000000e+000 0.000000e+000 8.200000e+001
         vertex 2.903199e+000 -7.559342e-001 8.200000e+001
         vertex 2.989192e+000 -2.544178e-001 8.200000e+001
      endloop
   endfacet
   facet normal 0.000000e+000 0.000000e+000 1.000000e+000
      outer loop
         vertex 1.350611e+000 -2.678777e+000 8.200000e+001
         vertex 1.783900e+000 -2.411991e+000 8.200000e+001
         vertex 0.000000e+000 0.000000e+000 8.200000e+001
      endloop
   endfacet
   facet normal 0.000000e+000 0.000000e+000 1.000000e+000
      outer loop
         vertex 0.000000e+000 0.000000e+000 8.200000e+001
         vertex 1.783900e+000 -2.411991e+000 8.200000e+001
         vertex 2.165868e+000 -2.075816e+000 8.200000e+001
      endloop
   endfacet
   facet normal 0.000000e+000 0.000000e+000 1.000000e+000
      outer loop
         vertex 0.000000e+000 0.000000e+000 8.200000e+001
         vertex 2.165868e+000 -2.075816e+000 8.200000e+001
         vertex 2.485529e+000 -1.679924e+000 8.200000e+001
      endloop
   endfacet
   facet normal 0.000000e+000 0.000000e+000 1.000000e+000
      outer loop
         vertex -1.273236e-001 -2.997297e+000 8.200000e+001
         vertex 3.810534e-001 -2.975701e+000 8.200000e+001
         vertex 0.000000e+000 0.000000e+000 8.200000e+001
      endloop
   endfacet
   facet normal 0.000000e+000 0.000000e+000 1.000000e+000
      outer loop
         vertex 0.000000e+000 0.000000e+000 8.200000e+001
         vertex 3.810534e-001 -2.975701e+000 8.200000e+001
         vertex 8.784683e-001 -2.868500e+000 8.200000e+001
      endloop
   endfacet
   facet normal 0.000000e+000 0.000000e+000 1.000000e+000
      outer loop
         vertex 0.000000e+000 0.000000e+000 8.200000e+001
         vertex 8.784683e-001 -2.868500e+000 8.200000e+001
         vertex 1.350611e+000 -2.678777e+000 8.200000e+001
      endloop
   endfacet
   facet normal 0.000000e+000 0.000000e+000 1.000000e+000
      outer loop
         vertex -1.572922e+000 -2.554587e+000 8.200000e+001
         vertex -1.118569e+000 -2.783667e+000 8.200000e+001
         vertex 0.000000e+000 0.000000e+000 8.200000e+001
      endloop
   endfacet
   facet normal 0.000000e+000 0.000000e+000 1.000000e+000
      outer loop
         vertex 0.000000e+000 0.000000e+000 8.200000e+001
         vertex -1.118569e+000 -2.783667e+000 8.200000e+001
         vertex -6.320378e-001 -2.932666e+000 8.200000e+001
      endloop
   endfacet
   facet normal 0.000000e+000 0.000000e+000 1.000000e+000
      outer loop
         vertex 0.000000e+000 0.000000e+000 8.200000e+001
         vertex -6.320378e-001 -2.932666e+000 8.200000e+001
         vertex -1.273236e-001 -2.997297e+000 8.200000e+001
      endloop
   endfacet
   facet normal 0.000000e+000 0.000000e+000 1.000000e+000
      outer loop
         vertex -2.619042e+000 -1.463085e+000 8.200000e+001
         vertex -2.334107e+000 -1.884660e+000 8.200000e+001
         vertex 0.000000e+000 0.000000e+000 8.200000e+001
      endloop
   endfacet
   facet normal 0.000000e+000 0.000000e+000 1.000000e+000
      outer loop
         vertex 0.000000e+000 0.000000e+000 8.200000e+001
         vertex -2.334107e+000 -1.884660e+000 8.200000e+001
         vertex -1.982024e+000 -2.252017e+000 8.200000e+001
      endloop
   endfacet
   facet normal 0.000000e+000 0.000000e+000 1.000000e+000
      outer loop
         vertex 0.000000e+000 0.000000e+000 8.200000e+001
         vertex -1.982024e+000 -2.252017e+000 8.200000e+001
         vertex -1.572922e+000 -2.554587e+000 8.200000e+001
      endloop
   endfacet
   facet normal 0.000000e+000 0.000000e+000 1.000000e+000
      outer loop
         vertex -3.000000e+000 0.000000e+000 8.200000e+001
         vertex -2.956848e+000 -5.070025e-001 8.200000e+001
         vertex 0.000000e+000 0.000000e+000 8.200000e+001
      endloop
   endfacet
   facet normal 0.000000e+000 0.000000e+000 1.000000e+000
      outer loop
         vertex 0.000000e+000 0.000000e+000 8.200000e+001
         vertex -2.956848e+000 -5.070025e-001 8.200000e+001
         vertex -2.828632e+000 -9.994194e-001 8.200000e+001
      endloop
   endfacet
   facet normal 0.000000e+000 0.000000e+000 1.000000e+000
      outer loop
         vertex 0.000000e+000 0.000000e+000 8.200000e+001
         vertex -2.828632e+000 -9.994194e-001 8.200000e+001
         vertex -2.619042e+000 -1.463085e+000 8.200000e+001
      endloop
   endfacet
   facet normal 0.000000e+000 0.000000e+000 1.000000e+000
      outer loop
         vertex -2.619042e+000 1.463085e+000 8.200000e+001
         vertex -2.828632e+000 9.994194e-001 8.200000e+001
         vertex 0.000000e+000 0.000000e+000 8.200000e+001
      endloop
   endfacet
   facet normal 0.000000e+000 0.000000e+000 1.000000e+000
      outer loop
         vertex 0.000000e+000 0.000000e+000 8.200000e+001
         vertex -2.828632e+000 9.994194e-001 8.200000e+001
         vertex -2.956848e+000 5.070025e-001 8.200000e+001
      endloop
   endfacet
   facet normal 0.000000e+000 0.000000e+000 1.000000e+000
      outer loop
         vertex 0.000000e+000 0.000000e+000 8.200000e+001
         vertex -2.956848e+000 5.070025e-001 8.200000e+001
         vertex -3.000000e+000 0.000000e+000 8.200000e+001
      endloop
   endfacet
   facet normal 0.000000e+000 0.000000e+000 1.000000e+000
      outer loop
         vertex -1.572922e+000 2.554587e+000 8.200000e+001
         vertex -1.982024e+000 2.252017e+000 8.200000e+001
         vertex 0.000000e+000 0.000000e+000 8.200000e+001
      endloop
   endfacet
   facet normal 0.000000e+000 0.000000e+000 1.000000e+000
      outer loop
         vertex 0.000000e+000 0.000000e+000 8.200000e+001
         vertex -1.982024e+000 2.252017e+000 8.200000e+001
         vertex -2.334107e+000 1.884660e+000 8.200000e+001
      endloop
   endfacet
   facet normal 0.000000e+000 0.000000e+000 1.000000e+000
      outer loop
         vertex 0.000000e+000 0.000000e+000 8.200000e+001
         vertex -2.334107e+000 1.884660e+000 8.200000e+001
         vertex -2.619042e+000 1.463085e+000 8.200000e+001
      endloop
   endfacet
   facet normal 0.000000e+000 0.000000e+000 1.000000e+000
      outer loop
         vertex -1.273236e-001 2.997297e+000 8.200000e+001
         vertex -6.320378e-001 2.932666e+000 8.200000e+001
         vertex 0.000000e+000 0.000000e+000 8.200000e+001
      endloop
   endfacet
   facet normal 0.000000e+000 0.000000e+000 1.000000e+000
      outer loop
         vertex 0.000000e+000 0.000000e+000 8.200000e+001
         vertex -6.320378e-001 2.932666e+000 8.200000e+001
         vertex -1.118569e+000 2.783667e+000 8.200000e+001
      endloop
   endfacet
   facet normal 0.000000e+000 0.000000e+000 1.000000e+000
      outer loop
         vertex 0.000000e+000 0.000000e+000 8.200000e+001
         vertex -1.118569e+000 2.783667e+000 8.200000e+001
         vertex -1.572922e+000 2.554587e+000 8.200000e+001
      endloop
   endfacet
   facet normal 0.000000e+000 0.000000e+000 1.000000e+000
      outer loop
         vertex 1.350611e+000 2.678777e+000 8.200000e+001
         vertex 8.784683e-001 2.868500e+000 8.200000e+001
         vertex 0.000000e+000 0.000000e+000 8.200000e+001
      endloop
   endfacet
   facet normal 0.000000e+000 0.000000e+000 1.000000e+000
      outer loop
         vertex 0.000000e+000 0.000000e+000 8.200000e+001
         vertex 8.784683e-001 2.868500e+000 8.200000e+001
         vertex 3.810534e-001 2.975701e+000 8.200000e+001
      endloop
   endfacet
   facet normal 0.000000e+000 0.000000e+000 1.000000e+000
      outer loop
         vertex 0.000000e+000 0.000000e+000 8.200000e+001
         vertex 3.810534e-001 2.975701e+000 8.200000e+001
         vertex -1.273236e-001 2.997297e+000 8.200000e+001
      endloop
   endfacet
   facet normal 0.000000e+000 0.000000e+000 1.000000e+000
      outer loop
         vertex 2.485529e+000 1.679924e+000 8.200000e+001
         vertex 2.165868e+000 2.075816e+000 8.200000e+001
         vertex 0.000000e+000 0.000000e+000 8.200000e+001
      endloop
   endfacet
   facet normal 0.000000e+000 0.000000e+000 1.000000e+000
      outer loop
         vertex 0.000000e+000 0.000000e+000 8.200000e+001
         vertex 2.165868e+000 2.075816e+000 8.200000e+001
         vertex 1.783900e+000 2.411991e+000 8.200000e+001
      endloop
   endfacet
   facet normal 0.000000e+000 0.000000e+000 1.000000e+000
      outer loop
         vertex 0.000000e+000 0.000000e+000 8.200000e+001
         vertex 1.783900e+000 2.411991e+000 8.200000e+001
         vertex 1.350611e+000 2.678777e+000 8.200000e+001
      endloop
   endfacet
   facet normal 0.000000e+000 0.000000e+000 1.000000e+000
      outer loop
         vertex 2.989192e+000 2.544178e-001 8.200000e+001
         vertex 2.903199e+000 7.559342e-001 8.200000e+001
         vertex 0.000000e+000 0.000000e+000 8.200000e+001
      endloop
   endfacet
   facet normal 0.000000e+000 0.000000e+000 1.000000e+000
      outer loop
         vertex 0.000000e+000 0.000000e+000 8.200000e+001
         vertex 2.903199e+000 7.559342e-001 8.200000e+001
         vertex 2.733685e+000 1.235704e+000 8.200000e+001
      endloop
   endfacet
   facet normal 0.000000e+000 0.000000e+000 1.000000e+000
      outer loop
         vertex 0.000000e+000 0.000000e+000 8.200000e+001
         vertex 2.733685e+000 1.235704e+000 8.200000e+001
         vertex 2.485529e+000 1.679924e+000 8.200000e+001
      endloop
   endfacet
endsolid