solid pcb-standoffs_Default_sldprt
   facet normal 0.000000e+000 2.434621e-002 -9.997036e-001
      outer loop
         vertex 1.200000e+001 1.824883e-001 -2.493331e+000
         vertex 1.200000e+001 9.184852e-016 -2.500000e+000
         vertex 0.000000e+000 3.061617e-016 -2.500000e+000
      endloop
   endfacet
   facet normal 0.000000e+000 -2.434621e-002 -9.997036e-001
      outer loop
         vertex 0.000000e+000 3.061617e-016 -2.500000e+000
         vertex 1.200000e+001 9.184852e-016 -2.500000e+000
         vertex 0.000000e+000 -1.824883e-001 -2.493331e+000
      endloop
   endfacet
   facet normal 0.000000e+000 -4.869241e-002 -9.988138e-001
      outer loop
         vertex 1.200000e+001 9.184852e-016 -2.500000e+000
         vertex 1.200000e+001 -1.824883e-001 -2.493331e+000
         vertex 0.000000e+000 -1.824883e-001 -2.493331e+000
      endloop
   endfacet
   facet normal 0.000000e+000 -1.214282e-001 -9.926003e-001
      outer loop
         vertex 0.000000e+000 -1.824883e-001 -2.493331e+000
         vertex 1.200000e+001 -1.824883e-001 -2.493331e+000
         vertex 1.200000e+001 -5.435755e-001 -2.440190e+000
      endloop
   endfacet
   facet normal 0.000000e+000 -1.696875e-001 -9.854979e-001
      outer loop
         vertex 0.000000e+000 -1.824883e-001 -2.493331e+000
         vertex 1.200000e+001 -5.435755e-001 -2.440190e+000
         vertex 0.000000e+000 -5.435755e-001 -2.440190e+000
      endloop
   endfacet
   facet normal 0.000000e+000 -2.646579e-001 -9.643424e-001
      outer loop
         vertex 0.000000e+000 -5.435755e-001 -2.440190e+000
         vertex 1.200000e+001 -5.435755e-001 -2.440190e+000
         vertex 1.200000e+001 -8.930773e-001 -2.335040e+000
      endloop
   endfacet
   facet normal 0.000000e+000 -3.113689e-001 -9.502891e-001
      outer loop
         vertex 0.000000e+000 -5.435755e-001 -2.440190e+000
         vertex 1.200000e+001 -8.930773e-001 -2.335040e+000
         vertex 0.000000e+000 -8.930773e-001 -2.335040e+000
      endloop
   endfacet
   facet normal 0.000000e+000 -4.022469e-001 -9.155312e-001
      outer loop
         vertex 0.000000e+000 -8.930773e-001 -2.335040e+000
         vertex 1.200000e+001 -8.930773e-001 -2.335040e+000
         vertex 1.200000e+001 -1.223545e+000 -2.180124e+000
      endloop
   endfacet
   facet normal 0.000000e+000 -4.464140e-001 -8.948265e-001
      outer loop
         vertex 0.000000e+000 -8.930773e-001 -2.335040e+000
         vertex 1.200000e+001 -1.223545e+000 -2.180124e+000
         vertex 0.000000e+000 -1.223545e+000 -2.180124e+000
      endloop
   endfacet
   facet normal 0.000000e+000 -5.312628e-001 -8.472071e-001
      outer loop
         vertex 0.000000e+000 -1.223545e+000 -2.180124e+000
         vertex 1.200000e+001 -1.223545e+000 -2.180124e+000
         vertex 1.200000e+001 -1.527934e+000 -1.978741e+000
      endloop
   endfacet
   facet normal 0.000000e+000 -5.719445e-001 -8.202924e-001
      outer loop
         vertex 0.000000e+000 -1.223545e+000 -2.180124e+000
         vertex 1.200000e+001 -1.527934e+000 -1.978741e+000
         vertex 0.000000e+000 -1.527934e+000 -1.978741e+000
      endloop
   endfacet
   facet normal 0.000000e+000 -6.489556e-001 -7.608263e-001
      outer loop
         vertex 0.000000e+000 -1.527934e+000 -1.978741e+000
         vertex 1.200000e+001 -1.527934e+000 -1.978741e+000
         vertex 1.200000e+001 -1.799759e+000 -1.735186e+000
      endloop
   endfacet
   facet normal 0.000000e+000 -6.852850e-001 -7.282749e-001
      outer loop
         vertex 0.000000e+000 -1.527934e+000 -1.978741e+000
         vertex 1.200000e+001 -1.799759e+000 -1.735186e+000
         vertex 0.000000e+000 -1.799759e+000 -1.735186e+000
      endloop
   endfacet
   facet normal 0.000000e+000 -7.528171e-001 -6.582298e-001
      outer loop
         vertex 0.000000e+000 -1.799759e+000 -1.735186e+000
         vertex 1.200000e+001 -1.799759e+000 -1.735186e+000
         vertex 1.200000e+001 -2.033224e+000 -1.454647e+000
      endloop
   endfacet
   facet normal 0.000000e+000 -7.840198e-001 -6.207358e-001
      outer loop
         vertex 0.000000e+000 -1.799759e+000 -1.735186e+000
         vertex 1.200000e+001 -2.033224e+000 -1.454647e+000
         vertex 0.000000e+000 -2.033224e+000 -1.454647e+000
      endloop
   endfacet
   facet normal 0.000000e+000 -8.406336e-001 -5.416042e-001
      outer loop
         vertex 0.000000e+000 -2.033224e+000 -1.454647e+000
         vertex 1.200000e+001 -2.033224e+000 -1.454647e+000
         vertex 1.200000e+001 -2.223356e+000 -1.143106e+000
      endloop
   endfacet
   facet normal 0.000000e+000 -8.660447e-001 -4.999666e-001
      outer loop
         vertex 0.000000e+000 -2.033224e+000 -1.454647e+000
         vertex 1.200000e+001 -2.223356e+000 -1.143106e+000
         vertex 0.000000e+000 -2.223356e+000 -1.143106e+000
      endloop
   endfacet
   facet normal 0.000000e+000 -9.105335e-001 -4.134352e-001
      outer loop
         vertex 0.000000e+000 -2.223356e+000 -1.143106e+000
         vertex 1.200000e+001 -2.223356e+000 -1.143106e+000
         vertex 1.200000e+001 -2.366100e+000 -8.072010e-001
      endloop
   endfacet
   facet normal 0.000000e+000 -9.296113e-001 -3.685415e-001
      outer loop
         vertex 0.000000e+000 -2.223356e+000 -1.143106e+000
         vertex 1.200000e+001 -2.366100e+000 -8.072010e-001
         vertex 0.000000e+000 -2.366100e+000 -8.072010e-001
      endloop
   endfacet
   facet normal 0.000000e+000 -9.610270e-001 -2.764547e-001
      outer loop
         vertex 0.000000e+000 -2.366100e+000 -8.072010e-001
         vertex 1.200000e+001 -2.366100e+000 -8.072010e-001
         vertex 1.200000e+001 -2.458414e+000 -4.540921e-001
      endloop
   endfacet
   facet normal 0.000000e+000 -9.733649e-001 -2.292616e-001
      outer loop
         vertex 0.000000e+000 -2.366100e+000 -8.072010e-001
         vertex 1.200000e+001 -2.458414e+000 -4.540921e-001
         vertex 0.000000e+000 -2.458414e+000 -4.540921e-001
      endloop
   endfacet
   facet normal 0.000000e+000 -9.910377e-001 -1.335820e-001
      outer loop
         vertex 0.000000e+000 -2.458414e+000 -4.540921e-001
         vertex 1.200000e+001 -2.458414e+000 -4.540921e-001
         vertex 1.200000e+001 -2.498332e+000 -9.130506e-002
      endloop
   endfacet
   facet normal 0.000000e+000 -9.963728e-001 -8.509539e-002
      outer loop
         vertex 0.000000e+000 -2.458414e+000 -4.540921e-001
         vertex 1.200000e+001 -2.498332e+000 -9.130506e-002
         vertex 0.000000e+000 -2.498332e+000 -9.130506e-002
      endloop
   endfacet
   facet normal 0.000000e+000 -9.999263e-001 1.213783e-002
      outer loop
         vertex 0.000000e+000 -2.498332e+000 -9.130506e-002
         vertex 1.200000e+001 -2.498332e+000 -9.130506e-002
         vertex 1.200000e+001 -2.485002e+000 2.734280e-001
      endloop
   endfacet
   facet normal 0.000000e+000 -9.981448e-001 6.088449e-002
      outer loop
         vertex 0.000000e+000 -2.498332e+000 -9.130506e-002
         vertex 1.200000e+001 -2.485002e+000 2.734280e-001
         vertex 0.000000e+000 -2.485002e+000 2.734280e-001
      endloop
   endfacet
   facet normal 0.000000e+000 -9.875032e-001 1.575989e-001
      outer loop
         vertex 0.000000e+000 -2.485002e+000 2.734280e-001
         vertex 1.200000e+001 -2.485002e+000 2.734280e-001
         vertex 1.200000e+001 -2.418709e+000 6.323335e-001
      endloop
   endfacet
   facet normal 0.000000e+000 -9.786431e-001 2.055667e-001
      outer loop
         vertex 0.000000e+000 -2.485002e+000 2.734280e-001
         vertex 1.200000e+001 -2.418709e+000 6.323335e-001
         vertex 0.000000e+000 -2.418709e+000 6.323335e-001
      endloop
   endfacet
   facet normal 0.000000e+000 -9.540332e-001 2.997011e-001
      outer loop
         vertex 0.000000e+000 -2.418709e+000 6.323335e-001
         vertex 1.200000e+001 -2.418709e+000 6.323335e-001
         vertex 1.200000e+001 -2.300865e+000 9.777618e-001
      endloop
   endfacet
   facet normal 0.000000e+000 -9.382833e-001 3.458676e-001
      outer loop
         vertex 0.000000e+000 -2.418709e+000 6.323335e-001
         vertex 1.200000e+001 -2.300865e+000 9.777618e-001
         vertex 0.000000e+000 -2.300865e+000 9.777618e-001
      endloop
   endfacet
   facet normal 0.000000e+000 -9.002295e-001 4.354156e-001
      outer loop
         vertex 0.000000e+000 -2.300865e+000 9.777618e-001
         vertex 1.200000e+001 -2.300865e+000 9.777618e-001
         vertex 1.200000e+001 -2.133983e+000 1.302351e+000
      endloop
   endfacet
   facet normal 0.000000e+000 -8.779256e-001 4.787970e-001
      outer loop
         vertex 0.000000e+000 -2.300865e+000 9.777618e-001
         vertex 1.200000e+001 -2.133983e+000 1.302351e+000
         vertex 0.000000e+000 -2.133983e+000 1.302351e+000
      endloop
   endfacet
   facet normal 0.000000e+000 -8.272392e-001 5.618500e-001
      outer loop
         vertex 0.000000e+000 -2.133983e+000 1.302351e+000
         vertex 1.200000e+001 -2.133983e+000 1.302351e+000
         vertex 1.200000e+001 -1.921618e+000 1.599183e+000
      endloop
   endfacet
   facet normal 0.000000e+000 -7.988565e-001 6.015216e-001
      outer loop
         vertex 0.000000e+000 -2.133983e+000 1.302351e+000
         vertex 1.200000e+001 -1.921618e+000 1.599183e+000
         vertex 0.000000e+000 -1.921618e+000 1.599183e+000
      endloop
   endfacet
   facet normal 0.000000e+000 -7.366175e-001 6.763095e-001
      outer loop
         vertex 0.000000e+000 -1.921618e+000 1.599183e+000
         vertex 1.200000e+001 -1.921618e+000 1.599183e+000
         vertex 1.200000e+001 -1.668297e+000 1.861930e+000
      endloop
   endfacet
   facet normal 0.000000e+000 -7.027611e-001 7.114259e-001
      outer loop
         vertex 0.000000e+000 -1.921618e+000 1.599183e+000
         vertex 1.200000e+001 -1.668297e+000 1.861930e+000
         vertex 0.000000e+000 -1.668297e+000 1.861930e+000
      endloop
   endfacet
   facet normal 0.000000e+000 -6.302962e-001 7.763547e-001
      outer loop
         vertex 0.000000e+000 -1.668297e+000 1.861930e+000
         vertex 1.200000e+001 -1.668297e+000 1.861930e+000
         vertex 1.200000e+001 -1.379419e+000 2.084995e+000
      endloop
   endfacet
   facet normal 0.000000e+000 -5.916877e-001 8.061673e-001
      outer loop
         vertex 0.000000e+000 -1.668297e+000 1.861930e+000
         vertex 1.200000e+001 -1.379419e+000 2.084995e+000
         vertex 0.000000e+000 -1.379419e+000 2.084995e+000
      endloop
   endfacet
   facet normal 0.000000e+000 -5.105412e-001 8.598533e-001
      outer loop
         vertex 0.000000e+000 -1.379419e+000 2.084995e+000
         vertex 1.200000e+001 -1.379419e+000 2.084995e+000
         vertex 1.200000e+001 -1.061142e+000 2.263620e+000
      endloop
   endfacet
   facet normal 0.000000e+000 -4.680033e-001 8.837267e-001
      outer loop
         vertex 0.000000e+000 -1.379419e+000 2.084995e+000
         vertex 1.200000e+001 -1.061142e+000 2.263620e+000
         vertex 0.000000e+000 -1.061142e+000 2.263620e+000
      endloop
   endfacet
   facet normal 0.000000e+000 -3.799049e-001 9.250256e-001
      outer loop
         vertex 0.000000e+000 -1.061142e+000 2.263620e+000
         vertex 1.200000e+001 -1.061142e+000 2.263620e+000
         vertex 1.200000e+001 -7.202477e-001 2.394001e+000
      endloop
   endfacet
   facet normal 0.000000e+000 -3.343444e-001 9.424510e-001
      outer loop
         vertex 0.000000e+000 -1.061142e+000 2.263620e+000
         vertex 1.200000e+001 -7.202477e-001 2.394001e+000
         vertex 0.000000e+000 -7.202477e-001 2.394001e+000
      endloop
   endfacet
   facet normal 0.000000e+000 -2.411716e-001 9.704825e-001
      outer loop
         vertex 0.000000e+000 -7.202477e-001 2.394001e+000
         vertex 1.200000e+001 -7.202477e-001 2.394001e+000
         vertex 1.200000e+001 -3.640029e-001 2.473359e+000
      endloop
   endfacet
   facet normal 0.000000e+000 -1.935594e-001 9.810886e-001
      outer loop
         vertex 0.000000e+000 -7.202477e-001 2.394001e+000
         vertex 1.200000e+001 -3.640029e-001 2.473359e+000
         vertex 0.000000e+000 -3.640029e-001 2.473359e+000
      endloop
   endfacet
   facet normal 0.000000e+000 -9.729814e-002 9.952553e-001
      outer loop
         vertex 0.000000e+000 -3.640029e-001 2.473359e+000
         vertex 1.200000e+001 -3.640029e-001 2.473359e+000
         vertex 1.200000e+001 0.000000e+000 2.500000e+000
      endloop
   endfacet
   facet normal 0.000000e+000 -4.864907e-002 9.988160e-001
      outer loop
         vertex 0.000000e+000 -3.640029e-001 2.473359e+000
         vertex 1.200000e+001 0.000000e+000 2.500000e+000
         vertex 0.000000e+000 0.000000e+000 2.500000e+000
      endloop
   endfacet
   facet normal 0.000000e+000 4.864907e-002 9.988160e-001
      outer loop
         vertex 0.000000e+000 0.000000e+000 2.500000e+000
         vertex 1.200000e+001 0.000000e+000 2.500000e+000
         vertex 1.200000e+001 3.640029e-001 2.473359e+000
      endloop
   endfacet
   facet normal 0.000000e+000 9.729814e-002 9.952553e-001
      outer loop
         vertex 0.000000e+000 0.000000e+000 2.500000e+000
         vertex 1.200000e+001 3.640029e-001 2.473359e+000
         vertex 0.000000e+000 3.640029e-001 2.473359e+000
      endloop
   endfacet
   facet normal 0.000000e+000 1.935594e-001 9.810886e-001
      outer loop
         vertex 0.000000e+000 3.640029e-001 2.473359e+000
         vertex 1.200000e+001 3.640029e-001 2.473359e+000
         vertex 1.200000e+001 7.202477e-001 2.394001e+000
      endloop
   endfacet
   facet normal 0.000000e+000 2.411716e-001 9.704825e-001
      outer loop
         vertex 0.000000e+000 3.640029e-001 2.473359e+000
         vertex 1.200000e+001 7.202477e-001 2.394001e+000
         vertex 0.000000e+000 7.202477e-001 2.394001e+000
      endloop
   endfacet
   facet normal 0.000000e+000 3.343444e-001 9.424510e-001
      outer loop
         vertex 0.000000e+000 7.202477e-001 2.394001e+000
         vertex 1.200000e+001 7.202477e-001 2.394001e+000
         vertex 1.200000e+001 1.061142e+000 2.263620e+000
      endloop
   endfacet
   facet normal 0.000000e+000 3.799049e-001 9.250256e-001
      outer loop
         vertex 0.000000e+000 7.202477e-001 2.394001e+000
         vertex 1.200000e+001 1.061142e+000 2.263620e+000
         vertex 0.000000e+000 1.061142e+000 2.263620e+000
      endloop
   endfacet
   facet normal 0.000000e+000 4.680033e-001 8.837267e-001
      outer loop
         vertex 0.000000e+000 1.061142e+000 2.263620e+000
         vertex 1.200000e+001 1.061142e+000 2.263620e+000
         vertex 1.200000e+001 1.379419e+000 2.084995e+000
      endloop
   endfacet
   facet normal 0.000000e+000 5.105412e-001 8.598533e-001
      outer loop
         vertex 0.000000e+000 1.061142e+000 2.263620e+000
         vertex 1.200000e+001 1.379419e+000 2.084995e+000
         vertex 0.000000e+000 1.379419e+000 2.084995e+000
      endloop
   endfacet
   facet normal 0.000000e+000 5.916876e-001 8.061674e-001
      outer loop
         vertex 0.000000e+000 1.379419e+000 2.084995e+000
         vertex 1.200000e+001 1.379419e+000 2.084995e+000
         vertex 1.200000e+001 1.668297e+000 1.861930e+000
      endloop
   endfacet
   facet normal 0.000000e+000 6.302962e-001 7.763547e-001
      outer loop
         vertex 0.000000e+000 1.379419e+000 2.084995e+000
         vertex 1.200000e+001 1.668297e+000 1.861930e+000
         vertex 0.000000e+000 1.668297e+000 1.861930e+000
      endloop
   endfacet
   facet normal 0.000000e+000 7.027611e-001 7.114259e-001
      outer loop
         vertex 0.000000e+000 1.668297e+000 1.861930e+000
         vertex 1.200000e+001 1.668297e+000 1.861930e+000
         vertex 1.200000e+001 1.921618e+000 1.599183e+000
      endloop
   endfacet
   facet normal 0.000000e+000 7.366175e-001 6.763095e-001
      outer loop
         vertex 0.000000e+000 1.668297e+000 1.861930e+000
         vertex 1.200000e+001 1.921618e+000 1.599183e+000
         vertex 0.000000e+000 1.921618e+000 1.599183e+000
      endloop
   endfacet
   facet normal 0.000000e+000 7.988565e-001 6.015216e-001
      outer loop
         vertex 0.000000e+000 1.921618e+000 1.599183e+000
         vertex 1.200000e+001 1.921618e+000 1.599183e+000
         vertex 1.200000e+001 2.133983e+000 1.302351e+000
      endloop
   endfacet
   facet normal 0.000000e+000 8.272392e-001 5.618500e-001
      outer loop
         vertex 0.000000e+000 1.921618e+000 1.599183e+000
         vertex 1.200000e+001 2.133983e+000 1.302351e+000
         vertex 0.000000e+000 2.133983e+000 1.302351e+000
      endloop
   endfacet
   facet normal 0.000000e+000 8.779256e-001 4.787970e-001
      outer loop
         vertex 0.000000e+000 2.133983e+000 1.302351e+000
         vertex 1.200000e+001 2.133983e+000 1.302351e+000
         vertex 1.200000e+001 2.300865e+000 9.777618e-001
      endloop
   endfacet
   facet normal 0.000000e+000 9.002295e-001 4.354156e-001
      outer loop
         vertex 0.000000e+000 2.133983e+000 1.302351e+000
         vertex 1.200000e+001 2.300865e+000 9.777618e-001
         vertex 0.000000e+000 2.300865e+000 9.777618e-001
      endloop
   endfacet
   facet normal 0.000000e+000 9.382833e-001 3.458677e-001
      outer loop
         vertex 0.000000e+000 2.300865e+000 9.777618e-001
         vertex 1.200000e+001 2.300865e+000 9.777618e-001
         vertex 1.200000e+001 2.418709e+000 6.323335e-001
      endloop
   endfacet
   facet normal 0.000000e+000 9.540332e-001 2.997011e-001
      outer loop
         vertex 0.000000e+000 2.300865e+000 9.777618e-001
         vertex 1.200000e+001 2.418709e+000 6.323335e-001
         vertex 0.000000e+000 2.418709e+000 6.323335e-001
      endloop
   endfacet
   facet normal 0.000000e+000 9.786431e-001 2.055667e-001
      outer loop
         vertex 0.000000e+000 2.418709e+000 6.323335e-001
         vertex 1.200000e+001 2.418709e+000 6.323335e-001
         vertex 1.200000e+001 2.485002e+000 2.734280e-001
      endloop
   endfacet
   facet normal 0.000000e+000 9.875032e-001 1.575989e-001
      outer loop
         vertex 0.000000e+000 2.418709e+000 6.323335e-001
         vertex 1.200000e+001 2.485002e+000 2.734280e-001
         vertex 0.000000e+000 2.485002e+000 2.734280e-001
      endloop
   endfacet
   facet normal 0.000000e+000 9.981448e-001 6.088449e-002
      outer loop
         vertex 0.000000e+000 2.485002e+000 2.734280e-001
         vertex 1.200000e+001 2.485002e+000 2.734280e-001
         vertex 1.200000e+001 2.498332e+000 -9.130506e-002
      endloop
   endfacet
   facet normal 0.000000e+000 9.999263e-001 1.213783e-002
      outer loop
         vertex 0.000000e+000 2.485002e+000 2.734280e-001
         vertex 1.200000e+001 2.498332e+000 -9.130506e-002
         vertex 0.000000e+000 2.498332e+000 -9.130506e-002
      endloop
   endfacet
   facet normal 0.000000e+000 9.963728e-001 -8.509539e-002
      outer loop
         vertex 0.000000e+000 2.498332e+000 -9.130506e-002
         vertex 1.200000e+001 2.498332e+000 -9.130506e-002
         vertex 1.200000e+001 2.458414e+000 -4.540921e-001
      endloop
   endfacet
   facet normal 0.000000e+000 9.910377e-001 -1.335820e-001
      outer loop
         vertex 0.000000e+000 2.498332e+000 -9.130506e-002
         vertex 1.200000e+001 2.458414e+000 -4.540921e-001
         vertex 0.000000e+000 2.458414e+000 -4.540921e-001
      endloop
   endfacet
   facet normal 0.000000e+000 9.733648e-001 -2.292616e-001
      outer loop
         vertex 0.000000e+000 2.458414e+000 -4.540921e-001
         vertex 1.200000e+001 2.458414e+000 -4.540921e-001
         vertex 1.200000e+001 2.366100e+000 -8.072010e-001
      endloop
   endfacet
   facet normal 0.000000e+000 9.610270e-001 -2.764547e-001
      outer loop
         vertex 0.000000e+000 2.458414e+000 -4.540921e-001
         vertex 1.200000e+001 2.366100e+000 -8.072010e-001
         vertex 0.000000e+000 2.366100e+000 -8.072010e-001
      endloop
   endfacet
   facet normal 0.000000e+000 9.296113e-001 -3.685415e-001
      outer loop
         vertex 0.000000e+000 2.366100e+000 -8.072010e-001
         vertex 1.200000e+001 2.366100e+000 -8.072010e-001
         vertex 1.200000e+001 2.223356e+000 -1.143106e+000
      endloop
   endfacet
   facet normal 0.000000e+000 9.105335e-001 -4.134352e-001
      outer loop
         vertex 0.000000e+000 2.366100e+000 -8.072010e-001
         vertex 1.200000e+001 2.223356e+000 -1.143106e+000
         vertex 0.000000e+000 2.223356e+000 -1.143106e+000
      endloop
   endfacet
   facet normal 0.000000e+000 8.660447e-001 -4.999666e-001
      outer loop
         vertex 0.000000e+000 2.223356e+000 -1.143106e+000
         vertex 1.200000e+001 2.223356e+000 -1.143106e+000
         vertex 1.200000e+001 2.033224e+000 -1.454647e+000
      endloop
   endfacet
   facet normal 0.000000e+000 8.406336e-001 -5.416042e-001
      outer loop
         vertex 0.000000e+000 2.223356e+000 -1.143106e+000
         vertex 1.200000e+001 2.033224e+000 -1.454647e+000
         vertex 0.000000e+000 2.033224e+000 -1.454647e+000
      endloop
   endfacet
   facet normal 0.000000e+000 7.840198e-001 -6.207358e-001
      outer loop
         vertex 0.000000e+000 2.033224e+000 -1.454647e+000
         vertex 1.200000e+001 2.033224e+000 -1.454647e+000
         vertex 1.200000e+001 1.799759e+000 -1.735186e+000
      endloop
   endfacet
   facet normal 0.000000e+000 7.528171e-001 -6.582298e-001
      outer loop
         vertex 0.000000e+000 2.033224e+000 -1.454647e+000
         vertex 1.200000e+001 1.799759e+000 -1.735186e+000
         vertex 0.000000e+000 1.799759e+000 -1.735186e+000
      endloop
   endfacet
   facet normal 0.000000e+000 6.852850e-001 -7.282751e-001
      outer loop
         vertex 0.000000e+000 1.799759e+000 -1.735186e+000
         vertex 1.200000e+001 1.799759e+000 -1.735186e+000
         vertex 1.200000e+001 1.527934e+000 -1.978741e+000
      endloop
   endfacet
   facet normal 0.000000e+000 6.489556e-001 -7.608263e-001
      outer loop
         vertex 0.000000e+000 1.799759e+000 -1.735186e+000
         vertex 1.200000e+001 1.527934e+000 -1.978741e+000
         vertex 0.000000e+000 1.527934e+000 -1.978741e+000
      endloop
   endfacet
   facet normal 0.000000e+000 5.719445e-001 -8.202924e-001
      outer loop
         vertex 0.000000e+000 1.527934e+000 -1.978741e+000
         vertex 1.200000e+001 1.527934e+000 -1.978741e+000
         vertex 1.200000e+001 1.223545e+000 -2.180124e+000
      endloop
   endfacet
   facet normal 0.000000e+000 5.312628e-001 -8.472071e-001
      outer loop
         vertex 0.000000e+000 1.527934e+000 -1.978741e+000
         vertex 1.200000e+001 1.223545e+000 -2.180124e+000
         vertex 0.000000e+000 1.223545e+000 -2.180124e+000
      endloop
   endfacet
   facet normal 0.000000e+000 4.464140e-001 -8.948265e-001
      outer loop
         vertex 0.000000e+000 1.223545e+000 -2.180124e+000
         vertex 1.200000e+001 1.223545e+000 -2.180124e+000
         vertex 1.200000e+001 8.930773e-001 -2.335040e+000
      endloop
   endfacet
   facet normal 0.000000e+000 4.022469e-001 -9.155312e-001
      outer loop
         vertex 0.000000e+000 1.223545e+000 -2.180124e+000
         vertex 1.200000e+001 8.930773e-001 -2.335040e+000
         vertex 0.000000e+000 8.930773e-001 -2.335040e+000
      endloop
   endfacet
   facet normal 0.000000e+000 3.113689e-001 -9.502891e-001
      outer loop
         vertex 0.000000e+000 8.930773e-001 -2.335040e+000
         vertex 1.200000e+001 8.930773e-001 -2.335040e+000
         vertex 1.200000e+001 5.435755e-001 -2.440190e+000
      endloop
   endfacet
   facet normal 0.000000e+000 2.646579e-001 -9.643424e-001
      outer loop
         vertex 0.000000e+000 8.930773e-001 -2.335040e+000
         vertex 1.200000e+001 5.435755e-001 -2.440190e+000
         vertex 0.000000e+000 5.435755e-001 -2.440190e+000
      endloop
   endfacet
   facet normal 0.000000e+000 1.696875e-001 -9.854979e-001
      outer loop
         vertex 0.000000e+000 5.435755e-001 -2.440190e+000
         vertex 1.200000e+001 5.435755e-001 -2.440190e+000
         vertex 1.200000e+001 1.824883e-001 -2.493331e+000
      endloop
   endfacet
   facet normal 0.000000e+000 1.214282e-001 -9.926003e-001
      outer loop
         vertex 0.000000e+000 5.435755e-001 -2.440190e+000
         vertex 1.200000e+001 1.824883e-001 -2.493331e+000
         vertex 0.000000e+000 1.824883e-001 -2.493331e+000
      endloop
   endfacet
   facet normal 0.000000e+000 4.869241e-002 -9.988138e-001
      outer loop
         vertex 0.000000e+000 1.824883e-001 -2.493331e+000
         vertex 1.200000e+001 1.824883e-001 -2.493331e+000
         vertex 0.000000e+000 3.061617e-016 -2.500000e+000
      endloop
   endfacet
   facet normal 1.000000e+000 0.000000e+000 0.000000e+000
      outer loop
         vertex 1.200000e+001 3.061617e-016 -2.500000e+000
         vertex 1.200000e+001 1.824883e-001 -2.493331e+000
         vertex 1.200000e+001 0.000000e+000 0.000000e+000
      endloop
   endfacet
   facet normal 1.000000e+000 0.000000e+000 0.000000e+000
      outer loop
         vertex 1.200000e+001 3.061617e-016 -2.500000e+000
         vertex 1.200000e+001 0.000000e+000 0.000000e+000
         vertex 1.200000e+001 -1.824883e-001 -2.493331e+000
      endloop
   endfacet
   facet normal 1.000000e+000 0.000000e+000 0.000000e+000
      outer loop
         vertex 1.200000e+001 -1.223545e+000 -2.180124e+000
         vertex 1.200000e+001 -8.930773e-001 -2.335040e+000
         vertex 1.200000e+001 0.000000e+000 0.000000e+000
      endloop
   endfacet
   facet normal 1.000000e+000 0.000000e+000 0.000000e+000
      outer loop
         vertex 1.200000e+001 0.000000e+000 0.000000e+000
         vertex 1.200000e+001 -8.930773e-001 -2.335040e+000
         vertex 1.200000e+001 -5.435755e-001 -2.440190e+000
      endloop
   endfacet
   facet normal 1.000000e+000 0.000000e+000 0.000000e+000
      outer loop
         vertex 1.200000e+001 0.000000e+000 0.000000e+000
         vertex 1.200000e+001 -5.435755e-001 -2.440190e+000
         vertex 1.200000e+001 -1.824883e-001 -2.493331e+000
      endloop
   endfacet
   facet normal 1.000000e+000 0.000000e+000 0.000000e+000
      outer loop
         vertex 1.200000e+001 -2.033224e+000 -1.454647e+000
         vertex 1.200000e+001 -1.799759e+000 -1.735186e+000
         vertex 1.200000e+001 0.000000e+000 0.000000e+000
      endloop
   endfacet
   facet normal 1.000000e+000 0.000000e+000 0.000000e+000
      outer loop
         vertex 1.200000e+001 0.000000e+000 0.000000e+000
         vertex 1.200000e+001 -1.799759e+000 -1.735186e+000
         vertex 1.200000e+001 -1.527934e+000 -1.978741e+000
      endloop
   endfacet
   facet normal 1.000000e+000 0.000000e+000 0.000000e+000
      outer loop
         vertex 1.200000e+001 0.000000e+000 0.000000e+000
         vertex 1.200000e+001 -1.527934e+000 -1.978741e+000
         vertex 1.200000e+001 -1.223545e+000 -2.180124e+000
      endloop
   endfacet
   facet normal 1.000000e+000 0.000000e+000 0.000000e+000
      outer loop
         vertex 1.200000e+001 -2.458414e+000 -4.540921e-001
         vertex 1.200000e+001 -2.366100e+000 -8.072010e-001
         vertex 1.200000e+001 0.000000e+000 0.000000e+000
      endloop
   endfacet
   facet normal 1.000000e+000 0.000000e+000 0.000000e+000
      outer loop
         vertex 1.200000e+001 0.000000e+000 0.000000e+000
         vertex 1.200000e+001 -2.366100e+000 -8.072010e-001
         vertex 1.200000e+001 -2.223356e+000 -1.143106e+000
      endloop
   endfacet
   facet normal 1.000000e+000 0.000000e+000 0.000000e+000
      outer loop
         vertex 1.200000e+001 0.000000e+000 0.000000e+000
         vertex 1.200000e+001 -2.223356e+000 -1.143106e+000
         vertex 1.200000e+001 -2.033224e+000 -1.454647e+000
      endloop
   endfacet
   facet normal 1.000000e+000 0.000000e+000 0.000000e+000
      outer loop
         vertex 1.200000e+001 -2.418709e+000 6.323335e-001
         vertex 1.200000e+001 -2.485002e+000 2.734280e-001
         vertex 1.200000e+001 0.000000e+000 0.000000e+000
      endloop
   endfacet
   facet normal 1.000000e+000 0.000000e+000 0.000000e+000
      outer loop
         vertex 1.200000e+001 0.000000e+000 0.000000e+000
         vertex 1.200000e+001 -2.485002e+000 2.734280e-001
         vertex 1.200000e+001 -2.498332e+000 -9.130506e-002
      endloop
   endfacet
   facet normal 1.000000e+000 0.000000e+000 0.000000e+000
      outer loop
         vertex 1.200000e+001 0.000000e+000 0.000000e+000
         vertex 1.200000e+001 -2.498332e+000 -9.130506e-002
         vertex 1.200000e+001 -2.458414e+000 -4.540921e-001
      endloop
   endfacet
   facet normal 1.000000e+000 0.000000e+000 0.000000e+000
      outer loop
         vertex 1.200000e+001 -1.921618e+000 1.599183e+000
         vertex 1.200000e+001 -2.133983e+000 1.302351e+000
         vertex 1.200000e+001 0.000000e+000 0.000000e+000
      endloop
   endfacet
   facet normal 1.000000e+000 0.000000e+000 0.000000e+000
      outer loop
         vertex 1.200000e+001 0.000000e+000 0.000000e+000
         vertex 1.200000e+001 -2.133983e+000 1.302351e+000
         vertex 1.200000e+001 -2.300865e+000 9.777618e-001
      endloop
   endfacet
   facet normal 1.000000e+000 0.000000e+000 0.000000e+000
      outer loop
         vertex 1.200000e+001 0.000000e+000 0.000000e+000
         vertex 1.200000e+001 -2.300865e+000 9.777618e-001
         vertex 1.200000e+001 -2.418709e+000 6.323335e-001
      endloop
   endfacet
   facet normal 1.000000e+000 0.000000e+000 0.000000e+000
      outer loop
         vertex 1.200000e+001 -1.061142e+000 2.263620e+000
         vertex 1.200000e+001 -1.379419e+000 2.084995e+000
         vertex 1.200000e+001 0.000000e+000 0.000000e+000
      endloop
   endfacet
   facet normal 1.000000e+000 0.000000e+000 0.000000e+000
      outer loop
         vertex 1.200000e+001 0.000000e+000 0.000000e+000
         vertex 1.200000e+001 -1.379419e+000 2.084995e+000
         vertex 1.200000e+001 -1.668297e+000 1.861930e+000
      endloop
   endfacet
   facet normal 1.000000e+000 0.000000e+000 0.000000e+000
      outer loop
         vertex 1.200000e+001 0.000000e+000 0.000000e+000
         vertex 1.200000e+001 -1.668297e+000 1.861930e+000
         vertex 1.200000e+001 -1.921618e+000 1.599183e+000
      endloop
   endfacet
   facet normal 1.000000e+000 0.000000e+000 0.000000e+000
      outer loop
         vertex 1.200000e+001 0.000000e+000 2.500000e+000
         vertex 1.200000e+001 -3.640029e-001 2.473359e+000
         vertex 1.200000e+001 0.000000e+000 0.000000e+000
      endloop
   endfacet
   facet normal 1.000000e+000 0.000000e+000 0.000000e+000
      outer loop
         vertex 1.200000e+001 0.000000e+000 0.000000e+000
         vertex 1.200000e+001 -3.640029e-001 2.473359e+000
         vertex 1.200000e+001 -7.202477e-001 2.394001e+000
      endloop
   endfacet
   facet normal 1.000000e+000 0.000000e+000 0.000000e+000
      outer loop
         vertex 1.200000e+001 0.000000e+000 0.000000e+000
         vertex 1.200000e+001 -7.202477e-001 2.394001e+000
         vertex 1.200000e+001 -1.061142e+000 2.263620e+000
      endloop
   endfacet
   facet normal 1.000000e+000 0.000000e+000 0.000000e+000
      outer loop
         vertex 1.200000e+001 1.061142e+000 2.263620e+000
         vertex 1.200000e+001 7.202477e-001 2.394001e+000
         vertex 1.200000e+001 0.000000e+000 0.000000e+000
      endloop
   endfacet
   facet normal 1.000000e+000 0.000000e+000 0.000000e+000
      outer loop
         vertex 1.200000e+001 0.000000e+000 0.000000e+000
         vertex 1.200000e+001 7.202477e-001 2.394001e+000
         vertex 1.200000e+001 3.640029e-001 2.473359e+000
      endloop
   endfacet
   facet normal 1.000000e+000 0.000000e+000 0.000000e+000
      outer loop
         vertex 1.200000e+001 0.000000e+000 0.000000e+000
         vertex 1.200000e+001 3.640029e-001 2.473359e+000
         vertex 1.200000e+001 0.000000e+000 2.500000e+000
      endloop
   endfacet
   facet normal 1.000000e+000 0.000000e+000 0.000000e+000
      outer loop
         vertex 1.200000e+001 1.921618e+000 1.599183e+000
         vertex 1.200000e+001 1.668297e+000 1.861930e+000
         vertex 1.200000e+001 0.000000e+000 0.000000e+000
      endloop
   endfacet
   facet normal 1.000000e+000 0.000000e+000 0.000000e+000
      outer loop
         vertex 1.200000e+001 0.000000e+000 0.000000e+000
         vertex 1.200000e+001 1.668297e+000 1.861930e+000
         vertex 1.200000e+001 1.379419e+000 2.084995e+000
      endloop
   endfacet
   facet normal 1.000000e+000 0.000000e+000 0.000000e+000
      outer loop
         vertex 1.200000e+001 0.000000e+000 0.000000e+000
         vertex 1.200000e+001 1.379419e+000 2.084995e+000
         vertex 1.200000e+001 1.061142e+000 2.263620e+000
      endloop
   endfacet
   facet normal 1.000000e+000 0.000000e+000 0.000000e+000
      outer loop
         vertex 1.200000e+001 2.418709e+000 6.323335e-001
         vertex 1.200000e+001 2.300865e+000 9.777618e-001
         vertex 1.200000e+001 0.000000e+000 0.000000e+000
      endloop
   endfacet
   facet normal 1.000000e+000 0.000000e+000 0.000000e+000
      outer loop
         vertex 1.200000e+001 0.000000e+000 0.000000e+000
         vertex 1.200000e+001 2.300865e+000 9.777618e-001
         vertex 1.200000e+001 2.133983e+000 1.302351e+000
      endloop
   endfacet
   facet normal 1.000000e+000 0.000000e+000 0.000000e+000
      outer loop
         vertex 1.200000e+001 0.000000e+000 0.000000e+000
         vertex 1.200000e+001 2.133983e+000 1.302351e+000
         vertex 1.200000e+001 1.921618e+000 1.599183e+000
      endloop
   endfacet
   facet normal 1.000000e+000 0.000000e+000 0.000000e+000
      outer loop
         vertex 1.200000e+001 2.458414e+000 -4.540921e-001
         vertex 1.200000e+001 2.498332e+000 -9.130506e-002
         vertex 1.200000e+001 0.000000e+000 0.000000e+000
      endloop
   endfacet
   facet normal 1.000000e+000 0.000000e+000 0.000000e+000
      outer loop
         vertex 1.200000e+001 0.000000e+000 0.000000e+000
         vertex 1.200000e+001 2.498332e+000 -9.130506e-002
         vertex 1.200000e+001 2.485002e+000 2.734280e-001
      endloop
   endfacet
   facet normal 1.000000e+000 0.000000e+000 0.000000e+000
      outer loop
         vertex 1.200000e+001 0.000000e+000 0.000000e+000
         vertex 1.200000e+001 2.485002e+000 2.734280e-001
         vertex 1.200000e+001 2.418709e+000 6.323335e-001
      endloop
   endfacet
   facet normal 1.000000e+000 0.000000e+000 0.000000e+000
      outer loop
         vertex 1.200000e+001 2.033224e+000 -1.454647e+000
         vertex 1.200000e+001 2.223356e+000 -1.143106e+000
         vertex 1.200000e+001 0.000000e+000 0.000000e+000
      endloop
   endfacet
   facet normal 1.000000e+000 0.000000e+000 0.000000e+000
      outer loop
         vertex 1.200000e+001 0.000000e+000 0.000000e+000
         vertex 1.200000e+001 2.223356e+000 -1.143106e+000
         vertex 1.200000e+001 2.366100e+000 -8.072010e-001
      endloop
   endfacet
   facet normal 1.000000e+000 0.000000e+000 0.000000e+000
      outer loop
         vertex 1.200000e+001 0.000000e+000 0.000000e+000
         vertex 1.200000e+001 2.366100e+000 -8.072010e-001
         vertex 1.200000e+001 2.458414e+000 -4.540921e-001
      endloop
   endfacet
   facet normal 1.000000e+000 0.000000e+000 0.000000e+000
      outer loop
         vertex 1.200000e+001 1.223545e+000 -2.180124e+000
         vertex 1.200000e+001 1.527934e+000 -1.978741e+000
         vertex 1.200000e+001 0.000000e+000 0.000000e+000
      endloop
   endfacet
   facet normal 1.000000e+000 0.000000e+000 0.000000e+000
      outer loop
         vertex 1.200000e+001 0.000000e+000 0.000000e+000
         vertex 1.200000e+001 1.527934e+000 -1.978741e+000
         vertex 1.200000e+001 1.799759e+000 -1.735186e+000
      endloop
   endfacet
   facet normal 1.000000e+000 0.000000e+000 0.000000e+000
      outer loop
         vertex 1.200000e+001 0.000000e+000 0.000000e+000
         vertex 1.200000e+001 1.799759e+000 -1.735186e+000
         vertex 1.200000e+001 2.033224e+000 -1.454647e+000
      endloop
   endfacet
   facet normal 1.000000e+000 0.000000e+000 0.000000e+000
      outer loop
         vertex 1.200000e+001 1.824883e-001 -2.493331e+000
         vertex 1.200000e+001 5.435755e-001 -2.440190e+000
         vertex 1.200000e+001 0.000000e+000 0.000000e+000
      endloop
   endfacet
   facet normal 1.000000e+000 0.000000e+000 0.000000e+000
      outer loop
         vertex 1.200000e+001 0.000000e+000 0.000000e+000
         vertex 1.200000e+001 5.435755e-001 -2.440190e+000
         vertex 1.200000e+001 8.930773e-001 -2.335040e+000
      endloop
   endfacet
   facet normal 1.000000e+000 0.000000e+000 0.000000e+000
      outer loop
         vertex 1.200000e+001 0.000000e+000 0.000000e+000
         vertex 1.200000e+001 8.930773e-001 -2.335040e+000
         vertex 1.200000e+001 1.223545e+000 -2.180124e+000
      endloop
   endfacet
   facet normal -1.000000e+000 0.000000e+000 0.000000e+000
      outer loop
         vertex 0.000000e+000 9.184852e-016 -2.500000e+000
         vertex 0.000000e+000 -1.824883e-001 -2.493331e+000
         vertex 0.000000e+000 0.000000e+000 0.000000e+000
      endloop
   endfacet
   facet normal -1.000000e+000 0.000000e+000 0.000000e+000
      outer loop
         vertex 0.000000e+000 9.184852e-016 -2.500000e+000
         vertex 0.000000e+000 0.000000e+000 0.000000e+000
         vertex 0.000000e+000 1.824883e-001 -2.493331e+000
      endloop
   endfacet
   facet normal -1.000000e+000 0.000000e+000 0.000000e+000
      outer loop
         vertex 0.000000e+000 1.223545e+000 -2.180124e+000
         vertex 0.000000e+000 8.930773e-001 -2.335040e+000
         vertex 0.000000e+000 0.000000e+000 0.000000e+000
      endloop
   endfacet
   facet normal -1.000000e+000 0.000000e+000 0.000000e+000
      outer loop
         vertex 0.000000e+000 0.000000e+000 0.000000e+000
         vertex 0.000000e+000 8.930773e-001 -2.335040e+000
         vertex 0.000000e+000 5.435755e-001 -2.440190e+000
      endloop
   endfacet
   facet normal -1.000000e+000 0.000000e+000 0.000000e+000
      outer loop
         vertex 0.000000e+000 0.000000e+000 0.000000e+000
         vertex 0.000000e+000 5.435755e-001 -2.440190e+000
         vertex 0.000000e+000 1.824883e-001 -2.493331e+000
      endloop
   endfacet
   facet normal -1.000000e+000 0.000000e+000 0.000000e+000
      outer loop
         vertex 0.000000e+000 2.033224e+000 -1.454647e+000
         vertex 0.000000e+000 1.799759e+000 -1.735186e+000
         vertex 0.000000e+000 0.000000e+000 0.000000e+000
      endloop
   endfacet
   facet normal -1.000000e+000 0.000000e+000 0.000000e+000
      outer loop
         vertex 0.000000e+000 0.000000e+000 0.000000e+000
         vertex 0.000000e+000 1.799759e+000 -1.735186e+000
         vertex 0.000000e+000 1.527934e+000 -1.978741e+000
      endloop
   endfacet
   facet normal -1.000000e+000 0.000000e+000 0.000000e+000
      outer loop
         vertex 0.000000e+000 0.000000e+000 0.000000e+000
         vertex 0.000000e+000 1.527934e+000 -1.978741e+000
         vertex 0.000000e+000 1.223545e+000 -2.180124e+000
      endloop
   endfacet
   facet normal -1.000000e+000 0.000000e+000 0.000000e+000
      outer loop
         vertex 0.000000e+000 2.458414e+000 -4.540921e-001
         vertex 0.000000e+000 2.366100e+000 -8.072010e-001
         vertex 0.000000e+000 0.000000e+000 0.000000e+000
      endloop
   endfacet
   facet normal -1.000000e+000 0.000000e+000 0.000000e+000
      outer loop
         vertex 0.000000e+000 0.000000e+000 0.000000e+000
         vertex 0.000000e+000 2.366100e+000 -8.072010e-001
         vertex 0.000000e+000 2.223356e+000 -1.143106e+000
      endloop
   endfacet
   facet normal -1.000000e+000 0.000000e+000 0.000000e+000
      outer loop
         vertex 0.000000e+000 0.000000e+000 0.000000e+000
         vertex 0.000000e+000 2.223356e+000 -1.143106e+000
         vertex 0.000000e+000 2.033224e+000 -1.454647e+000
      endloop
   endfacet
   facet normal -1.000000e+000 0.000000e+000 0.000000e+000
      outer loop
         vertex 0.000000e+000 2.418709e+000 6.323335e-001
         vertex 0.000000e+000 2.485002e+000 2.734280e-001
         vertex 0.000000e+000 0.000000e+000 0.000000e+000
      endloop
   endfacet
   facet normal -1.000000e+000 0.000000e+000 0.000000e+000
      outer loop
         vertex 0.000000e+000 0.000000e+000 0.000000e+000
         vertex 0.000000e+000 2.485002e+000 2.734280e-001
         vertex 0.000000e+000 2.498332e+000 -9.130506e-002
      endloop
   endfacet
   facet normal -1.000000e+000 0.000000e+000 0.000000e+000
      outer loop
         vertex 0.000000e+000 0.000000e+000 0.000000e+000
         vertex 0.000000e+000 2.498332e+000 -9.130506e-002
         vertex 0.000000e+000 2.458414e+000 -4.540921e-001
      endloop
   endfacet
   facet normal -1.000000e+000 0.000000e+000 0.000000e+000
      outer loop
         vertex 0.000000e+000 1.921618e+000 1.599183e+000
         vertex 0.000000e+000 2.133983e+000 1.302351e+000
         vertex 0.000000e+000 0.000000e+000 0.000000e+000
      endloop
   endfacet
   facet normal -1.000000e+000 0.000000e+000 0.000000e+000
      outer loop
         vertex 0.000000e+000 0.000000e+000 0.000000e+000
         vertex 0.000000e+000 2.133983e+000 1.302351e+000
         vertex 0.000000e+000 2.300865e+000 9.777618e-001
      endloop
   endfacet
   facet normal -1.000000e+000 0.000000e+000 0.000000e+000
      outer loop
         vertex 0.000000e+000 0.000000e+000 0.000000e+000
         vertex 0.000000e+000 2.300865e+000 9.777618e-001
         vertex 0.000000e+000 2.418709e+000 6.323335e-001
      endloop
   endfacet
   facet normal -1.000000e+000 0.000000e+000 0.000000e+000
      outer loop
         vertex 0.000000e+000 1.061142e+000 2.263620e+000
         vertex 0.000000e+000 1.379419e+000 2.084995e+000
         vertex 0.000000e+000 0.000000e+000 0.000000e+000
      endloop
   endfacet
   facet normal -1.000000e+000 0.000000e+000 0.000000e+000
      outer loop
         vertex 0.000000e+000 0.000000e+000 0.000000e+000
         vertex 0.000000e+000 1.379419e+000 2.084995e+000
         vertex 0.000000e+000 1.668297e+000 1.861930e+000
      endloop
   endfacet
   facet normal -1.000000e+000 0.000000e+000 0.000000e+000
      outer loop
         vertex 0.000000e+000 0.000000e+000 0.000000e+000
         vertex 0.000000e+000 1.668297e+000 1.861930e+000
         vertex 0.000000e+000 1.921618e+000 1.599183e+000
      endloop
   endfacet
   facet normal -1.000000e+000 0.000000e+000 0.000000e+000
      outer loop
         vertex 0.000000e+000 0.000000e+000 2.500000e+000
         vertex 0.000000e+000 3.640029e-001 2.473359e+000
         vertex 0.000000e+000 0.000000e+000 0.000000e+000
      endloop
   endfacet
   facet normal -1.000000e+000 0.000000e+000 0.000000e+000
      outer loop
         vertex 0.000000e+000 0.000000e+000 0.000000e+000
         vertex 0.000000e+000 3.640029e-001 2.473359e+000
         vertex 0.000000e+000 7.202477e-001 2.394001e+000
      endloop
   endfacet
   facet normal -1.000000e+000 0.000000e+000 0.000000e+000
      outer loop
         vertex 0.000000e+000 0.000000e+000 0.000000e+000
         vertex 0.000000e+000 7.202477e-001 2.394001e+000
         vertex 0.000000e+000 1.061142e+000 2.263620e+000
      endloop
   endfacet
   facet normal -1.000000e+000 0.000000e+000 0.000000e+000
      outer loop
         vertex 0.000000e+000 -1.061142e+000 2.263620e+000
         vertex 0.000000e+000 -7.202477e-001 2.394001e+000
         vertex 0.000000e+000 0.000000e+000 0.000000e+000
      endloop
   endfacet
   facet normal -1.000000e+000 0.000000e+000 0.000000e+000
      outer loop
         vertex 0.000000e+000 0.000000e+000 0.000000e+000
         vertex 0.000000e+000 -7.202477e-001 2.394001e+000
         vertex 0.000000e+000 -3.640029e-001 2.473359e+000
      endloop
   endfacet
   facet normal -1.000000e+000 0.000000e+000 0.000000e+000
      outer loop
         vertex 0.000000e+000 0.000000e+000 0.000000e+000
         vertex 0.000000e+000 -3.640029e-001 2.473359e+000
         vertex 0.000000e+000 0.000000e+000 2.500000e+000
      endloop
   endfacet
   facet normal -1.000000e+000 0.000000e+000 0.000000e+000
      outer loop
         vertex 0.000000e+000 -1.921618e+000 1.599183e+000
         vertex 0.000000e+000 -1.668297e+000 1.861930e+000
         vertex 0.000000e+000 0.000000e+000 0.000000e+000
      endloop
   endfacet
   facet normal -1.000000e+000 0.000000e+000 0.000000e+000
      outer loop
         vertex 0.000000e+000 0.000000e+000 0.000000e+000
         vertex 0.000000e+000 -1.668297e+000 1.861930e+000
         vertex 0.000000e+000 -1.379419e+000 2.084995e+000
      endloop
   endfacet
   facet normal -1.000000e+000 0.000000e+000 0.000000e+000
      outer loop
         vertex 0.000000e+000 0.000000e+000 0.000000e+000
         vertex 0.000000e+000 -1.379419e+000 2.084995e+000
         vertex 0.000000e+000 -1.061142e+000 2.263620e+000
      endloop
   endfacet
   facet normal -1.000000e+000 0.000000e+000 0.000000e+000
      outer loop
         vertex 0.000000e+000 -2.418709e+000 6.323335e-001
         vertex 0.000000e+000 -2.300865e+000 9.777618e-001
         vertex 0.000000e+000 0.000000e+000 0.000000e+000
      endloop
   endfacet
   facet normal -1.000000e+000 0.000000e+000 0.000000e+000
      outer loop
         vertex 0.000000e+000 0.000000e+000 0.000000e+000
         vertex 0.000000e+000 -2.300865e+000 9.777618e-001
         vertex 0.000000e+000 -2.133983e+000 1.302351e+000
      endloop
   endfacet
   facet normal -1.000000e+000 0.000000e+000 0.000000e+000
      outer loop
         vertex 0.000000e+000 0.000000e+000 0.000000e+000
         vertex 0.000000e+000 -2.133983e+000 1.302351e+000
         vertex 0.000000e+000 -1.921618e+000 1.599183e+000
      endloop
   endfacet
   facet normal -1.000000e+000 0.000000e+000 0.000000e+000
      outer loop
         vertex 0.000000e+000 -2.458414e+000 -4.540921e-001
         vertex 0.000000e+000 -2.498332e+000 -9.130506e-002
         vertex 0.000000e+000 0.000000e+000 0.000000e+000
      endloop
   endfacet
   facet normal -1.000000e+000 0.000000e+000 0.000000e+000
      outer loop
         vertex 0.000000e+000 0.000000e+000 0.000000e+000
         vertex 0.000000e+000 -2.498332e+000 -9.130506e-002
         vertex 0.000000e+000 -2.485002e+000 2.734280e-001
      endloop
   endfacet
   facet normal -1.000000e+000 0.000000e+000 0.000000e+000
      outer loop
         vertex 0.000000e+000 0.000000e+000 0.000000e+000
         vertex 0.000000e+000 -2.485002e+000 2.734280e-001
         vertex 0.000000e+000 -2.418709e+000 6.323335e-001
      endloop
   endfacet
   facet normal -1.000000e+000 0.000000e+000 0.000000e+000
      outer loop
         vertex 0.000000e+000 -2.033224e+000 -1.454647e+000
         vertex 0.000000e+000 -2.223356e+000 -1.143106e+000
         vertex 0.000000e+000 0.000000e+000 0.000000e+000
      endloop
   endfacet
   facet normal -1.000000e+000 0.000000e+000 0.000000e+000
      outer loop
         vertex 0.000000e+000 0.000000e+000 0.000000e+000
         vertex 0.000000e+000 -2.223356e+000 -1.143106e+000
         vertex 0.000000e+000 -2.366100e+000 -8.072010e-001
      endloop
   endfacet
   facet normal -1.000000e+000 0.000000e+000 0.000000e+000
      outer loop
         vertex 0.000000e+000 0.000000e+000 0.000000e+000
         vertex 0.000000e+000 -2.366100e+000 -8.072010e-001
         vertex 0.000000e+000 -2.458414e+000 -4.540921e-001
      endloop
   endfacet
   facet normal -1.000000e+000 0.000000e+000 0.000000e+000
      outer loop
         vertex 0.000000e+000 -1.223545e+000 -2.180124e+000
         vertex 0.000000e+000 -1.527934e+000 -1.978741e+000
         vertex 0.000000e+000 0.000000e+000 0.000000e+000
      endloop
   endfacet
   facet normal -1.000000e+000 0.000000e+000 0.000000e+000
      outer loop
         vertex 0.000000e+000 0.000000e+000 0.000000e+000
         vertex 0.000000e+000 -1.527934e+000 -1.978741e+000
         vertex 0.000000e+000 -1.799759e+000 -1.735186e+000
      endloop
   endfacet
   facet normal -1.000000e+000 0.000000e+000 0.000000e+000
      outer loop
         vertex 0.000000e+000 0.000000e+000 0.000000e+000
         vertex 0.000000e+000 -1.799759e+000 -1.735186e+000
         vertex 0.000000e+000 -2.033224e+000 -1.454647e+000
      endloop
   endfacet
   facet normal -1.000000e+000 0.000000e+000 0.000000e+000
      outer loop
         vertex 0.000000e+000 -1.824883e-001 -2.493331e+000
         vertex 0.000000e+000 -5.435755e-001 -2.440190e+000
         vertex 0.000000e+000 0.000000e+000 0.000000e+000
      endloop
   endfacet
   facet normal -1.000000e+000 0.000000e+000 0.000000e+000
      outer loop
         vertex 0.000000e+000 0.000000e+000 0.000000e+000
         vertex 0.000000e+000 -5.435755e-001 -2.440190e+000
         vertex 0.000000e+000 -8.930773e-001 -2.335040e+000
      endloop
   endfacet
   facet normal -1.000000e+000 0.000000e+000 0.000000e+000
      outer loop
         vertex 0.000000e+000 0.000000e+000 0.000000e+000
         vertex 0.000000e+000 -8.930773e-001 -2.335040e+000
         vertex 0.000000e+000 -1.223545e+000 -2.180124e+000
      endloop
   endfacet
endsolid