solid shaft-1_Default_sldprt
   facet normal 2.829130e-002 0.000000e+000 9.995998e-001
      outer loop
         vertex 3.392237e-001 7.500000e+001 3.985590e+000
         vertex 1.469576e-015 7.500000e+001 4.000000e+000
         vertex 4.898587e-016 0.000000e+000 4.000000e+000
      endloop
   endfacet
   facet normal -2.829130e-002 0.000000e+000 9.995998e-001
      outer loop
         vertex 4.898587e-016 0.000000e+000 4.000000e+000
         vertex 1.469576e-015 7.500000e+001 4.000000e+000
         vertex -3.392237e-001 0.000000e+000 3.985590e+000
      endloop
   endfacet
   facet normal -5.658260e-002 0.000000e+000 9.983979e-001
      outer loop
         vertex 1.469576e-015 7.500000e+001 4.000000e+000
         vertex -3.392237e-001 7.500000e+001 3.985590e+000
         vertex -3.392237e-001 0.000000e+000 3.985590e+000
      endloop
   endfacet
   facet normal -1.409813e-001 0.000000e+000 9.900123e-001
      outer loop
         vertex -3.392237e-001 0.000000e+000 3.985590e+000
         vertex -3.392237e-001 7.500000e+001 3.985590e+000
         vertex -1.007912e+000 7.500000e+001 3.870932e+000
      endloop
   endfacet
   facet normal -1.968844e-001 0.000000e+000 9.804267e-001
      outer loop
         vertex -3.392237e-001 0.000000e+000 3.985590e+000
         vertex -1.007912e+000 7.500000e+001 3.870932e+000
         vertex -1.007912e+000 0.000000e+000 3.870932e+000
      endloop
   endfacet
   facet normal -3.062663e-001 0.000000e+000 9.519458e-001
      outer loop
         vertex -1.007912e+000 0.000000e+000 3.870932e+000
         vertex -1.007912e+000 7.500000e+001 3.870932e+000
         vertex -1.647605e+000 7.500000e+001 3.644914e+000
      endloop
   endfacet
   facet normal -3.597453e-001 0.000000e+000 9.330506e-001
      outer loop
         vertex -1.007912e+000 0.000000e+000 3.870932e+000
         vertex -1.647605e+000 7.500000e+001 3.644914e+000
         vertex -1.647605e+000 0.000000e+000 3.644914e+000
      endloop
   endfacet
   facet normal -4.627406e-001 0.000000e+000 8.864937e-001
      outer loop
         vertex -1.647605e+000 0.000000e+000 3.644914e+000
         vertex -1.647605e+000 7.500000e+001 3.644914e+000
         vertex -2.239899e+000 7.500000e+001 3.314039e+000
      endloop
   endfacet
   facet normal -5.122570e-001 0.000000e+000 8.588322e-001
      outer loop
         vertex -1.647605e+000 0.000000e+000 3.644914e+000
         vertex -2.239899e+000 7.500000e+001 3.314039e+000
         vertex -2.239899e+000 0.000000e+000 3.314039e+000
      endloop
   endfacet
   facet normal -6.059027e-001 0.000000e+000 7.955388e-001
      outer loop
         vertex -2.239899e+000 0.000000e+000 3.314039e+000
         vertex -2.239899e+000 7.500000e+001 3.314039e+000
         vertex -2.767756e+000 7.500000e+001 2.887824e+000
      endloop
   endfacet
   facet normal -6.500320e-001 0.000000e+000 7.599069e-001
      outer loop
         vertex -2.239899e+000 0.000000e+000 3.314039e+000
         vertex -2.767756e+000 7.500000e+001 2.887824e+000
         vertex -2.767756e+000 0.000000e+000 2.887824e+000
      endloop
   endfacet
   facet normal -7.316340e-001 0.000000e+000 6.816977e-001
      outer loop
         vertex -2.767756e+000 0.000000e+000 2.887824e+000
         vertex -2.767756e+000 7.500000e+001 2.887824e+000
         vertex -3.215989e+000 7.500000e+001 2.378533e+000
      endloop
   endfacet
   facet normal -7.691067e-001 0.000000e+000 6.391203e-001
      outer loop
         vertex -2.767756e+000 0.000000e+000 2.887824e+000
         vertex -3.215989e+000 7.500000e+001 2.378533e+000
         vertex -3.215989e+000 0.000000e+000 2.378533e+000
      endloop
   endfacet
   facet normal -8.363176e-001 0.000000e+000 5.482453e-001
      outer loop
         vertex -3.215989e+000 0.000000e+000 2.378533e+000
         vertex -3.215989e+000 7.500000e+001 2.378533e+000
         vertex -3.571703e+000 7.500000e+001 1.800815e+000
      endloop
   endfacet
   facet normal -8.660557e-001 0.000000e+000 4.999475e-001
      outer loop
         vertex -3.215989e+000 0.000000e+000 2.378533e+000
         vertex -3.571703e+000 7.500000e+001 1.800815e+000
         vertex -3.571703e+000 0.000000e+000 1.800815e+000
      endloop
   endfacet
   facet normal -9.169418e-001 0.000000e+000 3.990209e-001
      outer loop
         vertex -3.571703e+000 0.000000e+000 1.800815e+000
         vertex -3.571703e+000 7.500000e+001 1.800815e+000
         vertex -3.824667e+000 7.500000e+001 1.171291e+000
      endloop
   endfacet
   facet normal -9.380898e-001 0.000000e+000 3.463921e-001
      outer loop
         vertex -3.571703e+000 0.000000e+000 1.800815e+000
         vertex -3.824667e+000 7.500000e+001 1.171291e+000
         vertex -3.824667e+000 0.000000e+000 1.171291e+000
      endloop
   endfacet
   facet normal -9.711873e-001 0.000000e+000 2.383175e-001
      outer loop
         vertex -3.824667e+000 0.000000e+000 1.171291e+000
         vertex -3.824667e+000 7.500000e+001 1.171291e+000
         vertex -3.967602e+000 7.500000e+001 5.080712e-001
      endloop
   endfacet
   facet normal -9.831368e-001 0.000000e+000 1.828716e-001
      outer loop
         vertex -3.824667e+000 0.000000e+000 1.171291e+000
         vertex -3.967602e+000 7.500000e+001 5.080712e-001
         vertex -3.967602e+000 0.000000e+000 5.080712e-001
      endloop
   endfacet
   facet normal -9.974935e-001 0.000000e+000 7.075802e-002
      outer loop
         vertex -3.967602e+000 0.000000e+000 5.080712e-001
         vertex -3.967602e+000 7.500000e+001 5.080712e-001
         vertex -3.996396e+000 7.500000e+001 -1.697648e-001
      endloop
   endfacet
   facet normal -9.999007e-001 0.000000e+000 1.409025e-002
      outer loop
         vertex -3.967602e+000 0.000000e+000 5.080712e-001
         vertex -3.996396e+000 7.500000e+001 -1.697648e-001
         vertex -3.996396e+000 0.000000e+000 -1.697648e-001
      endloop
   endfacet
   facet normal -9.951036e-001 0.000000e+000 -9.883699e-002
      outer loop
         vertex -3.996396e+000 0.000000e+000 -1.697648e-001
         vertex -3.996396e+000 7.500000e+001 -1.697648e-001
         vertex -3.910221e+000 7.500000e+001 -8.427171e-001
      endloop
   endfacet
   facet normal -9.878993e-001 0.000000e+000 -1.550965e-001
      outer loop
         vertex -3.996396e+000 0.000000e+000 -1.697648e-001
         vertex -3.910221e+000 7.500000e+001 -8.427171e-001
         vertex -3.910221e+000 0.000000e+000 -8.427171e-001
      endloop
   endfacet
   facet normal -9.640865e-001 0.000000e+000 -2.655886e-001
      outer loop
         vertex -3.910221e+000 0.000000e+000 -8.427171e-001
         vertex -3.910221e+000 7.500000e+001 -8.427171e-001
         vertex -3.711556e+000 7.500000e+001 -1.491426e+000
      endloop
   endfacet
   facet normal -9.474779e-001 0.000000e+000 -3.198213e-001
      outer loop
         vertex -3.910221e+000 0.000000e+000 -8.427171e-001
         vertex -3.711556e+000 7.500000e+001 -1.491426e+000
         vertex -3.711556e+000 0.000000e+000 -1.491426e+000
      endloop
   endfacet
   facet normal -9.053342e-001 0.000000e+000 -4.246998e-001
      outer loop
         vertex -3.711556e+000 0.000000e+000 -1.491426e+000
         vertex -3.711556e+000 7.500000e+001 -1.491426e+000
         vertex -3.406116e+000 7.500000e+001 -2.097229e+000
      endloop
   endfacet
   facet normal -8.797992e-001 0.000000e+000 -4.753455e-001
      outer loop
         vertex -3.711556e+000 0.000000e+000 -1.491426e+000
         vertex -3.406116e+000 7.500000e+001 -2.097229e+000
         vertex -3.406116e+000 0.000000e+000 -2.097229e+000
      endloop
   endfacet
   facet normal -8.205372e-001 0.000000e+000 -5.715931e-001
      outer loop
         vertex -3.406116e+000 0.000000e+000 -2.097229e+000
         vertex -3.406116e+000 7.500000e+001 -2.097229e+000
         vertex -3.002689e+000 7.500000e+001 -2.642699e+000
      endloop
   endfacet
   facet normal -7.868103e-001 0.000000e+000 -6.171949e-001
      outer loop
         vertex -3.406116e+000 0.000000e+000 -2.097229e+000
         vertex -3.002689e+000 7.500000e+001 -2.642699e+000
         vertex -3.002689e+000 0.000000e+000 -2.642699e+000
      endloop
   endfacet
   facet normal -7.121348e-001 0.000000e+000 -7.020428e-001
      outer loop
         vertex -3.002689e+000 0.000000e+000 -2.642699e+000
         vertex -3.002689e+000 7.500000e+001 -2.642699e+000
         vertex -2.512880e+000 7.500000e+001 -3.112143e+000
      endloop
   endfacet
   facet normal -6.711863e-001 0.000000e+000 -7.412888e-001
      outer loop
         vertex -3.002689e+000 0.000000e+000 -2.642699e+000
         vertex -2.512880e+000 7.500000e+001 -3.112143e+000
         vertex -2.512880e+000 0.000000e+000 -3.112143e+000
      endloop
   endfacet
   facet normal -5.832456e-001 0.000000e+000 -8.122959e-001
      outer loop
         vertex -2.512880e+000 0.000000e+000 -3.112143e+000
         vertex -2.512880e+000 7.500000e+001 -3.112143e+000
         vertex -1.950780e+000 7.500000e+001 -3.492056e+000
      endloop
   endfacet
   facet normal -5.362535e-001 0.000000e+000 -8.440570e-001
      outer loop
         vertex -2.512880e+000 0.000000e+000 -3.112143e+000
         vertex -1.950780e+000 7.500000e+001 -3.492056e+000
         vertex -1.950780e+000 0.000000e+000 -3.492056e+000
      endloop
   endfacet
   facet normal -4.375775e-001 0.000000e+000 -8.991807e-001
      outer loop
         vertex -1.950780e+000 0.000000e+000 -3.492056e+000
         vertex -1.950780e+000 7.500000e+001 -3.492056e+000
         vertex -1.332559e+000 7.500000e+001 -3.771510e+000
      endloop
   endfacet
   facet normal -3.858936e-001 0.000000e+000 -9.225433e-001
      outer loop
         vertex -1.950780e+000 0.000000e+000 -3.492056e+000
         vertex -1.332559e+000 7.500000e+001 -3.771510e+000
         vertex -1.332559e+000 0.000000e+000 -3.771510e+000
      endloop
   endfacet
   facet normal -2.793211e-001 0.000000e+000 -9.601977e-001
      outer loop
         vertex -1.332559e+000 0.000000e+000 -3.771510e+000
         vertex -1.332559e+000 7.500000e+001 -3.771510e+000
         vertex -6.760033e-001 7.500000e+001 -3.942464e+000
      endloop
   endfacet
   facet normal -2.244324e-001 0.000000e+000 -9.744897e-001
      outer loop
         vertex -1.332559e+000 0.000000e+000 -3.771510e+000
         vertex -6.760033e-001 7.500000e+001 -3.942464e+000
         vertex -6.760033e-001 0.000000e+000 -3.942464e+000
      endloop
   endfacet
   facet normal -1.130291e-001 0.000000e+000 -9.935917e-001
      outer loop
         vertex -6.760033e-001 0.000000e+000 -3.942464e+000
         vertex -6.760033e-001 7.500000e+001 -3.942464e+000
         vertex 0.000000e+000 7.500000e+001 -4.000000e+000
      endloop
   endfacet
   facet normal -5.651454e-002 0.000000e+000 -9.984018e-001
      outer loop
         vertex -6.760033e-001 0.000000e+000 -3.942464e+000
         vertex 0.000000e+000 7.500000e+001 -4.000000e+000
         vertex 0.000000e+000 0.000000e+000 -4.000000e+000
      endloop
   endfacet
   facet normal 5.651454e-002 0.000000e+000 -9.984018e-001
      outer loop
         vertex 0.000000e+000 0.000000e+000 -4.000000e+000
         vertex 0.000000e+000 7.500000e+001 -4.000000e+000
         vertex 6.760033e-001 7.500000e+001 -3.942464e+000
      endloop
   endfacet
   facet normal 1.130291e-001 0.000000e+000 -9.935917e-001
      outer loop
         vertex 0.000000e+000 0.000000e+000 -4.000000e+000
         vertex 6.760033e-001 7.500000e+001 -3.942464e+000
         vertex 6.760033e-001 0.000000e+000 -3.942464e+000
      endloop
   endfacet
   facet normal 2.244324e-001 0.000000e+000 -9.744897e-001
      outer loop
         vertex 6.760033e-001 0.000000e+000 -3.942464e+000
         vertex 6.760033e-001 7.500000e+001 -3.942464e+000
         vertex 1.332559e+000 7.500000e+001 -3.771510e+000
      endloop
   endfacet
   facet normal 2.793211e-001 0.000000e+000 -9.601977e-001
      outer loop
         vertex 6.760033e-001 0.000000e+000 -3.942464e+000
         vertex 1.332559e+000 7.500000e+001 -3.771510e+000
         vertex 1.332559e+000 0.000000e+000 -3.771510e+000
      endloop
   endfacet
   facet normal 3.858936e-001 0.000000e+000 -9.225433e-001
      outer loop
         vertex 1.332559e+000 0.000000e+000 -3.771510e+000
         vertex 1.332559e+000 7.500000e+001 -3.771510e+000
         vertex 1.950780e+000 7.500000e+001 -3.492056e+000
      endloop
   endfacet
   facet normal 4.375775e-001 0.000000e+000 -8.991807e-001
      outer loop
         vertex 1.332559e+000 0.000000e+000 -3.771510e+000
         vertex 1.950780e+000 7.500000e+001 -3.492056e+000
         vertex 1.950780e+000 0.000000e+000 -3.492056e+000
      endloop
   endfacet
   facet normal 5.362535e-001 0.000000e+000 -8.440570e-001
      outer loop
         vertex 1.950780e+000 0.000000e+000 -3.492056e+000
         vertex 1.950780e+000 7.500000e+001 -3.492056e+000
         vertex 2.512880e+000 7.500000e+001 -3.112143e+000
      endloop
   endfacet
   facet normal 5.832456e-001 0.000000e+000 -8.122959e-001
      outer loop
         vertex 1.950780e+000 0.000000e+000 -3.492056e+000
         vertex 2.512880e+000 7.500000e+001 -3.112143e+000
         vertex 2.512880e+000 0.000000e+000 -3.112143e+000
      endloop
   endfacet
   facet normal 6.711863e-001 0.000000e+000 -7.412888e-001
      outer loop
         vertex 2.512880e+000 0.000000e+000 -3.112143e+000
         vertex 2.512880e+000 7.500000e+001 -3.112143e+000
         vertex 3.002689e+000 7.500000e+001 -2.642699e+000
      endloop
   endfacet
   facet normal 7.121348e-001 0.000000e+000 -7.020428e-001
      outer loop
         vertex 2.512880e+000 0.000000e+000 -3.112143e+000
         vertex 3.002689e+000 7.500000e+001 -2.642699e+000
         vertex 3.002689e+000 0.000000e+000 -2.642699e+000
      endloop
   endfacet
   facet normal 7.868103e-001 0.000000e+000 -6.171949e-001
      outer loop
         vertex 3.002689e+000 0.000000e+000 -2.642699e+000
         vertex 3.002689e+000 7.500000e+001 -2.642699e+000
         vertex 3.406116e+000 7.500000e+001 -2.097229e+000
      endloop
   endfacet
   facet normal 8.205372e-001 0.000000e+000 -5.715931e-001
      outer loop
         vertex 3.002689e+000 0.000000e+000 -2.642699e+000
         vertex 3.406116e+000 7.500000e+001 -2.097229e+000
         vertex 3.406116e+000 0.000000e+000 -2.097229e+000
      endloop
   endfacet
   facet normal 8.797992e-001 0.000000e+000 -4.753455e-001
      outer loop
         vertex 3.406116e+000 0.000000e+000 -2.097229e+000
         vertex 3.406116e+000 7.500000e+001 -2.097229e+000
         vertex 3.711556e+000 7.500000e+001 -1.491426e+000
      endloop
   endfacet
   facet normal 9.053342e-001 0.000000e+000 -4.246998e-001
      outer loop
         vertex 3.406116e+000 0.000000e+000 -2.097229e+000
         vertex 3.711556e+000 7.500000e+001 -1.491426e+000
         vertex 3.711556e+000 0.000000e+000 -1.491426e+000
      endloop
   endfacet
   facet normal 9.474779e-001 0.000000e+000 -3.198213e-001
      outer loop
         vertex 3.711556e+000 0.000000e+000 -1.491426e+000
         vertex 3.711556e+000 7.500000e+001 -1.491426e+000
         vertex 3.910221e+000 7.500000e+001 -8.427171e-001
      endloop
   endfacet
   facet normal 9.640865e-001 0.000000e+000 -2.655886e-001
      outer loop
         vertex 3.711556e+000 0.000000e+000 -1.491426e+000
         vertex 3.910221e+000 7.500000e+001 -8.427171e-001
         vertex 3.910221e+000 0.000000e+000 -8.427171e-001
      endloop
   endfacet
   facet normal 9.878993e-001 0.000000e+000 -1.550965e-001
      outer loop
         vertex 3.910221e+000 0.000000e+000 -8.427171e-001
         vertex 3.910221e+000 7.500000e+001 -8.427171e-001
         vertex 3.996396e+000 7.500000e+001 -1.697648e-001
      endloop
   endfacet
   facet normal 9.951036e-001 0.000000e+000 -9.883699e-002
      outer loop
         vertex 3.910221e+000 0.000000e+000 -8.427171e-001
         vertex 3.996396e+000 7.500000e+001 -1.697648e-001
         vertex 3.996396e+000 0.000000e+000 -1.697648e-001
      endloop
   endfacet
   facet normal 9.999007e-001 0.000000e+000 1.409025e-002
      outer loop
         vertex 3.996396e+000 0.000000e+000 -1.697648e-001
         vertex 3.996396e+000 7.500000e+001 -1.697648e-001
         vertex 3.967602e+000 7.500000e+001 5.080712e-001
      endloop
   endfacet
   facet normal 9.974935e-001 0.000000e+000 7.075802e-002
      outer loop
         vertex 3.996396e+000 0.000000e+000 -1.697648e-001
         vertex 3.967602e+000 7.500000e+001 5.080712e-001
         vertex 3.967602e+000 0.000000e+000 5.080712e-001
      endloop
   endfacet
   facet normal 9.831368e-001 0.000000e+000 1.828716e-001
      outer loop
         vertex 3.967602e+000 0.000000e+000 5.080712e-001
         vertex 3.967602e+000 7.500000e+001 5.080712e-001
         vertex 3.824667e+000 7.500000e+001 1.171291e+000
      endloop
   endfacet
   facet normal 9.711873e-001 0.000000e+000 2.383175e-001
      outer loop
         vertex 3.967602e+000 0.000000e+000 5.080712e-001
         vertex 3.824667e+000 7.500000e+001 1.171291e+000
         vertex 3.824667e+000 0.000000e+000 1.171291e+000
      endloop
   endfacet
   facet normal 9.380898e-001 0.000000e+000 3.463921e-001
      outer loop
         vertex 3.824667e+000 0.000000e+000 1.171291e+000
         vertex 3.824667e+000 7.500000e+001 1.171291e+000
         vertex 3.571703e+000 7.500000e+001 1.800815e+000
      endloop
   endfacet
   facet normal 9.169418e-001 0.000000e+000 3.990209e-001
      outer loop
         vertex 3.824667e+000 0.000000e+000 1.171291e+000
         vertex 3.571703e+000 7.500000e+001 1.800815e+000
         vertex 3.571703e+000 0.000000e+000 1.800815e+000
      endloop
   endfacet
   facet normal 8.660557e-001 0.000000e+000 4.999475e-001
      outer loop
         vertex 3.571703e+000 0.000000e+000 1.800815e+000
         vertex 3.571703e+000 7.500000e+001 1.800815e+000
         vertex 3.215989e+000 7.500000e+001 2.378533e+000
      endloop
   endfacet
   facet normal 8.363176e-001 0.000000e+000 5.482453e-001
      outer loop
         vertex 3.571703e+000 0.000000e+000 1.800815e+000
         vertex 3.215989e+000 7.500000e+001 2.378533e+000
         vertex 3.215989e+000 0.000000e+000 2.378533e+000
      endloop
   endfacet
   facet normal 7.691067e-001 0.000000e+000 6.391203e-001
      outer loop
         vertex 3.215989e+000 0.000000e+000 2.378533e+000
         vertex 3.215989e+000 7.500000e+001 2.378533e+000
         vertex 2.767756e+000 7.500000e+001 2.887824e+000
      endloop
   endfacet
   facet normal 7.316340e-001 0.000000e+000 6.816977e-001
      outer loop
         vertex 3.215989e+000 0.000000e+000 2.378533e+000
         vertex 2.767756e+000 7.500000e+001 2.887824e+000
         vertex 2.767756e+000 0.000000e+000 2.887824e+000
      endloop
   endfacet
   facet normal 6.500320e-001 0.000000e+000 7.599069e-001
      outer loop
         vertex 2.767756e+000 0.000000e+000 2.887824e+000
         vertex 2.767756e+000 7.500000e+001 2.887824e+000
         vertex 2.239899e+000 7.500000e+001 3.314039e+000
      endloop
   endfacet
   facet normal 6.059027e-001 0.000000e+000 7.955388e-001
      outer loop
         vertex 2.767756e+000 0.000000e+000 2.887824e+000
         vertex 2.239899e+000 7.500000e+001 3.314039e+000
         vertex 2.239899e+000 0.000000e+000 3.314039e+000
      endloop
   endfacet
   facet normal 5.122570e-001 0.000000e+000 8.588322e-001
      outer loop
         vertex 2.239899e+000 0.000000e+000 3.314039e+000
         vertex 2.239899e+000 7.500000e+001 3.314039e+000
         vertex 1.647605e+000 7.500000e+001 3.644914e+000
      endloop
   endfacet
   facet normal 4.627406e-001 0.000000e+000 8.864937e-001
      outer loop
         vertex 2.239899e+000 0.000000e+000 3.314039e+000
         vertex 1.647605e+000 7.500000e+001 3.644914e+000
         vertex 1.647605e+000 0.000000e+000 3.644914e+000
      endloop
   endfacet
   facet normal 3.597453e-001 0.000000e+000 9.330506e-001
      outer loop
         vertex 1.647605e+000 0.000000e+000 3.644914e+000
         vertex 1.647605e+000 7.500000e+001 3.644914e+000
         vertex 1.007912e+000 7.500000e+001 3.870932e+000
      endloop
   endfacet
   facet normal 3.062663e-001 0.000000e+000 9.519458e-001
      outer loop
         vertex 1.647605e+000 0.000000e+000 3.644914e+000
         vertex 1.007912e+000 7.500000e+001 3.870932e+000
         vertex 1.007912e+000 0.000000e+000 3.870932e+000
      endloop
   endfacet
   facet normal 1.968844e-001 0.000000e+000 9.804267e-001
      outer loop
         vertex 1.007912e+000 0.000000e+000 3.870932e+000
         vertex 1.007912e+000 7.500000e+001 3.870932e+000
         vertex 3.392237e-001 7.500000e+001 3.985590e+000
      endloop
   endfacet
   facet normal 1.409813e-001 0.000000e+000 9.900123e-001
      outer loop
         vertex 1.007912e+000 0.000000e+000 3.870932e+000
         vertex 3.392237e-001 7.500000e+001 3.985590e+000
         vertex 3.392237e-001 0.000000e+000 3.985590e+000
      endloop
   endfacet
   facet normal 5.658260e-002 0.000000e+000 9.983979e-001
      outer loop
         vertex 3.392237e-001 0.000000e+000 3.985590e+000
         vertex 3.392237e-001 7.500000e+001 3.985590e+000
         vertex 4.898587e-016 0.000000e+000 4.000000e+000
      endloop
   endfacet
   facet normal 0.000000e+000 1.000000e+000 0.000000e+000
      outer loop
         vertex 4.898587e-016 7.500000e+001 4.000000e+000
         vertex 3.392237e-001 7.500000e+001 3.985590e+000
         vertex 0.000000e+000 7.500000e+001 0.000000e+000
      endloop
   endfacet
   facet normal 0.000000e+000 1.000000e+000 0.000000e+000
      outer loop
         vertex 4.898587e-016 7.500000e+001 4.000000e+000
         vertex 0.000000e+000 7.500000e+001 0.000000e+000
         vertex -3.392237e-001 7.500000e+001 3.985590e+000
      endloop
   endfacet
   facet normal 0.000000e+000 1.000000e+000 0.000000e+000
      outer loop
         vertex -2.239899e+000 7.500000e+001 3.314039e+000
         vertex -1.647605e+000 7.500000e+001 3.644914e+000
         vertex 0.000000e+000 7.500000e+001 0.000000e+000
      endloop
   endfacet
   facet normal 0.000000e+000 1.000000e+000 0.000000e+000
      outer loop
         vertex 0.000000e+000 7.500000e+001 0.000000e+000
         vertex -1.647605e+000 7.500000e+001 3.644914e+000
         vertex -1.007912e+000 7.500000e+001 3.870932e+000
      endloop
   endfacet
   facet normal 0.000000e+000 1.000000e+000 0.000000e+000
      outer loop
         vertex 0.000000e+000 7.500000e+001 0.000000e+000
         vertex -1.007912e+000 7.500000e+001 3.870932e+000
         vertex -3.392237e-001 7.500000e+001 3.985590e+000
      endloop
   endfacet
   facet normal 0.000000e+000 1.000000e+000 0.000000e+000
      outer loop
         vertex -3.571703e+000 7.500000e+001 1.800815e+000
         vertex -3.215989e+000 7.500000e+001 2.378533e+000
         vertex 0.000000e+000 7.500000e+001 0.000000e+000
      endloop
   endfacet
   facet normal 0.000000e+000 1.000000e+000 0.000000e+000
      outer loop
         vertex 0.000000e+000 7.500000e+001 0.000000e+000
         vertex -3.215989e+000 7.500000e+001 2.378533e+000
         vertex -2.767756e+000 7.500000e+001 2.887824e+000
      endloop
   endfacet
   facet normal 0.000000e+000 1.000000e+000 0.000000e+000
      outer loop
         vertex 0.000000e+000 7.500000e+001 0.000000e+000
         vertex -2.767756e+000 7.500000e+001 2.887824e+000
         vertex -2.239899e+000 7.500000e+001 3.314039e+000
      endloop
   endfacet
   facet normal 0.000000e+000 1.000000e+000 0.000000e+000
      outer loop
         vertex -3.996396e+000 7.500000e+001 -1.697648e-001
         vertex -3.967602e+000 7.500000e+001 5.080712e-001
         vertex 0.000000e+000 7.500000e+001 0.000000e+000
      endloop
   endfacet
   facet normal 0.000000e+000 1.000000e+000 0.000000e+000
      outer loop
         vertex 0.000000e+000 7.500000e+001 0.000000e+000
         vertex -3.967602e+000 7.500000e+001 5.080712e-001
         vertex -3.824667e+000 7.500000e+001 1.171291e+000
      endloop
   endfacet
   facet normal 0.000000e+000 1.000000e+000 0.000000e+000
      outer loop
         vertex 0.000000e+000 7.500000e+001 0.000000e+000
         vertex -3.824667e+000 7.500000e+001 1.171291e+000
         vertex -3.571703e+000 7.500000e+001 1.800815e+000
      endloop
   endfacet
   facet normal 0.000000e+000 1.000000e+000 0.000000e+000
      outer loop
         vertex -3.406116e+000 7.500000e+001 -2.097229e+000
         vertex -3.711556e+000 7.500000e+001 -1.491426e+000
         vertex 0.000000e+000 7.500000e+001 0.000000e+000
      endloop
   endfacet
   facet normal 0.000000e+000 1.000000e+000 0.000000e+000
      outer loop
         vertex 0.000000e+000 7.500000e+001 0.000000e+000
         vertex -3.711556e+000 7.500000e+001 -1.491426e+000
         vertex -3.910221e+000 7.500000e+001 -8.427171e-001
      endloop
   endfacet
   facet normal 0.000000e+000 1.000000e+000 0.000000e+000
      outer loop
         vertex 0.000000e+000 7.500000e+001 0.000000e+000
         vertex -3.910221e+000 7.500000e+001 -8.427171e-001
         vertex -3.996396e+000 7.500000e+001 -1.697648e-001
      endloop
   endfacet
   facet normal 0.000000e+000 1.000000e+000 0.000000e+000
      outer loop
         vertex -1.950780e+000 7.500000e+001 -3.492056e+000
         vertex -2.512880e+000 7.500000e+001 -3.112143e+000
         vertex 0.000000e+000 7.500000e+001 0.000000e+000
      endloop
   endfacet
   facet normal 0.000000e+000 1.000000e+000 0.000000e+000
      outer loop
         vertex 0.000000e+000 7.500000e+001 0.000000e+000
         vertex -2.512880e+000 7.500000e+001 -3.112143e+000
         vertex -3.002689e+000 7.500000e+001 -2.642699e+000
      endloop
   endfacet
   facet normal 0.000000e+000 1.000000e+000 0.000000e+000
      outer loop
         vertex 0.000000e+000 7.500000e+001 0.000000e+000
         vertex -3.002689e+000 7.500000e+001 -2.642699e+000
         vertex -3.406116e+000 7.500000e+001 -2.097229e+000
      endloop
   endfacet
   facet normal 0.000000e+000 1.000000e+000 0.000000e+000
      outer loop
         vertex 0.000000e+000 7.500000e+001 -4.000000e+000
         vertex -6.760033e-001 7.500000e+001 -3.942464e+000
         vertex 0.000000e+000 7.500000e+001 0.000000e+000
      endloop
   endfacet
   facet normal 0.000000e+000 1.000000e+000 0.000000e+000
      outer loop
         vertex 0.000000e+000 7.500000e+001 0.000000e+000
         vertex -6.760033e-001 7.500000e+001 -3.942464e+000
         vertex -1.332559e+000 7.500000e+001 -3.771510e+000
      endloop
   endfacet
   facet normal 0.000000e+000 1.000000e+000 0.000000e+000
      outer loop
         vertex 0.000000e+000 7.500000e+001 0.000000e+000
         vertex -1.332559e+000 7.500000e+001 -3.771510e+000
         vertex -1.950780e+000 7.500000e+001 -3.492056e+000
      endloop
   endfacet
   facet normal 0.000000e+000 1.000000e+000 0.000000e+000
      outer loop
         vertex 1.950780e+000 7.500000e+001 -3.492056e+000
         vertex 1.332559e+000 7.500000e+001 -3.771510e+000
         vertex 0.000000e+000 7.500000e+001 0.000000e+000
      endloop
   endfacet
   facet normal 0.000000e+000 1.000000e+000 0.000000e+000
      outer loop
         vertex 0.000000e+000 7.500000e+001 0.000000e+000
         vertex 1.332559e+000 7.500000e+001 -3.771510e+000
         vertex 6.760033e-001 7.500000e+001 -3.942464e+000
      endloop
   endfacet
   facet normal 0.000000e+000 1.000000e+000 0.000000e+000
      outer loop
         vertex 0.000000e+000 7.500000e+001 0.000000e+000
         vertex 6.760033e-001 7.500000e+001 -3.942464e+000
         vertex 0.000000e+000 7.500000e+001 -4.000000e+000
      endloop
   endfacet
   facet normal 0.000000e+000 1.000000e+000 0.000000e+000
      outer loop
         vertex 3.406116e+000 7.500000e+001 -2.097229e+000
         vertex 3.002689e+000 7.500000e+001 -2.642699e+000
         vertex 0.000000e+000 7.500000e+001 0.000000e+000
      endloop
   endfacet
   facet normal 0.000000e+000 1.000000e+000 0.000000e+000
      outer loop
         vertex 0.000000e+000 7.500000e+001 0.000000e+000
         vertex 3.002689e+000 7.500000e+001 -2.642699e+000
         vertex 2.512880e+000 7.500000e+001 -3.112143e+000
      endloop
   endfacet
   facet normal 0.000000e+000 1.000000e+000 0.000000e+000
      outer loop
         vertex 0.000000e+000 7.500000e+001 0.000000e+000
         vertex 2.512880e+000 7.500000e+001 -3.112143e+000
         vertex 1.950780e+000 7.500000e+001 -3.492056e+000
      endloop
   endfacet
   facet normal 0.000000e+000 1.000000e+000 0.000000e+000
      outer loop
         vertex 3.996396e+000 7.500000e+001 -1.697648e-001
         vertex 3.910221e+000 7.500000e+001 -8.427171e-001
         vertex 0.000000e+000 7.500000e+001 0.000000e+000
      endloop
   endfacet
   facet normal 0.000000e+000 1.000000e+000 0.000000e+000
      outer loop
         vertex 0.000000e+000 7.500000e+001 0.000000e+000
         vertex 3.910221e+000 7.500000e+001 -8.427171e-001
         vertex 3.711556e+000 7.500000e+001 -1.491426e+000
      endloop
   endfacet
   facet normal 0.000000e+000 1.000000e+000 0.000000e+000
      outer loop
         vertex 0.000000e+000 7.500000e+001 0.000000e+000
         vertex 3.711556e+000 7.500000e+001 -1.491426e+000
         vertex 3.406116e+000 7.500000e+001 -2.097229e+000
      endloop
   endfacet
   facet normal 0.000000e+000 1.000000e+000 0.000000e+000
      outer loop
         vertex 3.571703e+000 7.500000e+001 1.800815e+000
         vertex 3.824667e+000 7.500000e+001 1.171291e+000
         vertex 0.000000e+000 7.500000e+001 0.000000e+000
      endloop
   endfacet
   facet normal 0.000000e+000 1.000000e+000 0.000000e+000
      outer loop
         vertex 0.000000e+000 7.500000e+001 0.000000e+000
         vertex 3.824667e+000 7.500000e+001 1.171291e+000
         vertex 3.967602e+000 7.500000e+001 5.080712e-001
      endloop
   endfacet
   facet normal 0.000000e+000 1.000000e+000 0.000000e+000
      outer loop
         vertex 0.000000e+000 7.500000e+001 0.000000e+000
         vertex 3.967602e+000 7.500000e+001 5.080712e-001
         vertex 3.996396e+000 7.500000e+001 -1.697648e-001
      endloop
   endfacet
   facet normal 0.000000e+000 1.000000e+000 0.000000e+000
      outer loop
         vertex 2.239899e+000 7.500000e+001 3.314039e+000
         vertex 2.767756e+000 7.500000e+001 2.887824e+000
         vertex 0.000000e+000 7.500000e+001 0.000000e+000
      endloop
   endfacet
   facet normal 0.000000e+000 1.000000e+000 0.000000e+000
      outer loop
         vertex 0.000000e+000 7.500000e+001 0.000000e+000
         vertex 2.767756e+000 7.500000e+001 2.887824e+000
         vertex 3.215989e+000 7.500000e+001 2.378533e+000
      endloop
   endfacet
   facet normal 0.000000e+000 1.000000e+000 0.000000e+000
      outer loop
         vertex 0.000000e+000 7.500000e+001 0.000000e+000
         vertex 3.215989e+000 7.500000e+001 2.378533e+000
         vertex 3.571703e+000 7.500000e+001 1.800815e+000
      endloop
   endfacet
   facet normal 0.000000e+000 1.000000e+000 0.000000e+000
      outer loop
         vertex 3.392237e-001 7.500000e+001 3.985590e+000
         vertex 1.007912e+000 7.500000e+001 3.870932e+000
         vertex 0.000000e+000 7.500000e+001 0.000000e+000
      endloop
   endfacet
   facet normal 0.000000e+000 1.000000e+000 0.000000e+000
      outer loop
         vertex 0.000000e+000 7.500000e+001 0.000000e+000
         vertex 1.007912e+000 7.500000e+001 3.870932e+000
         vertex 1.647605e+000 7.500000e+001 3.644914e+000
      endloop
   endfacet
   facet normal 0.000000e+000 1.000000e+000 0.000000e+000
      outer loop
         vertex 0.000000e+000 7.500000e+001 0.000000e+000
         vertex 1.647605e+000 7.500000e+001 3.644914e+000
         vertex 2.239899e+000 7.500000e+001 3.314039e+000
      endloop
   endfacet
   facet normal 0.000000e+000 -1.000000e+000 0.000000e+000
      outer loop
         vertex 1.469576e-015 0.000000e+000 4.000000e+000
         vertex -3.392237e-001 0.000000e+000 3.985590e+000
         vertex 0.000000e+000 0.000000e+000 0.000000e+000
      endloop
   endfacet
   facet normal 0.000000e+000 -1.000000e+000 0.000000e+000
      outer loop
         vertex 1.469576e-015 0.000000e+000 4.000000e+000
         vertex 0.000000e+000 0.000000e+000 0.000000e+000
         vertex 3.392237e-001 0.000000e+000 3.985590e+000
      endloop
   endfacet
   facet normal 0.000000e+000 -1.000000e+000 0.000000e+000
      outer loop
         vertex 2.239899e+000 0.000000e+000 3.314039e+000
         vertex 1.647605e+000 0.000000e+000 3.644914e+000
         vertex 0.000000e+000 0.000000e+000 0.000000e+000
      endloop
   endfacet
   facet normal 0.000000e+000 -1.000000e+000 0.000000e+000
      outer loop
         vertex 0.000000e+000 0.000000e+000 0.000000e+000
         vertex 1.647605e+000 0.000000e+000 3.644914e+000
         vertex 1.007912e+000 0.000000e+000 3.870932e+000
      endloop
   endfacet
   facet normal 0.000000e+000 -1.000000e+000 0.000000e+000
      outer loop
         vertex 0.000000e+000 0.000000e+000 0.000000e+000
         vertex 1.007912e+000 0.000000e+000 3.870932e+000
         vertex 3.392237e-001 0.000000e+000 3.985590e+000
      endloop
   endfacet
   facet normal 0.000000e+000 -1.000000e+000 0.000000e+000
      outer loop
         vertex 3.571703e+000 0.000000e+000 1.800815e+000
         vertex 3.215989e+000 0.000000e+000 2.378533e+000
         vertex 0.000000e+000 0.000000e+000 0.000000e+000
      endloop
   endfacet
   facet normal 0.000000e+000 -1.000000e+000 0.000000e+000
      outer loop
         vertex 0.000000e+000 0.000000e+000 0.000000e+000
         vertex 3.215989e+000 0.000000e+000 2.378533e+000
         vertex 2.767756e+000 0.000000e+000 2.887824e+000
      endloop
   endfacet
   facet normal 0.000000e+000 -1.000000e+000 0.000000e+000
      outer loop
         vertex 0.000000e+000 0.000000e+000 0.000000e+000
         vertex 2.767756e+000 0.000000e+000 2.887824e+000
         vertex 2.239899e+000 0.000000e+000 3.314039e+000
      endloop
   endfacet
   facet normal 0.000000e+000 -1.000000e+000 0.000000e+000
      outer loop
         vertex 3.996396e+000 0.000000e+000 -1.697648e-001
         vertex 3.967602e+000 0.000000e+000 5.080712e-001
         vertex 0.000000e+000 0.000000e+000 0.000000e+000
      endloop
   endfacet
   facet normal 0.000000e+000 -1.000000e+000 0.000000e+000
      outer loop
         vertex 0.000000e+000 0.000000e+000 0.000000e+000
         vertex 3.967602e+000 0.000000e+000 5.080712e-001
         vertex 3.824667e+000 0.000000e+000 1.171291e+000
      endloop
   endfacet
   facet normal 0.000000e+000 -1.000000e+000 0.000000e+000
      outer loop
         vertex 0.000000e+000 0.000000e+000 0.000000e+000
         vertex 3.824667e+000 0.000000e+000 1.171291e+000
         vertex 3.571703e+000 0.000000e+000 1.800815e+000
      endloop
   endfacet
   facet normal 0.000000e+000 -1.000000e+000 0.000000e+000
      outer loop
         vertex 3.406116e+000 0.000000e+000 -2.097229e+000
         vertex 3.711556e+000 0.000000e+000 -1.491426e+000
         vertex 0.000000e+000 0.000000e+000 0.000000e+000
      endloop
   endfacet
   facet normal 0.000000e+000 -1.000000e+000 0.000000e+000
      outer loop
         vertex 0.000000e+000 0.000000e+000 0.000000e+000
         vertex 3.711556e+000 0.000000e+000 -1.491426e+000
         vertex 3.910221e+000 0.000000e+000 -8.427171e-001
      endloop
   endfacet
   facet normal 0.000000e+000 -1.000000e+000 0.000000e+000
      outer loop
         vertex 0.000000e+000 0.000000e+000 0.000000e+000
         vertex 3.910221e+000 0.000000e+000 -8.427171e-001
         vertex 3.996396e+000 0.000000e+000 -1.697648e-001
      endloop
   endfacet
   facet normal 0.000000e+000 -1.000000e+000 0.000000e+000
      outer loop
         vertex 1.950780e+000 0.000000e+000 -3.492056e+000
         vertex 2.512880e+000 0.000000e+000 -3.112143e+000
         vertex 0.000000e+000 0.000000e+000 0.000000e+000
      endloop
   endfacet
   facet normal 0.000000e+000 -1.000000e+000 0.000000e+000
      outer loop
         vertex 0.000000e+000 0.000000e+000 0.000000e+000
         vertex 2.512880e+000 0.000000e+000 -3.112143e+000
         vertex 3.002689e+000 0.000000e+000 -2.642699e+000
      endloop
   endfacet
   facet normal 0.000000e+000 -1.000000e+000 0.000000e+000
      outer loop
         vertex 0.000000e+000 0.000000e+000 0.000000e+000
         vertex 3.002689e+000 0.000000e+000 -2.642699e+000
         vertex 3.406116e+000 0.000000e+000 -2.097229e+000
      endloop
   endfacet
   facet normal 0.000000e+000 -1.000000e+000 0.000000e+000
      outer loop
         vertex 0.000000e+000 0.000000e+000 -4.000000e+000
         vertex 6.760033e-001 0.000000e+000 -3.942464e+000
         vertex 0.000000e+000 0.000000e+000 0.000000e+000
      endloop
   endfacet
   facet normal 0.000000e+000 -1.000000e+000 0.000000e+000
      outer loop
         vertex 0.000000e+000 0.000000e+000 0.000000e+000
         vertex 6.760033e-001 0.000000e+000 -3.942464e+000
         vertex 1.332559e+000 0.000000e+000 -3.771510e+000
      endloop
   endfacet
   facet normal 0.000000e+000 -1.000000e+000 0.000000e+000
      outer loop
         vertex 0.000000e+000 0.000000e+000 0.000000e+000
         vertex 1.332559e+000 0.000000e+000 -3.771510e+000
         vertex 1.950780e+000 0.000000e+000 -3.492056e+000
      endloop
   endfacet
   facet normal 0.000000e+000 -1.000000e+000 0.000000e+000
      outer loop
         vertex -1.950780e+000 0.000000e+000 -3.492056e+000
         vertex -1.332559e+000 0.000000e+000 -3.771510e+000
         vertex 0.000000e+000 0.000000e+000 0.000000e+000
      endloop
   endfacet
   facet normal 0.000000e+000 -1.000000e+000 0.000000e+000
      outer loop
         vertex 0.000000e+000 0.000000e+000 0.000000e+000
         vertex -1.332559e+000 0.000000e+000 -3.771510e+000
         vertex -6.760033e-001 0.000000e+000 -3.942464e+000
      endloop
   endfacet
   facet normal 0.000000e+000 -1.000000e+000 0.000000e+000
      outer loop
         vertex 0.000000e+000 0.000000e+000 0.000000e+000
         vertex -6.760033e-001 0.000000e+000 -3.942464e+000
         vertex 0.000000e+000 0.000000e+000 -4.000000e+000
      endloop
   endfacet
   facet normal 0.000000e+000 -1.000000e+000 0.000000e+000
      outer loop
         vertex -3.406116e+000 0.000000e+000 -2.097229e+000
         vertex -3.002689e+000 0.000000e+000 -2.642699e+000
         vertex 0.000000e+000 0.000000e+000 0.000000e+000
      endloop
   endfacet
   facet normal 0.000000e+000 -1.000000e+000 0.000000e+000
      outer loop
         vertex 0.000000e+000 0.000000e+000 0.000000e+000
         vertex -3.002689e+000 0.000000e+000 -2.642699e+000
         vertex -2.512880e+000 0.000000e+000 -3.112143e+000
      endloop
   endfacet
   facet normal 0.000000e+000 -1.000000e+000 0.000000e+000
      outer loop
         vertex 0.000000e+000 0.000000e+000 0.000000e+000
         vertex -2.512880e+000 0.000000e+000 -3.112143e+000
         vertex -1.950780e+000 0.000000e+000 -3.492056e+000
      endloop
   endfacet
   facet normal 0.000000e+000 -1.000000e+000 0.000000e+000
      outer loop
         vertex -3.996396e+000 0.000000e+000 -1.697648e-001
         vertex -3.910221e+000 0.000000e+000 -8.427171e-001
         vertex 0.000000e+000 0.000000e+000 0.000000e+000
      endloop
   endfacet
   facet normal 0.000000e+000 -1.000000e+000 0.000000e+000
      outer loop
         vertex 0.000000e+000 0.000000e+000 0.000000e+000
         vertex -3.910221e+000 0.000000e+000 -8.427171e-001
         vertex -3.711556e+000 0.000000e+000 -1.491426e+000
      endloop
   endfacet
   facet normal 0.000000e+000 -1.000000e+000 0.000000e+000
      outer loop
         vertex 0.000000e+000 0.000000e+000 0.000000e+000
         vertex -3.711556e+000 0.000000e+000 -1.491426e+000
         vertex -3.406116e+000 0.000000e+000 -2.097229e+000
      endloop
   endfacet
   facet normal 0.000000e+000 -1.000000e+000 0.000000e+000
      outer loop
         vertex -3.571703e+000 0.000000e+000 1.800815e+000
         vertex -3.824667e+000 0.000000e+000 1.171291e+000
         vertex 0.000000e+000 0.000000e+000 0.000000e+000
      endloop
   endfacet
   facet normal 0.000000e+000 -1.000000e+000 0.000000e+000
      outer loop
         vertex 0.000000e+000 0.000000e+000 0.000000e+000
         vertex -3.824667e+000 0.000000e+000 1.171291e+000
         vertex -3.967602e+000 0.000000e+000 5.080712e-001
      endloop
   endfacet
   facet normal 0.000000e+000 -1.000000e+000 0.000000e+000
      outer loop
         vertex 0.000000e+000 0.000000e+000 0.000000e+000
         vertex -3.967602e+000 0.000000e+000 5.080712e-001
         vertex -3.996396e+000 0.000000e+000 -1.697648e-001
      endloop
   endfacet
   facet normal 0.000000e+000 -1.000000e+000 0.000000e+000
      outer loop
         vertex -2.239899e+000 0.000000e+000 3.314039e+000
         vertex -2.767756e+000 0.000000e+000 2.887824e+000
         vertex 0.000000e+000 0.000000e+000 0.000000e+000
      endloop
   endfacet
   facet normal 0.000000e+000 -1.000000e+000 0.000000e+000
      outer loop
         vertex 0.000000e+000 0.000000e+000 0.000000e+000
         vertex -2.767756e+000 0.000000e+000 2.887824e+000
         vertex -3.215989e+000 0.000000e+000 2.378533e+000
      endloop
   endfacet
   facet normal 0.000000e+000 -1.000000e+000 0.000000e+000
      outer loop
         vertex 0.000000e+000 0.000000e+000 0.000000e+000
         vertex -3.215989e+000 0.000000e+000 2.378533e+000
         vertex -3.571703e+000 0.000000e+000 1.800815e+000
      endloop
   endfacet
   facet normal 0.000000e+000 -1.000000e+000 0.000000e+000
      outer loop
         vertex -3.392237e-001 0.000000e+000 3.985590e+000
         vertex -1.007912e+000 0.000000e+000 3.870932e+000
         vertex 0.000000e+000 0.000000e+000 0.000000e+000
      endloop
   endfacet
   facet normal 0.000000e+000 -1.000000e+000 0.000000e+000
      outer loop
         vertex 0.000000e+000 0.000000e+000 0.000000e+000
         vertex -1.007912e+000 0.000000e+000 3.870932e+000
         vertex -1.647605e+000 0.000000e+000 3.644914e+000
      endloop
   endfacet
   facet normal 0.000000e+000 -1.000000e+000 0.000000e+000
      outer loop
         vertex 0.000000e+000 0.000000e+000 0.000000e+000
         vertex -1.647605e+000 0.000000e+000 3.644914e+000
         vertex -2.239899e+000 0.000000e+000 3.314039e+000
      endloop
   endfacet
endsolid